SplineFontDB: 3.2
FontName: Mikhak-Black
FullName: Mikhak Black
FamilyName: Mikhak Black
Weight: Black
Copyright: Copyright 2022 The Mikhak Project Authors (https://github.com/aminabedi68/Mikhak)
Version: 3.40
ItalicAngle: 0
UnderlinePosition: -600
UnderlineWidth: 120
Ascent: 1638
Descent: 410
InvalidEm: 0
LayerCount: 2
Layer: 0 0 "Back" 1
Layer: 1 0 "Fore" 0
PreferredKerning: 4
StyleMap: 0x0040
FSType: 0
OS2Version: 0
OS2_WeightWidthSlopeOnly: 0
OS2_UseTypoMetrics: 1
CreationTime: 1497005464
ModificationTime: 1658344931
PfmFamily: 33
TTFWeight: 900
TTFWidth: 5
LineGap: 0
VLineGap: 0
OS2TypoAscent: 2200
OS2TypoAOffset: 0
OS2TypoDescent: -1200
OS2TypoDOffset: 0
OS2TypoLinegap: 0
OS2WinAscent: 2553
OS2WinAOffset: 0
OS2WinDescent: 1444
OS2WinDOffset: 0
HheadAscent: 2200
HheadAOffset: 0
HheadDescent: -1200
HheadDOffset: 0
OS2SubXSize: 1277
OS2SubYSize: 1185
OS2SubXOff: 0
OS2SubYOff: 256
OS2SupXSize: 1277
OS2SupYSize: 1185
OS2SupXOff: 0
OS2SupYOff: 870
OS2StrikeYSize: 91
OS2StrikeYPos: 766
OS2CapHeight: 1400
OS2XHeight: 1012
OS2Vendor: 'amin'
Lookup: 6 9 0 "'ccmp' Glyph Composition/Decomposition in Arabic lookup 73" { "'ccmp' Glyph Composition/Decomposition in Arabic lookup 73 contextual 0"  "'ccmp' Glyph Composition/Decomposition in Arabic lookup 73 contextual 1"  "'ccmp' Glyph Composition/Decomposition in Arabic lookup 73 contextual 2"  } ['ccmp' ('arab' <'FAR ' 'MLY ' 'SND ' 'URD ' 'dflt' > ) ]
Lookup: 4 1 0 "'ccmp' Glyph Composition/Decomposition in Arabic lookup 0" { "'ccmp' Glyph Composition/Decomposition in Arabic lookup 0 subtable 0"  } ['ccmp' ('arab' <'FAR ' 'KUR ' 'URD ' 'dflt' > ) ]
Lookup: 1 8 0 "'locl' Localized Forms lookup 17" { "'locl' Localized Forms lookup 17 subtable"  } ['locl' ('arab' <'URD ' > ) ]
Lookup: 1 0 0 "'locl' Localized Forms in Latin lookup 1" { "'locl' Localized Forms in Latin lookup 1 subtable"  } ['locl' ('DFLT' <'dflt' > 'latn' <'dflt' > ) ]

StartChar: a
Encoding: 97 97 0
GlifName: a
Width: 1309
Flags: HMW
LayerCount: 2
Fore
SplineSet
971 690 m 0
 1065 677 1139.82701698 598.913646231 1134 495 c 0
 1130.81738281 438.244140625 1127.0784518 331.006277253 1130 294 c 0
 1133 256 1142 225 1191 207 c 0
 1245 187 1306 145 1306 45 c 0
 1306 -49 1228 -126 1134 -126 c 0
 924 -126 811.331227405 33.7768505858 791 293 c 0
 787 344 785.852539062 467.522460938 790 543 c 0
 795 634 877 703 971 690 c 0
546 186 m 0
 684 186 778 292 790 543 c 2
 813 1009 l 2
 818 1103 900 1169 994 1156 c 0
 1088 1143 1162 1054 1157 963 c 2
 1134 495 l 1
 1113 89 848 -156 541 -156 c 0
 236 -156 13 87 13 434 c 0
 13 837 279 1172 617 1172 c 0
 819 1172 969 1055 1115 837 c 0
 1170 756 1143 647 1064 604 c 0
 985 561 871 591 825 676 c 0
 772 775 701 830 613 830 c 0
 460 830 357 655 357 429 c 0
 357 268 425 186 546 186 c 0
EndSplineSet
EndChar

StartChar: c
Encoding: 99 99 1
GlifName: c
Width: 1071
Flags: HMW
LayerCount: 2
Fore
SplineSet
1010 795 m 0
 949 724 839 716 768 777 c 0
 724 815 686 830 636 830 c 0
 475 830 357 683 357 455 c 0
 357 281 443 186 599 186 c 0
 665 186 771 203 849 226 c 0
 939 252 1036 199 1061 108 c 0
 1086 17 1033 -77 943 -103 c 0
 817 -140 723 -156 628 -156 c 0
 253 -156 13 90 13 476 c 0
 13 876 274 1172 626 1172 c 0
 765 1172 890 1126 992 1037 c 0
 1063 976 1071 866 1010 795 c 0
EndSplineSet
EndChar

StartChar: e
Encoding: 101 101 2
GlifName: e
Width: 1191
Flags: HMW
LayerCount: 2
Fore
SplineSet
718 830 m 0
 565 830 411 676 411 460 c 0
 411 290 477 186 635 186 c 0
 741 186 822 214 871 258 c 0
 941 321 1050 316 1113 246 c 0
 1176 176 1171 67 1101 4 c 0
 958 -126 787 -156 635 -156 c 0
 333 -156 69 36 69 440 c 0
 69 790 319 1172 728 1172 c 0
 904 1172 1135 1055 1135 805 c 0
 1135 584 954 433 880 389 c 0
 670 264 451 189 207 172 c 0
 113 166 30 237 24 331 c 0
 18 425 89.0283203125 507.5703125 183 514 c 0
 373 527 551.767578125 575.389648438 691.379882812 658.361328125 c 0
 785 714 803 751 803 776 c 0
 803 810 773 830 718 830 c 0
EndSplineSet
EndChar

StartChar: f
Encoding: 102 102 3
GlifName: f
Width: 813
Flags: MW
LayerCount: 2
Fore
SplineSet
544 1780 m 4
 645 1780 716.841796875 1722.73730469 764 1668 c 4
 820 1603 810.809570312 1496.04296875 766.036132812 1443.76171875 c 4
 714 1383 673.943359375 1380.71191406 625.12890625 1390.39550781 c 4
 612 1393 599 1395 590 1395 c 4
 574 1395 566 1377 559 1294 c 4
 530.818359375 959.841796875 520 345 520 -4 c 4
 520 -98 442 -175 348 -175 c 4
 254 -175 177 -98 177 -4 c 4
 177 351 185 964 217 1323 c 4
 230 1476 283 1780 544 1780 c 4
14 816 m 0
 8 910 78 994 172 1000 c 0
 233 1005 287 1006 337 1006 c 0
 445 1006 550 999 658 986 c 0
 751 975 820 889 809 796 c 0
 798 703 711 635 618 646 c 0
 521 657 433 662 337 662 c 0
 287 662 243 661 198 658 c 0
 104 652 20 722 14 816 c 0
EndSplineSet
EndChar

StartChar: g
Encoding: 103 103 4
GlifName: g
Width: 1258
Flags: HMW
LayerCount: 2
Fore
SplineSet
546 186 m 0
 705 186 809 322 820 543 c 2
 843 1009 l 2
 848 1103 930 1169 1024 1156 c 0
 1117 1143 1192 1055 1187 963 c 2
 1164 495 l 2
 1145 122 878 -136 541 -136 c 0
 236 -136 23 87 23 434 c 0
 23 842 293 1172 627 1172 c 0
 824 1172 995 1061 1145 837 c 0
 1199 758 1175 648 1094 604 c 0
 1012 560 900 594 855 676 c 0
 804 771 715 830 623 830 c 0
 474 830 367 662 367 429 c 0
 367 266 426 186 546 186 c 0
992 1158 m 0
 1095 1158 1185 1081 1185 994 c 0
 1185 -270 1041 -608 503 -608 c 0
 349 -608 181 -544 71 -422 c 0
 7.8857421875 -352.000976562 8.6259765625 -242.393554688 74 -179 c 0
 143.618164062 -111.459960938 260.892578125 -112.424804688 317 -181 c 0
 368.927734375 -244.466796875 433.477539062 -265 493 -265 c 0
 800 -265 844 -110 844 979 c 0
 844 1082 907 1158 992 1158 c 0
EndSplineSet
EndChar

StartChar: o
Encoding: 111 111 5
GlifName: o
Width: 1159
Flags: MW
LayerCount: 2
Fore
SplineSet
592 830 m 0
 462 830 357 702 357 486 c 0
 357 292 466 186 565 186 c 0
 675 186 803 328 803 538 c 0
 803 717 704 830 592 830 c 0
592 1172 m 0
 970 1172 1145 819 1145 538 c 0
 1145 232 955 -156 565 -156 c 0
 204 -156 13 184 13 486 c 0
 13 790 188 1172 592 1172 c 0
EndSplineSet
EndChar

StartChar: s
Encoding: 115 115 6
GlifName: s
Width: 1020
Flags: HMW
LayerCount: 2
Fore
SplineSet
951 799 m 0
 894 725 798 715 712 768 c 0
 641 812 573 830 519 830 c 0
 450 830 404 801 404 759 c 0
 404 712 480.74132125 688.161476968 580 658 c 0
 761 603 1017 524 1017 239 c 0
 1017 15 799 -156 513 -156 c 0
 309 -156 139 -83 42 46 c 1
 -10 123 12 232 90 284 c 0
 167 335 240 297 287 266 c 0
 349 224 446 186 554 186 c 0
 614 186 673 198 673 231 c 0
 673 276 599.233527719 298.75776782 503 328 c 0
 322 383 61 464 61 760 c 0
 61 986 275 1174 532 1174 c 0
 700 1174 803 1130 920 1039 c 0
 994 982 1008 873 951 799 c 0
EndSplineSet
EndChar

StartChar: t
Encoding: 116 116 7
GlifName: t
Width: 815
Flags: HMW
LayerCount: 2
Fore
SplineSet
810 798 m 0
 798 705 711 638 618 650 c 0
 555 658 487 662 413 662 c 0
 343 662 273 658 206 650 c 0
 113 639 26 706 15 799 c 0
 4 892 71 979 164 990 c 0
 247 1000 331 1004 413 1004 c 0
 497 1004 581 1000 662 990 c 0
 755 978 822 891 810 798 c 0
447 1386 m 0
 540 1375 608 1289 597 1196 c 0
 564 913 539 637 539 355 c 0
 539 265 545 186 563 186 c 0
 574 186 591 188 607 191 c 0
 699 208 789 145 806 54 c 0
 823 -38 761 -130 669 -147 c 0
 631 -154 596 -156 563 -156 c 0
 244 -156 197 189 197 355 c 0
 197 657 224 949 257 1236 c 0
 268 1329 354 1397 447 1386 c 0
EndSplineSet
EndChar

StartChar: v
Encoding: 118 118 8
GlifName: v
Width: 1124
Flags: MW
LayerCount: 2
Fore
SplineSet
112 1127 m 0
 197 1166 301 1129 341 1044 c 0
 417 883 504 690 579 490 c 1
 661 661 733 838 785 1019 c 0
 811 1108 908 1161 997 1135 c 0
 1086 1109 1139 1012 1113 923 c 0
 1011 569 847 238 673 -45 c 0
 651 -81 614 -108 573 -120 c 0
 478 -146 376 -85 358 12 c 0
 300 304 154 632 29 898 c 0
 -11 983 27 1088 112 1127 c 0
EndSplineSet
EndChar

StartChar: w
Encoding: 119 119 9
GlifName: w
Width: 1551
Flags: HMW
LayerCount: 2
Fore
SplineSet
418 1092 m 0
 494 1041 517 953 476 870 c 0
 411 740 357 538 357 343 c 0
 357 232 384 186 450 186 c 0
 558 186 602 312 638 682 c 0
 648 782 709 847 794 847 c 0
 887 847 960 776 960 684 c 0
 960 271 1006 186 1080 186 c 0
 1172 186 1203 293 1203 430 c 0
 1203 577 1167 758 1132 875 c 0
 1102 974 1117 1067 1213 1109 c 0
 1301 1147 1387 1114 1430 1027 c 0
 1499 888 1537 705 1537 506 c 0
 1537 97 1377 -156 1119 -156 c 0
 967 -156 830 -78 768 97 c 1
 680 -60 535 -156 386 -156 c 0
 163 -156 13 57 13 373 c 0
 13 588 82 868 178 1038 c 0
 227 1127 331 1150 418 1092 c 0
EndSplineSet
EndChar

StartChar: x
Encoding: 120 120 10
GlifName: x
Width: 1177
Flags: MW
LayerCount: 2
Fore
SplineSet
76 -133 m 0
 4 -74 -7 37 52 109 c 2
 847 1080 l 2
 906 1152 1017 1163 1089 1104 c 0
 1161 1045 1172 934 1113 862 c 2
 318 -109 l 2
 259 -181 148 -192 76 -133 c 0
184 1110 m 0
 268 1151 372 1117 413 1033 c 0
 561 734 875 369 1123 121 c 0
 1189 55 1189 -55 1123 -121 c 0
 1057 -187 947 -187 881 -121 c 0
 617 143 287 518 107 881 c 0
 66 965 100 1069 184 1110 c 0
EndSplineSet
EndChar

StartChar: y
Encoding: 121 121 11
GlifName: y
Width: 1177
Flags: HMW
LayerCount: 2
Fore
SplineSet
274 1142 m 0
 366.96830855 1132.00340768 437.003410007 1045.03171306 427 952 c 0
 413.051159618 823.241473397 406 621.357421875 406 509 c 0
 406 216.98046875 447.307692308 186 556 186 c 0
 669.5 186 753 278.099609375 794.799804688 422.5 c 0
 818.549804688 503.25 905.950195312 551.700195312 986.700195312 527.950195312 c 0
 1067.45019531 504.200195312 1114.95019531 416.799804688 1091.20019531 336.049804688 c 0
 1012.34960938 70.0498046875 815.565429688 -131 556 -131 c 0
 241.090820312 -131 64 -8 64 509 c 0
 64 652.213867188 71.0892691952 867.585568918 85 990 c 0
 94.9903468892 1082.91022607 180.910052415 1152.00967178 274 1142 c 0
944 1135 m 0
 1038.11071163 1139.00471113 1118.61345407 1064.87208298 1123 971 c 0
 1126.69496855 891.927672956 1128 781 1128 450 c 0
 1128 -279 920.692708333 -606 492 -606 c 0
 302.974418605 -606 141.503366351 -527.810188661 48 -391 c 0
 -4.27810985969 -313.588183477 16.4074581336 -203.724833468 93 -152 c 0
 170.411816523 -99.7218901403 280.275166532 -120.407458134 332 -197 c 0
 362.920792079 -242.092821782 411.923076923 -262 492 -262 c 0
 718.695544554 -262 786 -77.0272108844 786 546 c 0
 786 738 784.282051282 878.871794872 781 956 c 0
 776.983040279 1050.39855344 850.395202176 1131.01681711 944 1135 c 0
EndSplineSet
EndChar

StartChar: z
Encoding: 122 122 12
GlifName: z
Width: 1094
Flags: MW
LayerCount: 2
Fore
SplineSet
16 854 m 0
 1 947 64 1036 157 1051 c 0
 249 1066 397 1086 563 1086 c 0
 742 1086 875 1045 963 990 c 0
 1060 929 1069 786 982 713 c 0
 877 625 674 401 517 192 c 1
 662 197 806 200 919 200 c 0
 1013 200 1091 123 1091 29 c 0
 1091 -65 1013 -142 919 -142 c 0
 715 -142 389 -153 206 -169 c 0
 60 -182 -17 -26 39 82 c 0
 147 289 344 540 530 747 c 1
 457 744 390 738 336 731 c 0
 287 724 247 718 213 713 c 0
 120 698 31 761 16 854 c 0
EndSplineSet
EndChar

StartChar: A
Encoding: 65 65 13
GlifName: A_
Width: 1376
Flags: HMW
LayerCount: 2
Fore
SplineSet
114 -165 m 0
 29 -127 -10 -22 28 63 c 2
 566 1387 l 2
 606 1477 720 1514 806 1466 c 0
 841 1446 870 1413 883 1379 c 2
 1361 63 l 2
 1395 -24 1351 -126 1264 -160 c 0
 1177 -194 1075 -150 1041 -63 c 2
 712 875 l 1
 342 -79 l 2
 304 -164 199 -203 114 -165 c 0
1204 272 m 0
 1195 179 1112 107 1018 116 c 2
 348 144 l 2
 255 153 183 236 192 330 c 0
 201 424 285 495 378 486 c 2
 1048 458 l 2
 1142 449 1213 365 1204 272 c 0
EndSplineSet
EndChar

StartChar: B
Encoding: 66 66 14
GlifName: B_
Width: 1178
Flags: HMW
LayerCount: 2
Fore
SplineSet
105.049804688 637.049804688 m 0
 100.549804688 721.650390625 165.349609375 795.450195312 249.950195312 799.950195312 c 0
 312.950195312 803.549804688 481 828 561 828 c 0
 888 828 1175 685 1175 356 c 0
 1175 -55 794 -156 526 -156 c 0
 406 -156 285 -139 177 -104 c 0
 88 -76 37 21 65 110 c 0
 93 199 190 250 279 222 c 0
 348 200 440 186 526 186 c 0
 744 186 831 233 831 356 c 0
 831 487 786 518 561 518 c 0
 503 518 327.349609375 495.75 267.950195312 492.150390625 c 0
 183.349609375 487.650390625 109.549804688 552.450195312 105.049804688 637.049804688 c 0
215 -112 m 0
 121 -106 51 -22 57 72 c 0
 72 265 79 497 79 684 c 0
 79 917 69 1083 54 1266 c 0
 46 1360 117 1443 211 1451 c 0
 305 1459 388 1388 396 1294 c 0
 411 1109 421 947 421 706 c 0
 421 511 414 252 399 46 c 0
 393 -48 309 -118 215 -112 c 0
65 1218 m 0
 31 1305 76 1406 163 1440 c 0
 284 1486 422 1518 558 1518 c 0
 814 1518 1093 1333 1093 1008 c 0
 1093 550 332.75 502.950195312 264.349609375 499.349609375 c 0
 179.75 495.75 108.650390625 556.049804688 105.049804688 640.650390625 c 0
 101.450195312 725.25 167.33203125 793.115234375 251.75 800.849609375 c 0
 690 841 751 934 751 1037 c 0
 751 1114 694 1174 558 1174 c 0
 474 1174 371 1154 287 1120 c 0
 200 1086 99 1131 65 1218 c 0
EndSplineSet
EndChar

StartChar: C
Encoding: 67 67 15
GlifName: C_
Width: 1261
Flags: HMW
LayerCount: 2
Fore
SplineSet
1208 1222 m 0
 1170 1137 1066 1097 981 1135 c 0
 922 1161 857 1174 789 1174 c 0
 512 1174 357 954 357 662 c 0
 357 382 501 186 785 186 c 0
 862 186 939 204 1007 240 c 0
 1090 284 1193 251 1237 168 c 0
 1281 85 1248 -18 1165 -62 c 0
 1047 -124 916 -156 785 -156 c 0
 317 -156 13 200 13 662 c 0
 13 1122 308 1518 789 1518 c 0
 901 1518 1014 1497 1121 1449 c 0
 1206 1411 1246 1307 1208 1222 c 0
EndSplineSet
EndChar

StartChar: D
Encoding: 68 68 16
GlifName: D_
Width: 1319
Flags: HMW
LayerCount: 2
Fore
SplineSet
428 1176 m 1
 437 1060 441 951 441 811 c 0
 441 608 431 392 412 190 c 1
 433 188 455 186 477 186 c 0
 760 186 973 404 973 701 c 0
 973 1027 794 1174 431 1174 c 0
 430 1174 429 1175 428 1176 c 1
204 1493 m 0
 279 1510 355 1518 431 1518 c 0
 922 1518 1315 1235 1315 701 c 0
 1315 228 956 -156 477 -156 c 0
 369 -156 263 -137 163 -98 c 0
 87 -69 46 14 55 84 c 0
 83 300 99 571 99 811 c 0
 99 1005 91 1117 71 1308 c 0
 61 1398 131 1477 204 1493 c 0
EndSplineSet
EndChar

StartChar: E
Encoding: 69 69 17
GlifName: E_
Width: 1138
Flags: HMW
LayerCount: 2
Fore
SplineSet
15 674 m 0
 4 767 71 854 164 865 c 0
 288 880 403 886 525 886 c 0
 653 886 781 878 905 863 c 0
 998 852 1066 765 1055 672 c 0
 1044 579 957 512 864 523 c 0
 752 536 641 542 525 542 c 0
 411 542 314 538 206 525 c 0
 113 514 26 581 15 674 c 0
1130 1397 m 0
 1151 1305 1092 1213 1001 1192 c 0
 845 1156 664 1144 497 1144 c 0
 476 1144 453 1144 433 1145 c 1
 436 1090 439 1030 439 960 c 0
 439 739 424 481 396 283 c 0
 394 271 393 257 393 245 c 0
 393 199 433 216 793 216 c 0
 846 216 896 216 944 217 c 0
 1038 219 1117 143 1119 49 c 0
 1121 -45 1044 -123 950 -125 c 0
 898 -126 846 -126 793 -126 c 0
 565 -126 51 -205 51 245 c 0
 51 269 52 294 56 323 c 0
 81 499 95 757 95 960 c 0
 95 1100 90 1172 73 1303 c 0
 64 1375 128 1504 253 1496 c 0
 336 1491 417 1488 497 1488 c 0
 646 1488 813 1500 925 1526 c 0
 1017 1547 1109 1489 1130 1397 c 0
EndSplineSet
EndChar

StartChar: F
Encoding: 70 70 18
GlifName: F_
Width: 1132
Flags: HMW
LayerCount: 2
Fore
SplineSet
15 620 m 0
 4 713 71 800 164 811 c 0
 280 825 396 832 514 832 c 0
 640 832 765 824 889 809 c 0
 982 798 1049 711 1038 618 c 0
 1027 525 940 458 847 469 c 0
 735 482 624 490 514 490 c 0
 412 490 308 483 206 471 c 0
 113 460 26 527 15 620 c 0
1124 1376 m 0
 1145 1284 1086 1192 995 1171 c 0
 839 1135 658 1124 491 1124 c 0
 470 1124 449 1124 429 1124 c 1
 442 949 445 781 445 583 c 0
 445 371 434 168 413 -18 c 0
 402 -111 316 -182 223 -171 c 0
 130 -160 61 -75 72 18 c 0
 91 188 101 385 101 583 c 0
 101 851 96 1051 68 1283 c 0
 59 1354 123 1483 248 1475 c 0
 328 1470 410 1468 491 1468 c 0
 640 1468 807 1479 919 1505 c 0
 1011 1526 1103 1468 1124 1376 c 0
EndSplineSet
EndChar

StartChar: G
Encoding: 71 71 19
GlifName: G_
Width: 1389
Flags: HMW
LayerCount: 2
Fore
SplineSet
541 649 m 0
 541 743 619 820 713 820 c 2
 1209 820 l 2
 1304 820 1375 737 1380 661 c 0
 1383 619 1385 577 1385 537 c 0
 1385 186 1216 -156 741 -156 c 0
 343 -156 13 129 13 639 c 0
 13 1079 255 1518 788 1518 c 0
 923 1518 1056 1474 1164 1393 c 0
 1239 1337 1256 1229 1200 1154 c 0
 1144 1079 1035 1063 960 1119 c 0
 912 1154 849 1174 788 1174 c 0
 497 1174 357 977 357 639 c 0
 357 295 521 186 741 186 c 0
 979 186 1028 264 1041 478 c 1
 713 478 l 2
 619 478 541 555 541 649 c 0
EndSplineSet
EndChar

StartChar: H
Encoding: 72 72 20
GlifName: H_
Width: 1359
Flags: HMW
LayerCount: 2
Fore
SplineSet
1053.32128906 1487.796875 m 0
 1147.40332031 1488.51464844 1225.80664062 1412.73242188 1226.5234375 1318.64941406 c 2
 1238.82714844 -19.5947265625 l 2
 1239.54394531 -113.677734375 1163.76171875 -192.080078125 1069.67871094 -192.796875 c 0
 975.596679688 -193.514648438 897.193359375 -117.732421875 896.4765625 -23.6494140625 c 2
 884.172851562 1314.59472656 l 2
 883.456054688 1408.67773438 959.23828125 1487.08007812 1053.32128906 1487.796875 c 0
1315 646 m 0
 1311 552 1230 479 1136 483 c 0
 874 495 451 504 225 504 c 0
 131 504 54 582 54 676 c 0
 54 770 131 848 225 848 c 0
 459 848 884 837 1152 825 c 0
 1246 821 1319 740 1315 646 c 0
269.047851562 1487.64648438 m 0
 363.025390625 1489.92773438 442.666015625 1415.66210938 444.947265625 1321.68457031 c 0
 456.514648438 875.81640625 456.298828125 423.533203125 427.47265625 -11.7373046875 c 0
 420.724609375 -105.030273438 338.25390625 -178.953125 244.961914062 -172.205078125 c 0
 151.668945312 -165.45703125 77.74609375 -82.986328125 84.494140625 10.3056640625 c 0
 111.880859375 429.516601562 114.444335938 871.875976562 103.0859375 1311.74707031 c 0
 100.8046875 1405.72558594 175.0703125 1485.36523438 269.047851562 1487.64648438 c 0
EndSplineSet
EndChar

StartChar: I
Encoding: 73 73 21
GlifName: I_
Width: 475
Flags: MW
LayerCount: 2
Fore
SplineSet
221 -171 m 0
 127 -169 52 -90 54 4 c 2
 89 1365 l 2
 91 1459 170 1534 264 1532 c 0
 358 1530 433 1451 431 1357 c 2
 396 -4 l 2
 394 -98 315 -173 221 -171 c 0
EndSplineSet
EndChar

StartChar: J
Encoding: 74 74 22
GlifName: J_
Width: 720
Flags: HMW
LayerCount: 2
Fore
SplineSet
27 1317 m 0
 27 1411 104 1488 198 1488 c 2
 575 1488 l 2
 669 1488 747 1411 747 1317 c 0
 747 1223 669 1146 575 1146 c 2
 198 1146 l 2
 104 1146 27 1223 27 1317 c 0
412 1485 m 0
 505 1497 593 1431 605 1338 c 0
 651 990 671 672 671 300 c 0
 671 80 554 -156 258 -156 c 0
 230 -156 201 -155 171 -153 c 0
 78 -145 6 -62 14 32 c 0
 22 126 106 197 199 189 c 0
 218 187 238 186 258 186 c 0
 330 186 329 164 329 300 c 0
 329 660 309 958 265 1292 c 0
 253 1385 319 1473 412 1485 c 0
EndSplineSet
EndChar

StartChar: K
Encoding: 75 75 23
GlifName: K_
Width: 1222
Flags: HMW
LayerCount: 2
Fore
SplineSet
221 -171 m 0
 127 -169 52 -90 54 4 c 2
 89 1364 l 2
 91 1458 170 1533 264 1531 c 0
 358 1529 433 1450 431 1356 c 2
 396 -4 l 2
 394 -98 315 -173 221 -171 c 0
1133 1489 m 0
 1208 1433 1225 1324 1169 1249 c 0
 989 1007 727 798 494 650 c 1
 690 454 905 291 1135 144 c 0
 1213 93 1237 -15 1186 -93 c 0
 1135 -171 1027 -195 949 -144 c 0
 643 52 341 299 94 582 c 0
 38 646 43 782 143 839 c 0
 411 992 713 1211 893 1453 c 0
 949 1528 1058 1545 1133 1489 c 0
EndSplineSet
EndChar

StartChar: L
Encoding: 76 76 24
GlifName: L_
Width: 1156
Flags: HMW
LayerCount: 2
Fore
SplineSet
232 1487 m 0
 326 1493 408 1421 414 1327 c 0
 425 1156 431 991 431 830 c 0
 431 620 423 416 409 212 c 1
 985 193 l 2
 1079 191 1154 112 1152 18 c 0
 1150 -76 1071 -151 977 -149 c 2
 221 -126 l 2
 133 -124 46 -42 54 58 c 0
 74 320 87 572 87 830 c 0
 87 985 83 1142 72 1305 c 0
 66 1399 138 1481 232 1487 c 0
EndSplineSet
EndChar

StartChar: M
Encoding: 77 77 25
GlifName: M_
Width: 1639
Flags: HMW
LayerCount: 2
Fore
SplineSet
197 -171 m 0
 104 -161 34 -75 44 18 c 2
 181 1318 l 2
 191 1416 287 1487 384 1469 c 0
 453 1456 501 1394 517 1346 c 0
 586 1132 718 846 801 668 c 0
 805 659 808 654 813 654 c 0
 818 654 821 659 826 668 c 0
 912 843 1054 1189 1087 1350 c 0
 1107 1447 1207 1507 1302 1480 c 0
 1380 1458 1424 1376 1426 1322 c 0
 1444 817 1498 491 1601 51 c 0
 1623 -41 1565 -133 1473 -155 c 0
 1381 -177 1289 -119 1267 -27 c 0
 1219 177 1179 364 1148 550 c 1
 1130 522 1115 498 1100 472 c 0
 1049 384 973 258 812 258 c 0
 635 258 558 406 515 491 c 0
 496 528 475 568 450 609 c 1
 386 -18 l 2
 376 -111 290 -181 197 -171 c 0
EndSplineSet
EndChar

StartChar: N
Encoding: 78 78 26
GlifName: N_
Width: 1347
Flags: HMW
LayerCount: 2
Fore
SplineSet
216 -171 m 0
 122 -167 50 -85 54 9 c 0
 76 453 93 868 99 1318 c 0
 100 1417 187 1496 285 1487 c 0
 334 1483 383 1449 406 1419 c 0
 600 1164 784 896 953 626 c 1
 961 1363 l 2
 962 1457 1040 1533 1134 1532 c 0
 1228 1531 1304 1453 1303 1359 c 2
 1288 2 l 2
 1287 -50 1260 -107 1212 -139 c 0
 1130 -193 1015 -165 967 -79 c 0
 804 215 624 513 430 801 c 1
 422 534 409 265 396 -9 c 0
 392 -103 310 -175 216 -171 c 0
EndSplineSet
EndChar

StartChar: O
Encoding: 79 79 27
GlifName: O_
Width: 1525
Flags: MW
LayerCount: 2
Fore
SplineSet
738 186 m 0
 984 186 1179 376 1179 684 c 0
 1179 978 1016 1174 824 1174 c 0
 573 1174 357 929 357 613 c 0
 357 340 518 186 738 186 c 0
738 -156 m 0
 318 -156 13 178 13 613 c 0
 13 1069 333 1518 824 1518 c 0
 1284 1518 1521 1078 1521 684 c 0
 1521 216 1190 -156 738 -156 c 0
EndSplineSet
EndChar

StartChar: P
Encoding: 80 80 28
GlifName: P_
Width: 1309
Flags: HMW
LayerCount: 2
Fore
SplineSet
72 1038 m 0
 2 1100 -5 1209 57 1280 c 0
 200 1444 448 1518 661 1518 c 0
 1028 1518 1305 1220 1305 862 c 0
 1305 457 908 238 585 238 c 0
 498 238 354 241 239 287 c 0
 152 321 108 423 143 510 c 0
 178 597 278 641 365 607 c 0
 382 601 532 580 585 580 c 0
 794 580 963 725 963 862 c 0
 963 1042 832 1174 661 1174 c 0
 526 1174 356 1102 313 1054 c 0
 251 983 142 976 72 1038 c 0
384 1410 m 0
 478 1404 549 1321 543 1227 c 2
 454 -12 l 2
 448 -106 365 -177 271 -171 c 0
 177 -165 106 -82 112 12 c 2
 201 1251 l 2
 207 1345 290 1416 384 1410 c 0
EndSplineSet
EndChar

StartChar: Q
Encoding: 81 81 29
GlifName: Q_
Width: 1525
Flags: HMW
LayerCount: 2
Fore
SplineSet
808 548 m 0
 884 602 993 585 1047 509 c 0
 1176 331 1285 205 1446 64 c 0
 1517 2 1525 -107 1463 -178 c 0
 1401 -249 1291 -256 1220 -194 c 0
 1039 -35 906 119 769 309 c 0
 715 385 732 494 808 548 c 0
EndSplineSet
Refer: 27 79 N 1 0 0 1 0 0 2
EndChar

StartChar: R
Encoding: 82 82 30
GlifName: R_
Width: 1310
Flags: HMW
LayerCount: 2
Fore
SplineSet
53 1079 m 0
 -5 1152 3.77617865501 1265.22839185 80 1320 c 0
 247 1440 432 1518 647 1518 c 0
 1021 1518 1273 1210 1273 862 c 0
 1273 494 939 236 585 236 c 0
 463 236 327 288 217 348 c 0
 143 388 116 484 157 558 c 0
 198 632 292 658 366 618 c 0
 429 583 519 578 585 578 c 0
 789 578 931 724 931 862 c 0
 931 1052 811 1174 647 1174 c 0
 514 1174 375 1106 293 1053 c 0
 214.170819795 1002.04943231 111 1006 53 1079 c 0
158 560 m 0
 200 633 296 659 369 617 c 2
 1221 149 l 2
 1303 104 1331 -5 1284 -86 c 0
 1237 -167 1129 -197 1049 -149 c 2
 214 349 l 2
 141 391 116 487 158 560 c 0
388 1415 m 0
 482 1410 554 1328 549 1234 c 2
 478 -10 l 2
 473 -104 391 -176 297 -171 c 0
 203 -166 131 -84 136 10 c 2
 207 1254 l 2
 212 1348 294 1420 388 1415 c 0
EndSplineSet
EndChar

StartChar: S
Encoding: 83 83 31
GlifName: S_
Width: 1122
Flags: HMW
LayerCount: 2
Fore
SplineSet
1035 1176 m 0
 989.097046414 1094.17299578 884.173728814 1064.90254237 802 1111 c 0
 711.216494845 1162.5257732 673.333333333 1174 594 1174 c 0
 445.985955056 1174 361 1109.0751073 361 996 c 0
 361 933.255190419 421.146257745 892.668691291 607 830 c 0
 934.094546971 719.705814162 1119 543.828947706 1119 343 c 0
 1119 45.8886925795 890.004008016 -156 553 -156 c 0
 378.188596491 -156 224.875 -122.301757812 82 -42 c 0
 -0.4814453125 4.26953125 -30.7333984375 109.475585938 15 191 c 0
 61.216796875 273.38671875 167.383789062 303.78515625 249 258 c 0
 337.173828125 209.780273438 450.972222222 186 553 186 c 0
 687 186 775 235.945945946 775 312 c 0
 775 385.971530954 688.654427811 447.186675417 507 502 c 0
 182.023761056 600.059971792 19 765.088123353 19 996 c 0
 19 1301.59565217 257.376436782 1518 594 1518 c 0
 727.183486239 1518 823.727329096 1490.01255619 970 1409 c 0
 1051.82700422 1363.09704641 1081.09745763 1258.17372881 1035 1176 c 0
EndSplineSet
EndChar

StartChar: T
Encoding: 84 84 32
GlifName: T_
Width: 1463
Flags: MW
LayerCount: 2
Fore
SplineSet
738 -168 m 0
 644 -171 565 -96 562 -2 c 0
 556 182 551 366 551 551 c 0
 551 805 558 1054 570 1304 c 0
 574 1398 656 1470 750 1466 c 0
 844 1462 916 1380 912 1286 c 0
 900 1040 895 801 895 551 c 0
 895 370 898 190 904 8 c 0
 907 -86 832 -165 738 -168 c 0
14 1319 m 0
 15 1413 94 1488 188 1487 c 2
 1291 1468 l 2
 1385 1467 1460 1388 1459 1294 c 0
 1458 1200 1379 1125 1285 1126 c 2
 182 1145 l 2
 88 1146 13 1225 14 1319 c 0
EndSplineSet
EndChar

StartChar: U
Encoding: 85 85 33
GlifName: U_
Width: 1350
Flags: HMW
LayerCount: 2
Fore
SplineSet
335 1502 m 0
 427.273809524 1481.94047619 486.940828402 1389.72781065 467 1298 c 0
 415.994758299 1064.12230635 397 886.114285714 397 642 c 0
 397 333.762548263 480.926535088 186 656 186 c 0
 867.212765957 186 963 435.296416938 963 985 c 0
 963 1088.64285714 959.362688297 1279.86152955 956 1353 c 0
 951.983040279 1447.39855344 1025.39520218 1528.01681711 1119 1532 c 0
 1212.44319741 1535.97630627 1291.96403332 1463.56347804 1298 1369 c 0
 1302.36015831 1293.13324538 1307 1095.16666667 1307 985 c 0
 1307 240.134408602 1128 -156 656 -156 c 0
 254 -156 53 164.599502488 53 678 c 0
 53 914.743589744 75.5194242594 1114.5313024 131 1370 c 0
 150.977678571 1461.89732143 243.898210291 1522.02237136 335 1502 c 0
EndSplineSet
EndChar

StartChar: V
Encoding: 86 86 34
GlifName: V_
Width: 1408
Flags: MW
LayerCount: 2
Fore
SplineSet
128 1478 m 0
 216 1508 317 1461 347 1373 c 2
 650 496 l 1
 1078 1390 l 2
 1118 1474 1223 1511 1307 1471 c 0
 1391 1431 1428 1326 1388 1242 c 2
 780 -29 l 2
 766 -59 732 -96 694 -112 c 0
 604 -151 496 -106 463 -12 c 2
 23 1259 l 2
 -8 1347 40 1448 128 1478 c 0
EndSplineSet
EndChar

StartChar: W
Encoding: 87 87 35
GlifName: W_
Width: 1986
Flags: HMW
LayerCount: 2
Fore
SplineSet
136 1513 m 0
 225 1540 322 1487 349 1398 c 2
 545 550 l 1
 837 1245 l 2
 875 1335 986 1377 1073 1331 c 0
 1113 1310 1144 1271 1157 1234 c 2
 1380 579 l 1
 1649 1372 l 2
 1679 1460 1779 1508 1867 1478 c 0
 1955 1448 2003 1348 1973 1260 c 2
 1542 -10 l 2
 1528 -52 1492 -93 1447 -113 c 0
 1357 -152 1250 -104 1218 -10 c 2
 978 696 l 1
 676 -21 l 2
 661 -57 624 -98 580 -115 c 0
 488 -151 382 -99 354 -4 c 2
 21 1300 l 2
 -6 1389 47 1486 136 1513 c 0
EndSplineSet
EndChar

StartChar: X
Encoding: 88 88 36
GlifName: X_
Width: 1307
Flags: MW
LayerCount: 2
Fore
SplineSet
88 -142 m 0
 11 -90 -9 20 43 97 c 2
 953 1435 l 2
 1005 1512 1115 1532 1192 1480 c 0
 1269 1428 1289 1318 1237 1241 c 2
 327 -97 l 2
 275 -174 165 -194 88 -142 c 0
129 1418 m 0
 205 1471 315 1452 369 1376 c 2
 1273 95 l 2
 1326 19 1307 -90 1231 -144 c 0
 1155 -198 1044 -179 991 -103 c 2
 87 1178 l 2
 32 1254 53 1365 129 1418 c 0
EndSplineSet
EndChar

StartChar: Y
Encoding: 89 89 37
GlifName: Y_
Width: 1307
Flags: HMW
LayerCount: 2
Fore
SplineSet
86 1456 m 0
 162 1510 270 1492 324 1416 c 2
 647 932 l 1
 990 1405 l 2
 1042 1482 1152 1502 1229 1450 c 0
 1306 1398 1326 1288 1274 1211 c 2
 792 536 l 2
 784 525 772 511 760 501 c 0
 685 438 568 453 511 534 c 2
 46 1218 l 2
 -8 1294 10 1402 86 1456 c 0
664 -171 m 0
 570 -172 491 -97 490 -3 c 2
 479 630 l 2
 478 724 553 803 647 804 c 0
 741 805 820 730 821 636 c 2
 832 3 l 2
 833 -91 758 -170 664 -171 c 0
EndSplineSet
EndChar

StartChar: Z
Encoding: 90 90 38
GlifName: Z_
Width: 1412
Flags: HMW
LayerCount: 2
Fore
SplineSet
18 1229 m 0
 -5 1319 54 1414 144 1437 c 0
 468 1517 876 1530 1174 1464 c 0
 1320 1431 1368 1270 1271 1173 c 0
 986 887 760 567 545 251 c 1
 779 268 986 276 1237 276 c 0
 1331 276 1409 198 1409 104 c 0
 1409 10 1331 -68 1237 -68 c 0
 870 -68 585 -86 249 -124 c 0
 100 -140 16 26 84 136 c 0
 291 476 515 831 811 1164 c 1
 599 1166 386 1143 226 1103 c 0
 136 1080 41 1139 18 1229 c 0
EndSplineSet
EndChar

StartChar: period
Encoding: 46 46 47
GlifName: period
Width: 490
Flags: HMW
LayerCount: 2
Fore
SplineSet
43 87 m 0
 43 189 138 292 251 292 c 0
 394 292 447 166 447 94 c 0
 447 13 378 -118 246 -118 c 0
 88 -118 43 15 43 87 c 0
EndSplineSet
EndChar

StartChar: comma
Encoding: 44 44 49
GlifName: comma
Width: 488
Flags: MW
LayerCount: 2
Fore
SplineSet
36 -355 m 0
 -45 -308 -73 -202 -26 -121 c 2
 204 275 l 2
 251 356 357 384 438 337 c 0
 519 290 547 184 500 103 c 2
 270 -293 l 2
 223 -374 117 -402 36 -355 c 0
EndSplineSet
EndChar

StartChar: bracketleft
Encoding: 91 91 51
GlifName: bracketleft
Width: 725
Flags: HMW
LayerCount: 2
Fore
SplineSet
696 1335 m 0
 704 1241 633 1158 539 1150 c 0
 514 1148 491 1147 467 1146 c 0
 445 1145 422 1145 401 1145 c 1
 404 1087 406 1029 406 972 c 0
 406 822 400 678 391 539 c 0
 383 408 382 390 382 266 c 0
 382 228 417 221 528 216 c 0
 622 212 695 131 691 37 c 0
 687 -57 606 -130 512 -126 c 0
 283 -115 38 -25 38 266 c 0
 38 388 39 428 47 559 c 0
 55 696 62 836 62 972 c 0
 62 1083 57 1191 44 1300 c 0
 35 1375 103 1502 227 1492 c 0
 274 1488 320 1488 371 1488 c 0
 422 1488 467 1489 511 1492 c 0
 605 1500 688 1429 696 1335 c 0
EndSplineSet
EndChar

StartChar: bracketright
Encoding: 93 93 52
GlifName: bracketright
Width: 736
Flags: HMW
LayerCount: 2
Fore
SplineSet
40 1370 m 0
 54 1463 144 1527 237 1513 c 0
 324 1499 425 1489 523 1487 c 0
 635 1485 709 1373 688 1279 c 0
 654 1126 654 1064 654 875 c 0
 654 791 664 701 679 605 c 0
 694 503 708 395 708 285 c 0
 708 -51 412 -126 217 -126 c 0
 123 -126 46 -49 46 45 c 0
 46 139 123 216 217 216 c 0
 373 216 364 223 364 285 c 0
 364 367 354 457 339 553 c 0
 324 655 310 763 310 875 c 0
 310 986 311 1068 319 1156 c 1
 274 1161 226 1167 183 1173 c 0
 90 1187 26 1277 40 1370 c 0
EndSplineSet
PairPos2: "kernHorizontalKerninginArabiclookup0 subtable" uni063A dx=-150 dy=0 dh=-150 dv=0 dx=0 dy=0 dh=0 dv=0
PairPos2: "kernHorizontalKerninginArabiclookup0 subtable" uni0639 dx=-150 dy=0 dh=-150 dv=0 dx=0 dy=0 dh=0 dv=0
PairPos2: "kernHorizontalKerninginArabiclookup0 subtable" uni0622 dx=200 dy=0 dh=200 dv=0 dx=0 dy=0 dh=0 dv=0
EndChar

StartChar: braceleft
Encoding: 123 123 53
GlifName: braceleft
Width: 705
Flags: HMW
LayerCount: 2
Fore
SplineSet
-62 752 m 0
 -62 846 16 924 110 924 c 0
 218 924 3 1582 505 1582 c 0
 599 1582 677 1505 677 1411 c 0
 677 1317 599 1240 505 1240 c 0
 364 1240 643 580 110 580 c 0
 16 580 -62 658 -62 752 c 0
676 93 m 0
 676 -1 599 -78 505 -78 c 0
 2 -78 204 580 110 580 c 0
 16 580 -61 658 -61 752 c 0
 -61 846 16 924 110 924 c 0
 639 924 338 264 505 264 c 0
 599 264 676 187 676 93 c 0
EndSplineSet
EndChar

StartChar: braceright
Encoding: 125 125 54
GlifName: braceright
Width: 705
Flags: HMW
LayerCount: 2
Fore
SplineSet
39 1411 m 0
 39 1505 116 1582 210 1582 c 0
 713 1582 511 924 605 924 c 0
 699 924 776 846 776 752 c 0
 776 658 699 580 605 580 c 0
 76 580 377 1240 210 1240 c 0
 116 1240 39 1317 39 1411 c 0
777 752 m 0
 777 658 699 580 605 580 c 0
 497 580 712 -78 210 -78 c 0
 116 -78 38 -1 38 93 c 0
 38 187 116 264 210 264 c 0
 351 264 72 924 605 924 c 0
 699 924 777 846 777 752 c 0
EndSplineSet
PairPos2: "kernHorizontalKerninginArabiclookup0 subtable" uni063A dx=-150 dy=0 dh=-150 dv=0 dx=0 dy=0 dh=0 dv=0
PairPos2: "kernHorizontalKerninginArabiclookup0 subtable" uni0639 dx=-150 dy=0 dh=-150 dv=0 dx=0 dy=0 dh=0 dv=0
PairPos2: "kernHorizontalKerninginArabiclookup0 subtable" uni0622 dx=200 dy=0 dh=200 dv=0 dx=0 dy=0 dh=0 dv=0
EndChar

StartChar: grave
Encoding: 96 96 55
GlifName: grave
Width: 549
Flags: HMW
LayerCount: 2
Fore
SplineSet
136 1552 m 0
 173 1581 231 1575 260 1537 c 0
 329 1449 402 1314 451 1206 c 0
 470 1163 448 1106 406 1087 c 0
 363 1068 307 1089 288 1132 c 0
 243 1230 170 1363 120 1427 c 0
 91 1465 98 1522 136 1552 c 0
EndSplineSet
EndChar

StartChar: bar
Encoding: 124 124 56
GlifName: bar
Width: 427
Flags: HMW
LayerCount: 2
Fore
SplineSet
227 1630 m 0
 321 1630 398 1553 398 1459 c 0
 398 1038 389 365 382 -3 c 0
 380 -97 301 -173 207 -171 c 0
 113 -169 37 -91 39 3 c 0
 46 369 56 1042 56 1459 c 0
 56 1553 133 1630 227 1630 c 0
EndSplineSet
EndChar

StartChar: asciicircum
Encoding: 94 94 57
GlifName: asciicircum
Width: 728
Flags: HMW
LayerCount: 2
Fore
SplineSet
142 1094 m 0
 102 1119 89 1175 114 1216 c 2
 280 1486 l 2
 306 1529 396 1530 425 1493 c 2
 617 1252 l 2
 646 1215 641 1157 603 1127 c 0
 566 1098 508 1104 479 1142 c 2
 364 1284 l 1
 266 1122 l 2
 241 1082 183 1069 142 1094 c 0
EndSplineSet
EndChar

StartChar: hyphen
Encoding: 45 45 58
GlifName: hyphen
Width: 1094
Flags: HMW
LayerCount: 2
Fore
SplineSet
20 420 m 0
 9 513 76 600 169 611 c 0
 334 631 491 638 648 638 c 0
 735 638 823 636 911 632 c 0
 1005 628 1078 547 1074 453 c 0
 1070 359 989 286 895 290 c 0
 811 294 729 296 648 296 c 0
 501 296 360 289 211 271 c 0
 118 260 31 327 20 420 c 0
EndSplineSet
EndChar

StartChar: plus
Encoding: 43 43 59
GlifName: plus
Width: 1094
Flags: HMW
LayerCount: 2
Fore
SplineSet
512 982 m 0
 605 993 693 925 704 832 c 0
 724 667 730 511 730 354 c 0
 730 267 728 178 724 90 c 0
 720 -4 640 -76 546 -72 c 0
 452 -68 378 12 382 106 c 0
 386 190 388 273 388 354 c 0
 388 501 382 641 364 790 c 0
 353 883 419 971 512 982 c 0
20 420 m 0
 9 513 76 600 169 611 c 0
 334 631 491 638 648 638 c 0
 735 638 823 636 911 632 c 0
 1005 628 1078 547 1074 453 c 0
 1070 359 989 286 895 290 c 0
 811 294 729 296 648 296 c 0
 501 296 360 289 211 271 c 0
 118 260 31 327 20 420 c 0
EndSplineSet
EndChar

StartChar: exclam
Encoding: 33 33 60
GlifName: exclam
Width: 593
Flags: HMW
LayerCount: 2
Fore
SplineSet
237 1531 m 0
 330 1544 417 1477 430 1384 c 0
 467 1109 477 949 477 657 c 0
 477 618 477 575 476 531 c 0
 474 437 398 366 304 366 c 0
 209 366 131 443 133 537 c 0
 134 577 134 618 134 657 c 0
 134 943 125 1085 90 1338 c 0
 77 1431 144 1518 237 1531 c 0
514 85 m 0
 514 7 443 -126 308 -126 c 0
 233 -126 88 -75 88 84 c 0
 88 202 185 300 304 300 c 0
 436 300 514 179 514 85 c 0
EndSplineSet
EndChar

StartChar: quotesingle
Encoding: 39 39 62
GlifName: quotesingle
Width: 341
Flags: HMW
LayerCount: 2
Fore
SplineSet
162 830 m 0
 118 834 86 874 90 918 c 0
 97 980 101 1052 101 1126 c 0
 101 1202 97 1282 90 1354 c 0
 86 1398 120 1437 164 1441 c 0
 208 1445 246 1412 250 1368 c 0
 257 1292 261 1208 261 1126 c 0
 261 1046 257 968 250 902 c 0
 246 858 206 826 162 830 c 0
EndSplineSet
EndChar

StartChar: parenleft
Encoding: 40 40 63
GlifName: parenleft
Width: 616
Flags: HMW
LayerCount: 2
Fore
SplineSet
445 1567 m 0
 529 1526 566 1421 525 1337 c 0
 407 1094 382 954 382 682 c 0
 382 432 443 292 571 29 c 0
 612 -55 575 -160 491 -201 c 0
 407 -242 303 -205 262 -121 c 0
 134 142 38 362 38 682 c 0
 38 980 77 1204 215 1487 c 0
 256 1571 361 1608 445 1567 c 0
EndSplineSet
EndChar

StartChar: parenright
Encoding: 41 41 64
GlifName: parenright
Width: 616
Flags: HMW
LayerCount: 2
Fore
SplineSet
181 -201 m 0
 97 -160 60 -55 101 29 c 0
 219 272 244 412 244 684 c 0
 244 934 183 1074 55 1337 c 0
 14 1421 51 1526 135 1567 c 0
 219 1608 324 1571 365 1487 c 0
 493 1224 588 1004 588 684 c 0
 588 386 549 162 411 -121 c 0
 370 -205 265 -242 181 -201 c 0
EndSplineSet
PairPos2: "kernHorizontalKerninginArabiclookup0 subtable" uni063A dx=-150 dy=0 dh=-150 dv=0 dx=0 dy=0 dh=0 dv=0
PairPos2: "kernHorizontalKerninginArabiclookup0 subtable" uni0639 dx=-150 dy=0 dh=-150 dv=0 dx=0 dy=0 dh=0 dv=0
PairPos2: "kernHorizontalKerninginArabiclookup0 subtable" uni0622 dx=200 dy=0 dh=200 dv=0 dx=0 dy=0 dh=0 dv=0
EndChar

StartChar: less
Encoding: 60 60 65
GlifName: less
Width: 655
Flags: HMW
LayerCount: 2
Fore
SplineSet
556 213 m 0
 503 181 427 199 395 252 c 0
 327 363 246 461 153 541 c 0
 102 585 111 682 155 719 c 0
 247 795 328 887 393 1002 c 0
 424 1056 498 1078 552 1047 c 0
 607 1016 628 942 597 888 c 0
 540 788 473 708 401 627 c 1
 472 548 538 468 595 374 c 0
 627 321 609 245 556 213 c 0
EndSplineSet
EndChar

StartChar: backslash
Encoding: 92 92 66
GlifName: backslash
Width: 975
Flags: HMW
LayerCount: 2
Fore
SplineSet
874.561523438 -147 m 0
 794.561523438 -195 675.561523438 -175 639.561523438 -88 c 2
 53.5615234375 1326 l 2
 17.5615234375 1413 94.5615234375 1509 186.561523438 1529 c 0
 278.561523438 1549 353.561523438 1483 389.561523438 1396 c 2
 933.561523438 88 l 2
 969.561523438 1 954.561523438 -99 874.561523438 -147 c 0
EndSplineSet
EndChar

StartChar: asterisk
Encoding: 42 42 67
GlifName: asterisk
Width: 1118
Flags: HMW
LayerCount: 2
Fore
SplineSet
1022 579 m 0
 971 519 880 509 820 560 c 0
 712 650 601 726 486 792 c 0
 366 862 242 919 114 967 c 0
 41 994 4 1079 31 1152 c 0
 58 1225 141 1264 214 1237 c 0
 356 1184 496 1120 630 1043 c 0
 758 969 885 884 1005 781 c 0
 1065 730 1072 638 1022 579 c 0
104 579 m 0
 54 638 61 730 121 781 c 0
 241 884 368 969 496 1043 c 0
 630 1120 769 1184 911 1237 c 0
 984 1264 1068 1225 1095 1152 c 0
 1122 1079 1084 994 1011 967 c 0
 883 919 760 862 640 792 c 0
 526 726 414 650 306 560 c 0
 246 509 155 519 104 579 c 0
531.329101562 1487.86328125 m 0
 608.259765625 1495.18554688 679.3515625 1435.76367188 686.586914062 1357.83691406 c 0
 700.884765625 1199.99023438 708 1063 708 915 c 0
 708 760 698.201171875 622.76171875 686.45703125 470.157226562 c 0
 680.216796875 392.317382812 610.122070312 332.982421875 532.28125 339.22265625 c 0
 454.44140625 345.461914062 395.106445312 415.556640625 401.346679688 493.397460938 c 0
 412.4921875 629.887695312 420 777 420 915 c 0
 420 1047 413.18359375 1193.03808594 401.302734375 1332.60449219 c 0
 394.06640625 1410.53222656 453.40234375 1480.62695312 531.329101562 1487.86328125 c 0
EndSplineSet
EndChar

StartChar: numbersign
Encoding: 35 35 68
GlifName: numbersign
Width: 1744
Flags: HMW
LayerCount: 2
Fore
SplineSet
-2 421 m 0
 -2 515 76 591 170 591 c 2
 1521 592 l 2
 1615 592 1692 514 1692 420 c 0
 1692 326 1614 250 1520 250 c 2
 169 249 l 2
 75 249 -2 327 -2 421 c 0
91 998 m 0
 91 1092 168 1168 262 1168 c 2
 1585 1157 l 2
 1679 1157 1755 1079 1755 985 c 0
 1755 891 1678 815 1584 815 c 2
 261 826 l 2
 167 826 91 904 91 998 c 0
1030 -169 m 0
 938 -152 877 -59 894 33 c 2
 1154 1394 l 2
 1171 1486 1264 1547 1356 1530 c 0
 1448 1513 1509 1420 1492 1328 c 2
 1232 -33 l 2
 1215 -125 1122 -186 1030 -169 c 0
381 -173 m 0
 291 -149 234 -54 258 36 c 2
 613 1412 l 2
 637 1502 732 1558 822 1534 c 0
 912 1510 969 1415 945 1325 c 2
 590 -51 l 2
 566 -141 471 -197 381 -173 c 0
EndSplineSet
EndChar

StartChar: percent
Encoding: 37 37 69
GlifName: percent
Width: 1480
Flags: HMW
LayerCount: 2
Fore
SplineSet
1098 97 m 0
 1156 97 1198 147 1198 173 c 0
 1198 206 1168 243 1110 243 c 0
 1057 243 1047 229 1047 183 c 0
 1047 119 1087 97 1098 97 c 0
1098 -145 m 0
 913 -145 801 23 801 183 c 0
 801 361 939 485 1110 485 c 0
 1276 485 1440 364 1440 173 c 0
 1440 -25 1260 -145 1098 -145 c 0
282 1188 m 0
 282 1131 331 1089 358 1089 c 0
 392 1089 425 1117 425 1175 c 0
 425 1229 413 1238 368 1238 c 0
 303 1238 282 1198 282 1188 c 0
40 1188 m 0
 40 1374 209 1484 368 1484 c 0
 547 1484 671 1345 671 1175 c 0
 671 1009 548 847 358 847 c 0
 161 847 40 1025 40 1188 c 0
1243.72851562 1429.109375 m 0
 1314.17871094 1367.94628906 1311.5859375 1266.86035156 1261.02539062 1187.43359375 c 2
 498.158203125 -6.23046875 l 2
 447.59765625 -85.6572265625 362.276367188 -137.630859375 275.146484375 -101.958984375 c 0
 188.017578125 -66.287109375 128.857421875 41.625 179.41796875 121.052734375 c 2
 1002.05371094 1411.8125 l 2
 1052.61425781 1491.23925781 1173.27929688 1490.27148438 1243.72851562 1429.109375 c 0
EndSplineSet
EndChar

StartChar: slash
Encoding: 47 47 70
GlifName: slash
Width: 975
Flags: HMW
LayerCount: 2
Fore
SplineSet
122 -147 m 0
 42 -99 27 1 63 88 c 2
 607 1396 l 2
 643 1483 718 1549 810 1529 c 0
 902 1509 979 1413 943 1326 c 2
 357 -88 l 2
 321 -175 202 -195 122 -147 c 0
EndSplineSet
EndChar

StartChar: greater
Encoding: 62 62 71
GlifName: greater
Width: 655
Flags: HMW
LayerCount: 2
Fore
SplineSet
109 1046 m 0
 162 1078 238 1060 270 1007 c 0
 338 896 419 798 512 718 c 0
 563 674 554 577 510 540 c 0
 418 464 336 373 271 257 c 0
 241 202 168 181 113 212 c 0
 58 243 38 316 69 371 c 0
 125 470 191 551 264 632 c 1
 193 711 127 791 70 885 c 0
 38 938 56 1014 109 1046 c 0
EndSplineSet
EndChar

StartChar: equal
Encoding: 61 61 72
GlifName: equal
Width: 1047
Flags: HMW
LayerCount: 2
Fore
SplineSet
54 836 m 0
 59 898 117 946 181 941 c 0
 288 932 477 927 567 927 c 0
 674 927 787 933 877 941 c 0
 939 946 998 898 1003 835 c 0
 1008 771 960 714 898 709 c 0
 802 701 682 695 567 695 c 0
 472 695 282 698 159 709 c 0
 97 714 49 773 54 836 c 0
55 443 m 0
 68 506 131 548 192 536 c 0
 225 529 406 523 508 523 c 0
 611 523 751 527 878 537 c 0
 941 542 998 494 1003 430 c 0
 1008 367 960 310 896 305 c 0
 763 295 618 289 508 289 c 0
 395 289 231 290 148 306 c 0
 86 319 43 382 55 443 c 0
EndSplineSet
EndChar

StartChar: AE
Encoding: 198 198 75
GlifName: A_E_
Width: 1918
Flags: HMW
LayerCount: 2
Fore
SplineSet
1032 1487 m 0
 1126 1489 1204 1413 1206 1319 c 0
 1207 1262 1208 1192 1208 1119 c 0
 1208 824 1207 471 1167 234 c 0
 1162 201 1161 191 1161 183 c 0
 1161 178 1219 173 1266 171 c 0
 1392 163 1488 158 1612 158 c 0
 1654 158 1692 158 1732 159 c 0
 1826 161 1906 86 1908 -8 c 0
 1910 -102 1834 -181 1740 -183 c 0
 1696 -184 1654 -184 1612 -184 c 0
 1480 -184 1374 -179 1246 -171 c 0
 1090 -162 816 -91 816 173 c 0
 816 202 819 223 824 249 c 0
 860 457 866 831 866 1119 c 0
 866 1190 865 1256 864 1313 c 0
 862 1407 938 1485 1032 1487 c 0
1925 1413 m 0
 1947 1321 1889 1229 1797 1207 c 0
 1616 1165 1428 1146 1234 1146 c 0
 1181 1146 920 1147 711 1150 c 1
 318 -53 l 2
 291.623444954 -142.889506291 197 -184 102.754882812 -147.073242188 c 0
 17.0749798976 -113.502195126 5.14309808585 -28.0343571474 27 63 c 2
 370 1325 l 2
 395.395099553 1418.43619719 451 1501 551 1496 c 0
 611.997526625 1492.95012367 1167 1488 1234 1488 c 0
 1406 1488 1568 1505 1719 1541 c 0
 1811 1563 1903 1505 1925 1413 c 0
227 648 m 0
 219 742 290 825 384 833 c 0
 557 847 928 852 1129 852 c 0
 1332 852 1532 847 1687 834 c 0
 1781 826 1852 743 1844 649 c 0
 1836 555 1753 484 1659 492 c 0
 1520 503 1326 510 1129 510 c 0
 936 510 559 503 412 491 c 0
 318 483 235 554 227 648 c 0
EndSplineSet
EndChar

StartChar: cedilla
Encoding: 184 184 77
GlifName: cedilla
Width: 727
Flags: HMW
LayerCount: 2
Fore
SplineSet
204 108 m 0
 263 181 372 192 445 133 c 0
 550 48 738 -132 738 -361 c 0
 738 -597 516 -672 329 -672 c 0
 251 -672 180 -662 123 -646 c 0
 33 -621 -19 -524 6 -434 c 0
 31 -344 127.928028421 -287.872008975 217 -316 c 0
 236 -322 285 -330 318 -330 c 0
 348 -330 389 -325 389 -301 c 0
 389 -269 277.100614611 -171.875839206 229 -133 c 0
 156 -74 145 35 204 108 c 0
EndSplineSet
EndChar

StartChar: Oslash
Encoding: 216 216 78
GlifName: O_slash
Width: 1494
Flags: HMW
LayerCount: 2
Fore
SplineSet
66 -129 m 0
 25 -102 15 -45 41 -6 c 0
 396 527 886 1035 1329 1437 c 0
 1365 1469 1423 1467 1455 1431 c 0
 1487 1395 1485 1337 1449 1305 c 0
 1012 909 534 413 189 -104 c 0
 162 -144 104 -155 66 -129 c 0
EndSplineSet
Refer: 27 79 N 1 0 0 1 0 0 2
EndChar

StartChar: uniE000
Encoding: 57344 57344 223
GlifName: uniE_000
Width: 509
Flags: HMW
LayerCount: 2
Fore
SplineSet
43 131 m 0
 43 215 112 293 206 293 c 0
 275 293 323 260 350 217 c 0
 367 190 376 159 376 131 c 0
 376 66 341 -35 209 -35 c 0
 118 -35 75 9 56 59 c 0
 47 83 43 109 43 131 c 0
EndSplineSet
EndChar

StartChar: uniE001
Encoding: 57345 57345 224
GlifName: uniE_001
Width: 660
Flags: HMW
LayerCount: 2
Fore
SplineSet
18 53 m 0
 -2 123 39 197 112 221 c 0
 188 243 293 256 390 256 c 1
 467 256 531 192 531 115 c 0
 531 38 467 -26 390 -26 c 1
 300 -26 229.251150939 -30.6933539741 187 -42 c 0
 116 -61 39 -18 18 53 c 0
249 115 m 0
 249 192 313 256 390 256 c 1
 494 256 578 240 636 216 c 0
 709 174 731 81 685 15 c 0
 647 -38 591.690429688 -52.62890625 535 -41 c 0
 496 -33 436 -26 390 -26 c 1
 313 -26 249 38 249 115 c 0
EndSplineSet
EndChar

StartChar: uniE002
Encoding: 57346 57346 225
GlifName: uniE_002
Width: 696
Flags: HMW
LayerCount: 2
Fore
SplineSet
-7 301 m 0
 -49 358 -36 440 21 481 c 0
 107 544 259 585 398 585 c 1
 465 585 520 530 520 463 c 0
 520 396 465 342 398 342 c 1
 360 342 252 304 172 272 c 0
 94 241 32 250 -7 301 c 0
198 91 m 0
 179 154 211 212 286 250 c 0
 401 308 423 321 423 333 c 1
 423 400 478 455 545 455 c 0
 612 455 666 400 666 333 c 1
 666 216 529 52 358 3 c 0
 292 -16 218 24 198 91 c 0
277 463 m 0
 277 530 331 585 398 585 c 1
 552 585 666 489 666 333 c 1
 666 266 612 211 545 211 c 0
 478 211 423 266 423 333 c 1
 423 340 416 342 398 342 c 1
 331 342 277 396 277 463 c 0
EndSplineSet
EndChar

StartChar: uniE003
Encoding: 57347 57347 226
GlifName: uniE_003
Width: 696
Flags: HMW
LayerCount: 2
Fore
SplineSet
-21.974609375 230.875 m 1
 -21.974609375 298.325195312 32.1748046875 352.474609375 99.625 352.474609375 c 0
 167.075195312 352.474609375 222.174804688 298.325195312 222.174804688 230.875 c 1
 222.174804688 191.924804688 236.06640625 168.935546875 292.474609375 110.224609375 c 0
 339.025390625 61.775390625 320.025390625 -14.224609375 273.474609375 -55.0751953125 c 0
 221.224609375 -101.625 145.224609375 -81.6748046875 96.775390625 -34.1748046875 c 0
 32.1748046875 26.625 -21.974609375 92.1748046875 -21.974609375 230.875 c 1
-21.974609375 230.875 m 1
 -21.974609375 648.875 624.974609375 644.125 624.974609375 238.474609375 c 1
 624.974609375 171.025390625 569.875 116.875 502.424804688 116.875 c 0
 434.974609375 116.875 380.825195312 171.025390625 380.825195312 238.474609375 c 1
 380.825195312 321.125 222.174804688 320.174804688 222.174804688 230.875 c 1
 222.174804688 163.424804688 167.075195312 109.275390625 99.625 109.275390625 c 0
 32.1748046875 109.275390625 -21.974609375 163.424804688 -21.974609375 230.875 c 1
370.375 190.974609375 m 0
 376.075195312 206.174804688 380.825195312 222.325195312 380.825195312 238.474609375 c 1
 380.825195312 305.924804688 434.974609375 360.075195312 502.424804688 360.075195312 c 0
 569.875 360.075195312 624.974609375 305.924804688 624.974609375 238.474609375 c 1
 624.974609375 190.974609375 618.055664062 140.749023438 599.325195312 99.775390625 c 0
 568.924804688 33.275390625 496.724609375 -17.0751953125 418.825195312 28.525390625 c 0
 359.924804688 63.6748046875 345.674804688 124.474609375 370.375 190.974609375 c 0
EndSplineSet
EndChar

StartChar: uniE007
Encoding: 57351 57351 251
GlifName: uniE_007
Width: 1067
Flags: HMW
LayerCount: 2
Fore
SplineSet
45.11328125 1429.24707031 m 0
 23.74609375 1501.38867188 62.279296875 1577.25878906 133.671875 1600.73339844 c 2
 733.58203125 1793.05566406 l 2
 804.852539062 1815.53808594 881.471679688 1774.89746094 902.838867188 1702.75585938 c 0
 924.206054688 1630.61425781 885.672851562 1554.74414062 814.401367188 1532.26269531 c 2
 214.4921875 1339.93945312 l 2
 143.098632812 1316.46484375 66.48046875 1357.10546875 45.11328125 1429.24707031 c 0
EndSplineSet
EndChar

StartChar: uni0660
Encoding: 1632 1632 274
GlifName: uni0660
Width: 737
Flags: HMW
LayerCount: 2
Fore
SplineSet
281 395 m 0
 281 351 327 301 380 301 c 0
 406 301 454 338 454 404 c 0
 454 455 427 476 392 476 c 0
 319 476 281 428 281 395 c 0
39 395 m 0
 39 590 213 722 392 722 c 0
 573 722 700 573 700 404 c 0
 700 232 574 59 380 59 c 0
 193 59 39 211 39 395 c 0
EndSplineSet
Substitution2: "Single Substitution lookup 178 subtable" uni0660.EoA
EndChar

StartChar: uni0661
Encoding: 1633 1633 275
GlifName: uni0661
Width: 600
Flags: HMW
LayerCount: 2
Fore
SplineSet
134 1333 m 0
 222 1363 322 1314 352 1226 c 0
 498 801 582 502 582 0 c 0
 582 -94 504 -171 410 -171 c 0
 316 -171 239 -94 239 0 c 0
 239 466 172 695 28 1116 c 0
 -3 1204 46 1303 134 1333 c 0
EndSplineSet
Substitution2: "Single Substitution lookup 178 subtable" uni0661.EoA
EndChar

StartChar: uni0662
Encoding: 1634 1634 276
GlifName: uni0662
Width: 1054
Flags: HMW
LayerCount: 2
Fore
SplineSet
562 559 m 0
 320.077148438 559 169.642578125 713.392578125 30 1105 c 0
 -3 1192 43 1292 130 1325 c 0
 217 1358 321 1313 351 1225 c 0
 443 954 478 901 566 901 c 0
 654 901 692 991 692 1196 c 0
 692 1290 770 1368 864 1368 c 0
 958 1368 1036 1290 1036 1196 c 0
 1037 912 929 559 562 559 c 0
410 -171 m 0
 316 -171 239 -94 239 0 c 0
 239 466 172 688 28 1109 c 0
 -3 1197 46 1296 134 1326 c 0
 222 1356 322 1307 352 1219 c 0
 498 794 582 502 582 0 c 0
 582 -94 504 -171 410 -171 c 0
EndSplineSet
Substitution2: "Single Substitution lookup 178 subtable" uni0662.EoA
EndChar

StartChar: uni0663
Encoding: 1635 1635 277
GlifName: uni0663
Width: 1375
Flags: HMW
LayerCount: 2
Fore
SplineSet
967 610 m 0
 649 610 567 973 567 1175 c 0
 567 1264 620 1338 704 1338 c 0
 788 1338 861 1264 861 1175 c 0
 861 986 894 954 942 954 c 0
 975 954 1011 978 1011 1041 c 0
 1011 1089 1010 1114 1004 1182 c 0
 995.708007812 1275.97460938 1068 1359 1161 1367 c 0
 1254 1375 1334.42285156 1303.85253906 1344 1210 c 0
 1349 1161 1350 1150 1350 1111 c 0
 1350 814 1230 610 967 610 c 0
503 610 m 0
 218 610 130 807 28 1103 c 0
 -2 1191 45 1292 133 1322 c 0
 221 1352 320.911132812 1304.96875 352 1217 c 0
 440 968 464 954 500 954 c 0
 538 954 567 988 567 1175 c 0
 567 1264 620 1338 704 1338 c 0
 788 1338 858.317382812 1263.98242188 861 1175 c 0
 867 976 787 610 503 610 c 0
410 -171 m 0
 316 -171 239 -94 239 0 c 0
 239 466 172 685 28 1106 c 0
 -3 1194 46 1293 134 1323 c 0
 222 1353 322 1304 352 1216 c 0
 498 791 582 502 582 0 c 0
 582 -94 504 -171 410 -171 c 0
EndSplineSet
Substitution2: "Single Substitution lookup 178 subtable" uni0663.EoA
EndChar

StartChar: uni0664
Encoding: 1636 1636 278
GlifName: uni0664
Width: 1047
Flags: HMW
LayerCount: 2
Fore
SplineSet
889 1184 m 0
 902 1092 834 1003 742 990 c 0
 530 958 412 900 412 837 c 0
 412 787 475 765 603 721 c 0
 776 664 721 361 520 418 c 0
 257 493 67 675 67 857 c 0
 67 1101 290 1272 694 1331 c 0
 786 1344 876 1276 889 1184 c 0
511 712 m 0
 705 784 789 480 609 415 c 0
 457 362 364 308 364 260 c 0
 364 210 450 185 571 185 c 0
 643 185 733 193 819 208 c 0
 911 224 1002 165 1020 72 c 0
 1038 -20 979 -112 886 -130 c 0
 780 -150 669 -160 569 -160 c 0
 218 -160 19 -27 19 213 c 0
 19 428 228 607 511 712 c 0
EndSplineSet
Substitution2: "Single Substitution lookup 178 subtable" uni0664.EoA
EndChar

StartChar: uni0665
Encoding: 1637 1637 279
GlifName: uni0665
Width: 1210
Flags: HMW
LayerCount: 2
Fore
SplineSet
613 -156 m 0
 228 -156 18 48 18 370 c 0
 18 619 190 888 536 1168 c 0
 609 1227 718 1216 777 1143 c 0
 836 1069 825 961 753 902 c 0
 517 709 362 498 362 370 c 0
 362 259 439 186 613 186 c 0
 781 186 848 251 848 354 c 0
 848 522 639 766 243 1047 c 0
 167 1101 149 1209 203 1285 c 0
 257 1361 365 1379 441 1325 c 0
 692 1147 1192 829 1192 354 c 0
 1192 40 991 -156 613 -156 c 0
EndSplineSet
Substitution2: "Single Substitution lookup 178 subtable" uni0665.EoA
EndChar

StartChar: uni0666
Encoding: 1638 1638 280
GlifName: uni0666
Width: 1116
Flags: HMW
LayerCount: 2
Fore
SplineSet
18 1182 m 0
 19 1276 97 1352 191 1351 c 0
 283 1349 401 1348 581 1348 c 0
 850 1348 1004 1157 1004 748 c 0
 1004 317 1027 220 1084 58 c 0
 1117 -30 1070 -130 982 -162 c 0
 894 -194 794 -145 761 -58 c 0
 693 131 660 306 660 743 c 0
 660 992 647 1004 497 1004 c 0
 416 1004 258 1005 188 1009 c 0
 94 1010 17 1088 18 1182 c 0
EndSplineSet
Substitution2: "Single Substitution lookup 178 subtable" uni0666.EoA
EndChar

StartChar: uni0667
Encoding: 1639 1639 281
GlifName: uni0667
Width: 1218
Flags: HMW
LayerCount: 2
Fore
SplineSet
98 1311 m 0
 178 1361 285 1338 335 1258 c 0
 476 1035 553 844 618 595 c 1
 678 856 751 1055 879 1282 c 0
 925 1363 1030 1392 1113 1346 c 0
 1194 1300 1223 1195 1177 1112 c 0
 927 670 830 376 789 -24 c 0
 780 -100 718 -171 629 -171 c 0
 547 -171 474 -108 465 -24 c 0
 426 357 330 622 45 1074 c 0
 -5 1154 18 1261 98 1311 c 0
EndSplineSet
Substitution2: "Single Substitution lookup 178 subtable" uni0667.EoA
EndChar

StartChar: uni0668
Encoding: 1640 1640 282
GlifName: uni0668
Width: 1228
Flags: HMW
LayerCount: 2
Fore
SplineSet
1123 -131 m 0
 1043 -181 937 -158 887 -78 c 0
 747 144 667 334 602 583 c 1
 542 321 470 120 344 -107 c 0
 298 -188 193 -217 110 -171 c 0
 29 -125 -1 -20 45 63 c 0
 293 505 391 802 432 1202 c 0
 441 1278 503 1349 592 1349 c 0
 674 1349 747 1286 756 1202 c 0
 795 821 892 555 1176 105 c 0
 1226 25 1203 -81 1123 -131 c 0
EndSplineSet
Substitution2: "Single Substitution lookup 178 subtable" uni0668.EoA
EndChar

StartChar: uni0669
Encoding: 1641 1641 283
GlifName: uni0669
Width: 1062
Flags: HMW
LayerCount: 2
Fore
SplineSet
481 1370 m 0
 847 1370 917 1004 925 778 c 0
 937 441 962 199 1024 80 c 0
 1068 -3 1035 -108 952 -152 c 0
 869 -196 763.335114764 -162.829572364 721 -80 c 0
 606 145 591.842817342 429.9294658 579.534179688 840.6875 c 0
 575 992 525 1028 468 1028 c 0
 410 1028 347 959 347 847 c 0
 347 770 402 736 514 736 c 0
 551 736 603 741 612 742 c 0
 705 753 792 686 803 593 c 0
 814 500 747 413 654 402 c 0
 629 399 575 394 514 394 c 0
 302 394 18 500 18 823 c 0
 18 1033 140 1370 481 1370 c 0
EndSplineSet
Substitution2: "Single Substitution lookup 178 subtable" uni0669.EoA
EndChar

StartChar: uni06F4
Encoding: 1780 1780 289
GlifName: uni06F_4
Width: 1153
Flags: HMW
LayerCount: 2
Fore
SplineSet
889 1362 m 0
 1008 1362 1072 1281 1072 1187 c 0
 1072 1096 1011 1020 889 1020 c 0
 714 1020 674 911 653 697 c 0
 645 608 565 542 476 550 c 0
 387 558 321 637 329 726 c 0
 357 1017 525 1362 889 1362 c 0
76 1172 m 0
 151 1235 279 1227 325 1139 c 0
 437 928 559 721 874 721 c 0
 897 721 921 722 946 724 c 0
 1038 734 1124 663 1134 570 c 0
 1144 478 1073 392 980 382 c 0
 947 379 915 377 884 377 c 0
 748 377 626 409 533 470 c 1
 566 320 585 147 585 0 c 0
 585 -94 507 -171 413 -171 c 0
 319 -171 242 -94 242 0 c 0
 242 326 198 668 42 948 c 0
 6 1012 6 1113 76 1172 c 0
EndSplineSet
Substitution2: "Single Substitution lookup 178 subtable" uni06F4.EoA
Substitution2: "'locl' Localized Forms lookup 17 subtable" uni06F4.urdu
EndChar

StartChar: uni06F5
Encoding: 1781 1781 290
GlifName: uni06F_5
Width: 1215
Flags: HMW
LayerCount: 2
Fore
SplineSet
253 1264 m 0
 305 1341 414 1364 491 1312 c 0
 674 1190 1199 825 1199 342 c 0
 1199 42 1063 -160 816 -160 c 0
 569 -160 487.993164062 125.71484375 476.259765625 235.703125 c 0
 469.002929688 303.728515625 512.359375 367.467773438 580.046875 378.296875 c 0
 647.734375 389.127929688 719.333984375 341.888671875 723.544921875 273.607421875 c 0
 727.155273438 215.0625 750 183 798 183 c 0
 846 183 876 224 876 305 c 0
 876 574 488 899 301 1026 c 0
 224 1078 201 1187 253 1264 c 0
830 1098 m 0
 876 1016 845 910 763 865 c 0
 571 759 340 545 340 303 c 0
 340 207 373 184 410 184 c 0
 448 184 473.588867188 202.426757812 474.455078125 259.16796875 c 0
 475.48828125 326.872070312 535.825195312 381.907226562 604.415039062 378.296875 c 0
 673.005859375 374.6875 725.46875 315.19140625 723.544921875 247.434570312 c 0
 719.934570312 120.299804688 646 -158 402 -158 c 0
 179 -158 16 -6 16 317 c 0
 16 745 359 1033 597 1165 c 0
 679 1211 784 1180 830 1098 c 0
EndSplineSet
Substitution2: "Single Substitution lookup 178 subtable" uni06F5.EoA
EndChar

StartChar: uni06F6
Encoding: 1782 1782 291
GlifName: uni06F_6
Width: 1011
Flags: HMW
LayerCount: 2
Fore
SplineSet
14 835 m 0
 14 1131 257 1368 532 1368 c 0
 649 1368 680 1360 785 1312 c 0
 869 1271 903 1166 862 1082 c 0
 821 998 715 964 631 1005 c 0
 593 1022 564 1026 536 1026 c 0
 464 1026 359 943 359 841 c 0
 359 782 430 719 583 719 c 0
 647 719 701 732 768 755 c 0
 857 784 954 734 984 645 c 0
 1014 556 963 457 874 428 c 0
 789 400 694 377 582 377 c 0
 330 377 14 512 14 835 c 0
134 -150 m 0
 52 -105 21 1 66 83 c 0
 224 373 413 607 757 750 c 0
 844 785 945 742 980 655 c 0
 1015 568 972 466 885 431 c 0
 606 315 499 161 366 -83 c 0
 321 -165 216 -194 134 -150 c 0
EndSplineSet
Substitution2: "Single Substitution lookup 178 subtable" uni06F6.EoA
Substitution2: "'locl' Localized Forms lookup 17 subtable" uni0666
EndChar

StartChar: uni066B
Encoding: 1643 1643 295
GlifName: uni066B_
Width: 580
Flags: HMW
LayerCount: 2
Fore
SplineSet
452 662 m 0
 538 625 579 522 542 436 c 2
 160 -450 l 2
 123 -536 20 -578 -66 -541 c 0
 -152 -504 -193 -402 -156 -316 c 2
 226 572 l 2
 263 658 366 699 452 662 c 0
EndSplineSet
EndChar

StartChar: uni060C
Encoding: 1548 1548 297
GlifName: uni060C_
Width: 644
Flags: HMW
LayerCount: 2
Fore
SplineSet
343 -81 m 0
 189 -81 100 17 100 186 c 0
 100 372 185 523 341 611 c 0
 405 647 459 622 481 580 c 0
 502 540 494 485 437 456 c 0
 369 422 309 360 300 295 c 1
 320 300 339 302 359 302 c 0
 468 302 544 227 544 118 c 0
 544 -10 466 -81 343 -81 c 0
EndSplineSet
EndChar

StartChar: quoteleft
Encoding: 8216 8216 299
GlifName: quoteleft
Width: 644
Flags: HMW
LayerCount: 2
Fore
SplineSet
343 1494 m 0
 466 1494 544 1423 544 1295 c 0
 544 1186 468 1111 359 1111 c 0
 339 1111 320 1113 300 1118 c 1
 309 1053 369 991 437 957 c 0
 494 928 502 873 481 833 c 0
 459 791 405 766 341 802 c 0
 185 890 100 1041 100 1227 c 0
 100 1396 189 1494 343 1494 c 0
EndSplineSet
EndChar

StartChar: uni061F
Encoding: 1567 1567 310
GlifName: uni061F_
Width: 1105
Flags: HMW
LayerCount: 2
Fore
SplineSet
928 1418 m 0
 1036 1357 1077 1253 1029 1167 c 0
 973 1071 866 1064 768 1112 c 0
 725 1133 677 1154 601 1154 c 0
 509 1154 442 1116 442 1064 c 0
 442 1016 494 970 562 911 c 0
 662 825 758 723 758 599 c 0
 758 546 738 484 707 441 c 0
 652 365 544 322 453 396 c 0
 386 450 360 538 396 591 c 0
 401 599 403 607 403 615 c 0
 403 651 360 694 305 747 c 0
 211 831 98 940 98 1099 c 0
 98 1318 324 1496 601 1496 c 0
 728 1496 839 1468 928 1418 c 0
362 89 m 0
 362 203 453 306 577 306 c 0
 697 306 794 209 794 89 c 0
 794 -34 691 -126 577 -126 c 0
 459 -126 362 -30 362 89 c 0
EndSplineSet
EndChar

StartChar: section
Encoding: 167 167 312
GlifName: section
Width: 1000
Flags: HMW
LayerCount: 2
Fore
SplineSet
18 670 m 0
 18 917 265 1017 506 1032 c 0
 582 1037 645 971 645 895 c 0
 645 819 582 764 506 756 c 0
 407 746 328 712 328 670 c 0
 328 604 434 581 495 569 c 0
 695 530 947 423 947 169 c 0
 947 -170 528 -244 198 -244 c 0
 104 -244 28 -168 28 -74 c 0
 28 20 104 96 198 96 c 0
 332 96 594 108 594 192 c 0
 594 242 496 273 397 299 c 0
 224 345 18 428 18 670 c 0
53 1156 m 0
 53 1495 472 1569 802 1569 c 0
 896 1569 972 1493 972 1399 c 0
 972 1305 896 1229 802 1229 c 0
 668 1229 407 1217 407 1133 c 0
 407 1083 505 1052 604 1026 c 0
 777 980 982 897 982 655 c 0
 982 408 736 307 495 292 c 0
 419 287 357 354 357 430 c 0
 357 506 419 561 495 569 c 0
 594 579 673 613 673 655 c 0
 673 721 567 744 506 756 c 0
 306 795 53 902 53 1156 c 0
EndSplineSet
EndChar

StartChar: uni00B2
Encoding: 178 178 313
GlifName: uni00B_2
Width: 728
Flags: HMW
LayerCount: 2
Fore
SplineSet
196 1232 m 0
 153 1235 118 1273 118 1316 c 0
 118 1439 201 1558 341 1558 c 0
 486 1558 584 1458 584 1312 c 0
 584 1170 525 1114 423 1034 c 2
 388 1013 l 1
 528 1006 l 2
 571 1006 607 969 607 926 c 0
 607 883 569 846 526 846 c 2
 176 854 l 2
 156 854 135 862 120 878 c 0
 86 909 87 966 124 996 c 2
 298 1130 l 2
 390 1202 424 1243 424 1321 c 0
 424 1367 399 1398 352 1398 c 0
 308 1398 276 1365 276 1307 c 0
 276 1264 239 1229 196 1232 c 0
EndSplineSet
EndChar

StartChar: uni00B3
Encoding: 179 179 314
GlifName: uni00B_3
Width: 674
Flags: HMW
LayerCount: 2
Fore
SplineSet
154 1309 m 0
 119 1330 109 1381 131 1421 c 0
 196 1510 256 1539 353 1539 c 0
 468 1539 558 1460 558 1352 c 0
 558 1248 456 1131 276 1099 c 0
 237 1093 197 1126 194 1168 c 0
 191 1209 224 1246 264 1248 c 0
 340 1254 398 1301 398 1338 c 0
 398 1368 385 1379 353 1379 c 0
 325 1379 291 1362 267 1334 c 0
 246 1299 193 1287 154 1309 c 0
194 1168 m 0
 191 1209 224 1246 264 1248 c 0
 291 1250 309 1258 347 1258 c 0
 467 1258 574 1150 574 1055 c 0
 574 943 474 840 344 840 c 0
 256 840 194 860 142 902 c 0
 108 929 101 980 128 1014 c 0
 155 1048 205 1053 240 1026 c 0
 263 1009 289 1000 350 1000 c 0
 395 1000 414 1021 414 1052 c 0
 414 1082 394 1108 347 1108 c 0
 334 1108 306 1105 276 1099 c 0
 237 1092 197 1126 194 1168 c 0
EndSplineSet
EndChar

StartChar: eth
Encoding: 240 240 315
GlifName: eth
Width: 1099
Flags: HMW
LayerCount: 2
Fore
SplineSet
123 873 m 0
 53 935 48 1045 111 1115 c 0
 249 1267 602 1505 800 1569 c 0
 889 1597 987 1548 1015 1459 c 0
 1043 1370 994 1271 905 1243 c 0
 819 1215 431 959 365 885 c 0
 302 815 193 811 123 873 c 0
546 -156 m 0
 160 -156 -12 145 -12 427 c 0
 -12 747 235 1026 575 1026 c 0
 669 1026 746 948 746 854 c 0
 746 760 669 682 575 682 c 0
 435 682 332 575 332 427 c 0
 332 263 380 186 546 186 c 0
 686 186 778 248 778 525 c 0
 778 718 665 1083 206 1260 c 0
 119 1294 73 1394 107 1481 c 0
 141 1568 241 1614 328 1580 c 0
 937 1347 1120 836 1120 525 c 0
 1120 142 914 -156 546 -156 c 0
EndSplineSet
EndChar

StartChar: uniE008
Encoding: 57352 57352 325
GlifName: uniE_008
Width: 100
Flags: HMW
LayerCount: 2
Fore
SplineSet
-172 45 m 0
 -172 139 -94 216 0 216 c 2
 100 216 l 2
 194 216 272 139 272 45 c 0
 272 -49 194 -126 100 -126 c 2
 0 -126 l 2
 -94 -126 -172 -49 -172 45 c 0
EndSplineSet
EndChar

StartChar: uniE009
Encoding: 57353 57353 326
GlifName: uniE_009
Width: 150
Flags: HMW
LayerCount: 2
Fore
SplineSet
-172 45 m 0
 -172 139 -94 216 0 216 c 2
 150 216 l 2
 244 216 322 139 322 45 c 0
 322 -49 244 -126 150 -126 c 2
 0 -126 l 2
 -94 -126 -172 -49 -172 45 c 0
EndSplineSet
EndChar

StartChar: underscore
Encoding: 95 95 327
GlifName: underscore
Width: 610
Flags: HMW
LayerCount: 2
Fore
SplineSet
782 45 m 0
 782 -49 704 -126 610 -126 c 2
 0 -126 l 2
 -94 -126 -172 -49 -172 45 c 0
 -172 139 -94 216 0 216 c 2
 610 216 l 2
 704 216 782 139 782 45 c 0
EndSplineSet
EndChar

StartChar: uniFD3E
Encoding: 64830 64830 330
GlifName: uniF_D_3E_
Width: 926
Flags: HMW
LayerCount: 2
Fore
SplineSet
673 1522 m 0
 757 1481 793 1377 752 1293 c 0
 646 1076 600 906 600 681 c 0
 600 474 651 225 752 20 c 0
 793 -64 758 -169 674 -210 c 0
 590 -251 485 -216 444 -132 c 0
 317 127 256 422 256 681 c 0
 256 960 322 1196 444 1443 c 0
 485 1527 589 1563 673 1522 c 0
918 774 m 0
 918 697 881 631 838 592 c 1
 839 569 836 545 836 524 c 0
 836 299 601 296 584 296 c 0
 537 296 497 302 462 314 c 1
 414 284 345 258 267 258 c 0
 155 258 48 355 48 476 c 0
 48 529 59 581 76 626 c 1
 38 675 8 746 8 819 c 0
 8 1014 210 1050 264 1050 c 0
 352 1050 418 1025 468 990 c 1
 525 1018 590 1034 659 1034 c 0
 820 1034 918 904 918 774 c 0
EndSplineSet
EndChar

StartChar: uniFD3F
Encoding: 64831 64831 331
GlifName: uniF_D_3F_
Width: 921
Flags: HMW
LayerCount: 2
Fore
SplineSet
245 1522 m 0
 329 1563 433 1527 474 1443 c 0
 596 1196 662 960 662 681 c 0
 662 404 600 125 474 -131 c 0
 433 -215 329 -251 245 -210 c 0
 161 -169 125 -65 166 19 c 0
 268 227 318 454 318 681 c 0
 318 906 272 1076 166 1293 c 0
 125 1377 161 1481 245 1522 c 0
88 526 m 0
 88 549 85 574 86 597 c 1
 44 636 8 703 8 781 c 0
 8 941 142 1046 277 1046 c 0
 357 1046 423 1024 479 989 c 1
 527 1016 585 1034 660 1034 c 0
 757 1034 913 964 913 792 c 0
 913 723 889 657 852 611 c 1
 863 572 869 531 869 493 c 0
 869 307 689 260 623 260 c 0
 565 260 509 276 470 295 c 1
 433 281 383 270 335 270 c 0
 212 270 88 366 88 526 c 0
EndSplineSet
EndChar

StartChar: dollar
Encoding: 36 36 332
GlifName: dollar
Width: 1122
Flags: HMW
LayerCount: 2
Fore
SplineSet
550 1708 m 0
 597 1708 639 1666 639 1619 c 2
 639 -285 l 2
 639 -333 597 -374 550 -374 c 0
 503 -374 461 -333 461 -285 c 2
 461 1619 l 2
 461 1666 503 1708 550 1708 c 0
EndSplineSet
Refer: 31 83 N 1 0 0 1 0 0 2
EndChar

StartChar: ampersand
Encoding: 38 38 333
GlifName: ampersand
Width: 1384
Flags: HMW
LayerCount: 2
Fore
SplineSet
95 272 m 0
 95 460 209 616 550 840 c 0
 730 960 771 1013 771 1077 c 0
 771 1144 731 1187 657 1187 c 0
 583 1187 534 1143 534 1087 c 0
 534 948 832 600 1342 191 c 0
 1415 132 1425 22 1366 -50 c 0
 1307 -122 1196 -131 1124 -72 c 0
 333 573 196 753 196 1030 c 0
 196 1328 371 1526 647 1526 c 0
 915 1526 1113 1340 1113 1094 c 0
 1113 926 1020 793 704 570 c 0
 498 424 441 351 441 282 c 0
 441 213 496 178 617 178 c 0
 817 178 956 281 1084 519 c 0
 1129 601 1225 643 1310 606 c 0
 1395 569 1438 461 1397 378 c 0
 1206 1 989 -160 660 -160 c 0
 316 -160 95 13 95 272 c 0
EndSplineSet
EndChar

StartChar: question
Encoding: 63 63 334
GlifName: question
Width: 1165
Flags: HMW
LayerCount: 2
Fore
SplineSet
98 1118 m 0
 26 1240 102 1347 180 1404 c 0
 282 1478 421 1532 590 1532 c 0
 857 1532 1076 1362 1076 1087 c 0
 1076 904 945 809 839 738 c 0
 766 689 710 649 710 586 c 0
 710 570 711 562 713 552 c 0
 738 444 659 363 575 350 c 0
 461 332 393 394 370 480 c 0
 362 511 358 545 358 580 c 0
 358 767 479 856 587 932 c 0
 714.771484375 1021.91308594 734 1051 734 1092 c 0
 734 1166 666 1190 586 1190 c 0
 507 1190 413.00872658 1150.80953008 366 1112 c 0
 280 1041 152 1027 98 1118 c 0
756 89 m 0
 756 -29 659 -126 540 -126 c 0
 426 -126 324 -35 324 89 c 0
 324 209 420 306 540 306 c 0
 663 306 756 203 756 89 c 0
EndSplineSet
EndChar

StartChar: at
Encoding: 64 64 335
GlifName: at
Width: 2276
Flags: HMW
LayerCount: 2
Fore
SplineSet
1798 -274 m 0
 1847 -354 1822 -461 1742 -510 c 0
 1573 -615 1375 -676 1161 -676 c 0
 520 -676 20 -270 20 400 c 0
 20 1004 526 1606 1194 1606 c 0
 1793 1606 2256 1185 2256 564 c 0
 2256 333 2158 -146 1706 -146 c 0
 1412 -146 1292 163 1292 362 c 0
 1292 399 1294 438 1299 477 c 0
 1312 570 1399 637 1492 624 c 0
 1585 611 1652 524 1639 431 c 0
 1633.01660156 389.119140625 1626.78417969 326.310546875 1626.78417969 289.330078125 c 0
 1626.78417969 207.107421875 1664.77148438 198 1693 198 c 1
 1799 198 1914 349 1914 564 c 0
 1914 985 1617 1264 1194 1264 c 0
 736 1264 364 822 364 400 c 0
 364 -56 676 -334 1161 -334 c 0
 1307 -334 1445 -291 1562 -218 c 0
 1642 -169 1749 -194 1798 -274 c 0
1335 722 m 1
 1285 742 1233 752 1184 752 c 0
 1034 752 872 624 872 372 c 0
 872 254 937 186 1053 186 c 0
 1193 186 1274 313 1299 479 c 2
 1335 722 l 1
1691 786 m 2
 1639 429 l 2
 1608 213 1459 -156 1053 -156 c 0
 747 -156 528 80 528 372 c 0
 528 786 822 1096 1184 1096 c 0
 1334 1096 1487 1047 1621 950 c 0
 1673 912 1700 845 1691 786 c 2
EndSplineSet
EndChar

StartChar: b
Encoding: 98 98 336
GlifName: b
Width: 1203
Flags: MW
LayerCount: 2
Fore
SplineSet
272 1532 m 0
 366 1529 441 1450 438 1356 c 2
 396 40 l 2
 393 -54 314 -129 220 -126 c 0
 126 -123 51 -44 54 50 c 2
 96 1366 l 2
 99 1460 178 1535 272 1532 c 0
211 388 m 0
 120 407 57 500 78 591 c 0
 148 909 436 1172 676 1172 c 0
 1093 1172 1199 778 1199 572 c 0
 1199 139 914 -156 540 -156 c 0
 479 -156 415 -148 355 -132 c 0
 265 -108 209 -13 233 77 c 0
 257 167 353 222 443 198 c 0
 474 190 507 186 540 186 c 0
 726 186 857 327 857 561 c 0
 857 720 805 830 676 830 c 0
 581 830 461 736 414 521 c 0
 393 430 302 369 211 388 c 0
EndSplineSet
EndChar

StartChar: d
Encoding: 100 100 337
GlifName: d
Width: 1237
Flags: HMW
LayerCount: 2
Fore
SplineSet
999 1532 m 0
 1093 1530 1168 1451 1166 1357 c 2
 1148 509 l 1
 1148 199 1168 163 1175 154 c 0
 1235 82 1223 -28 1151 -88 c 0
 1079 -148 968 -137 909 -64 c 0
 806 64 798 227 805 513 c 1
 824 1365 l 2
 826 1459 905 1534 999 1532 c 0
656 1172 m 0
 858 1172 1028 1062 1141 872 c 0
 1190 792 1153 682 1070 639 c 0
 987 596 879 626 838 710 c 0
 808 780 739 830 651 830 c 0
 493 830 357 650 357 424 c 0
 357 268 423 186 544 186 c 0
 688 186 803 300 804 559 c 1
 807 652 904 717 997 704 c 0
 1090 691 1149 610 1144 512 c 1
 1139 95 853 -156 539 -156 c 0
 234 -156 13 87 13 430 c 0
 13 833 314 1172 656 1172 c 0
EndSplineSet
EndChar

StartChar: h
Encoding: 104 104 338
GlifName: h
Width: 1206
Flags: HMW
LayerCount: 2
Fore
SplineSet
118 464 m 0
 190 753 393 1171 723 1171 c 0
 990 1171 1156 959 1156 681 c 0
 1156 464 1156 224 1144 -1 c 0
 1139 -86 1077 -169 968 -169 c 0
 856 -169 794 -90 799 -2 c 0
 806 135 810 255 810 358 c 0
 810 673 772 829 679 829 c 0
 549 829 480 613 430 365 c 0
 413 280 318 228 219 256 c 0
 138 279 95 372 118 464 c 0
215 -170 m 0
 131 -163 51 -99 59 12 c 2
 156 1398 l 2
 164 1513 254 1564 340 1557 c 0
 425 1550 506 1487 498 1374 c 2
 401 -12 l 2
 393 -127 301 -178 215 -170 c 0
EndSplineSet
EndChar

StartChar: k
Encoding: 107 107 341
GlifName: k
Width: 1059
Flags: HMW
LayerCount: 2
Fore
SplineSet
1003.97070312 -96.91015625 m 0
 950.08984375 -173.504882812 841.056640625 -192.073242188 764.547851562 -137.196289062 c 0
 533.03125 27.609375 323 220 145 424 c 0
 65 514 115 647 198 689 c 0
 382 782 605 934 726 1080 c 0
 785 1152 896 1164 968 1104 c 0
 1040 1044 1051 934 992 862 c 0
 882 729 702 603 547 498 c 1
 685 365 829.458007812 237.573242188 963.68359375 142.512695312 c 0
 1040.19238281 87.6357421875 1057.8515625 -20.314453125 1003.97070312 -96.91015625 c 0
293 1532 m 0
 387 1528 460 1447 456 1353 c 2
 396 -4 l 2
 392 -98 311 -171 217 -167 c 0
 123 -163 50 -82 54 12 c 2
 114 1369 l 2
 118 1463 199 1536 293 1532 c 0
EndSplineSet
EndChar

StartChar: l
Encoding: 108 108 342
GlifName: l
Width: 489
Flags: HMW
LayerCount: 2
Fore
SplineSet
262 1521 m 0
 356 1517 429 1436 425 1342 c 0
 409 1007 407 393 407 0 c 0
 407 -94 329 -171 235 -171 c 0
 141 -171 64 -94 64 0 c 0
 64 395 67 1007 83 1358 c 0
 87 1452 168 1525 262 1521 c 0
EndSplineSet
EndChar

StartChar: m
Encoding: 109 109 343
GlifName: m
Width: 1761
Flags: HMW
LayerCount: 2
Fore
SplineSet
59 24 m 0
 86 309 98 498 98 647 c 0
 98 772 90 870 73 975 c 0
 56 1079 121 1144 198 1163 c 0
 287 1184 392 1143 411 1028 c 0
 431 905 440 788 440 647 c 0
 440 479 426 278 399 -8 c 0
 389 -117 295 -166 208 -157 c 0
 125 -149 49 -87 59 24 c 0
98 532 m 0
 184 873 324 1172 662 1172 c 0
 996 1172 1066 852 1066 504 c 0
 1066 320 1060 237 1042 -12 c 0
 1034.19140625 -120.013671875 943 -171 857 -165 c 0
 772 -159 691.532226562 -99.9658203125 700 12 c 0
 718 250 724 334 724 504 c 0
 724 756 699 830 621 830 c 0
 535 830 479.832031251 725.171875 418 475 c 0
 397.877948375 393.586349469 324 325 228 344 c 0
 146 360 74.787716365 439.960596285 98 532 c 0
738 624 m 0
 845 951 1031 1171 1341 1171 c 0
 1608 1171 1711 959 1711 681 c 0
 1711 464 1711 224 1699 -1 c 0
 1694 -86 1632 -169 1523 -169 c 0
 1411 -169 1349 -90 1354 -2 c 0
 1361 135 1365 255 1365 358 c 0
 1365 723 1344 829 1257 829 c 0
 1184 829 1125 775 1050 525 c 0
 1025.09160925 441.972030825 938 388 839 416 c 0
 758 439 708.5078125 533.87109375 738 624 c 0
EndSplineSet
EndChar

StartChar: n
Encoding: 110 110 344
GlifName: n
Width: 1206
Flags: HMW
LayerCount: 2
Fore
SplineSet
59 24 m 0
 86 309 98 498 98 647 c 0
 98 772 90 870 73 975 c 0
 56 1079 121 1144 198 1163 c 0
 287 1184 392 1143 411 1028 c 0
 431 905 440 788 440 647 c 0
 440 479 426 278 399 -8 c 0
 389 -117 295 -166 208 -157 c 0
 125 -149 49 -87 59 24 c 0
118 464 m 0
 190 753 393 1171 723 1171 c 0
 990 1171 1156 959 1156 681 c 0
 1156 464 1156 224 1144 -1 c 0
 1139 -86 1077 -169 968 -169 c 0
 856 -169 794 -90 799 -2 c 0
 806 135 810 255 810 358 c 0
 810 673 772 829 679 829 c 0
 549 829 480 613 430 365 c 0
 413 280 318 228 219 256 c 0
 138 279 95 372 118 464 c 0
EndSplineSet
EndChar

StartChar: p
Encoding: 112 112 345
GlifName: p
Width: 1237
Flags: MW
LayerCount: 2
Fore
SplineSet
289 15 m 0
 289 109 367 186 461 186 c 0
 797 186 881 397 881 568 c 0
 881 788 780 830 723 830 c 0
 644 830 441 702 424 284 c 0
 421 190 341 117 247 120 c 0
 153 123 79 204 82 298 c 0
 101 792 360 1172 723 1172 c 0
 1016 1172 1223 912 1223 568 c 0
 1223 265 1015 -156 461 -156 c 0
 367 -156 289 -79 289 15 c 0
210 -604 m 0
 116 -600 43 -519 47 -425 c 2
 79 263 l 2
 87 394 93 505 93 603 c 0
 93 734 73 851 51 895 c 0
 10 979 45 1083 129 1124 c 0
 213 1165 318 1131 359 1047 c 0
 425 913 437 758 437 603 c 0
 437 490 429 373 421 243 c 2
 389 -441 l 2
 385 -535 304 -608 210 -604 c 0
EndSplineSet
EndChar

StartChar: q
Encoding: 113 113 346
GlifName: q
Width: 1203
Flags: HMW
LayerCount: 2
Fore
SplineSet
912 751 m 0
 839 693 729 705 671 778 c 0
 647 808 615 830 557 830 c 0
 459 830 357 706 357 484 c 0
 357 253 421 186 531 186 c 0
 653 186 734 271 792 454 c 0
 819 543 917 594 1006 566 c 0
 1095 538 1145 441 1118 352 c 0
 1046 123 877 -158 531 -158 c 0
 135 -158 13 205 13 484 c 0
 13 758 151 1172 557 1172 c 0
 719 1172 855 1098 939 992 c 0
 997 919 985 809 912 751 c 0
1001 1148 m 0
 1095 1142 1165 1058 1159 964 c 0
 1137 670 1125 380 1125 87 c 0
 1125 -81 1129 -248 1136 -417 c 0
 1140 -511 1067 -592 973 -596 c 0
 879 -600 798 -527 794 -433 c 0
 787 -260 783 -85 783 87 c 0
 783 388 795 690 817 990 c 0
 823 1084 907 1154 1001 1148 c 0
EndSplineSet
EndChar

StartChar: r
Encoding: 114 114 347
GlifName: r
Width: 945
Flags: HMW
LayerCount: 2
Fore
SplineSet
939 1024 m 0
 956 932 895 839 803 822 c 0
 495 762 451 498 410 -14 c 0
 402 -108 319 -179 225 -171 c 0
 131 -163 60 -80 68 14 c 0
 105 468 143 1046 737 1160 c 0
 829 1177 922 1116 939 1024 c 0
222 -171 m 0
 129 -161 58 -76 68 17 c 0
 82 154 95 351 95 532 c 0
 95 698 80 858 61 922 c 0
 35 1011 88 1109 177 1135 c 0
 266 1161 363 1109 389 1020 c 0
 428 888 437 716 437 532 c 0
 437 335 426 132 410 -17 c 0
 400 -110 315 -181 222 -171 c 0
EndSplineSet
EndChar

StartChar: u
Encoding: 117 117 348
GlifName: u
Width: 1206
Flags: HMW
LayerCount: 2
Fore
SplineSet
1147 978 m 0
 1120 693 1108 504 1108 355 c 0
 1108 230 1116 132 1133 27 c 0
 1150 -77 1085 -142 1008 -161 c 0
 919 -182 814 -141 795 -26 c 0
 775 97 766 214 766 355 c 0
 766 523 780 724 807 1010 c 0
 817 1119 911 1168 998 1159 c 0
 1081 1151 1157 1089 1147 978 c 0
1088 538 m 0
 1016 249 813 -169 496 -169 c 0
 216 -169 50 43 50 321 c 0
 50 538 50 778 62 1003 c 0
 67 1088 129 1171 238 1171 c 0
 350 1171 411.49773505 1092.02710026 407 1004 c 0
 400 867 396 747 396 493 c 0
 396 258 434 173 527 173 c 0
 657 173 726 389 776 637 c 0
 793 722 888 774 987 746 c 0
 1068 723 1110.92507383 630.018699131 1088 538 c 0
EndSplineSet
EndChar

StartChar: asciitilde
Encoding: 126 126 349
GlifName: asciitilde
Width: 880
Flags: HMW
LayerCount: 2
Fore
SplineSet
87 1033 m 0
 23 1054 -14 1128 6 1190 c 0
 44 1298 131 1416 289 1416 c 0
 397 1416 476 1363 540 1323 c 0
 562 1311 573 1298 601 1298 c 0
 675 1298 674 1375 667 1366 c 0
 691 1430 770 1458 830 1433 c 0
 892 1407 922 1330 897 1270 c 0
 841 1144 731 1046 601 1046 c 0
 520 1046 453 1074 386 1124 c 0
 358 1146 338 1164 304 1164 c 0
 247 1164 238 1099 244 1114 c 0
 223 1050 149 1012 87 1033 c 0
EndSplineSet
EndChar

StartChar: cent
Encoding: 162 162 352
GlifName: cent
Width: 1071
Flags: HMW
LayerCount: 2
Fore
SplineSet
572 -536 m 0
 478 -536 401 -459 401 -365 c 2
 401 7 l 2
 401 101 478 178 572 178 c 0
 666 178 743 101 743 7 c 2
 743 -365 l 2
 743 -459 666 -536 572 -536 c 0
572 830 m 0
 478 830 401 907 401 1001 c 2
 401 1316 l 2
 401 1410 478 1488 572 1488 c 0
 666 1488 743 1410 743 1316 c 2
 743 1001 l 2
 743 907 666 830 572 830 c 0
EndSplineSet
Refer: 1 99 N 1 0 0 1 0 0 2
EndChar

StartChar: sterling
Encoding: 163 163 353
GlifName: sterling
Width: 1464
Flags: HMW
LayerCount: 2
Fore
SplineSet
65 688 m 0
 86 775 173 839 273 814 c 0
 325 801 391 794 460 794 c 0
 560 794 665 807 749 823 c 0
 847 842 928 778 948 695 c 0
 973 592 903 504 814 487 c 0
 712 467 588 452 460 452 c 0
 371 452 279 459 189 482 c 0
 105 503 41 588 65 688 c 0
210 687 m 2
 210 939 l 2
 210 1246 357 1517 670 1517 c 0
 942 1517 1105 1332 1145 1103 c 0
 1162 1004 1095 923 1010 906 c 0
 908 886 824 957 809 1045 c 0
 794 1132 760 1175 670 1175 c 0
 575 1175 552 1043 552 939 c 2
 552 687 l 2
 552 405 470 136 316 -5 c 1
 263 280 l 1
 390 230 524 186 710 186 c 0
 826 186 1001 199 1018 287 c 0
 1033 366 1102 426 1186 426 c 0
 1288 426 1376 335 1354 224 c 0
 1302 -52 1028 -156 710 -156 c 0
 482 -156 283 -96 137 -38 c 0
 73 -13 29 53 29 121 c 0
 29 169 53 219 84 247 c 0
 172 328 210 520 210 687 c 2
EndSplineSet
EndChar

StartChar: currency
Encoding: 164 164 354
GlifName: currency
Width: 1159
Flags: HMW
LayerCount: 2
Fore
SplineSet
1096 -85 m 0
 1025 -146 915 -138 854 -67 c 2
 737 68 l 2
 676 139 683 248 754 309 c 0
 825 370 935 364 996 293 c 2
 1114 157 l 2
 1175 86 1167 -24 1096 -85 c 0
405 722 m 0
 336 659 225 663 162 732 c 2
 49 854 l 2
 -14 923 -10 1033 59 1096 c 0
 128 1159 238 1155 301 1086 c 2
 414 964 l 2
 477 895 474 785 405 722 c 0
1097 1098 m 0
 1167 1036 1175 927 1113 857 c 2
 1011 743 l 2
 949 673 840 666 770 728 c 0
 700 790 693 900 755 970 c 2
 855 1083 l 2
 917 1153 1027 1160 1097 1098 c 0
390 282 m 0
 460 220 466 111 403 41 c 2
 303 -70 l 2
 241 -140 131 -145 61 -82 c 0
 -9 -19 -13 90 49 160 c 2
 149 270 l 2
 212 340 320 344 390 282 c 0
EndSplineSet
Refer: 5 111 N 1 0 0 1 0 0 2
EndChar

StartChar: brokenbar
Encoding: 166 166 356
GlifName: brokenbar
Width: 429
Flags: HMW
LayerCount: 2
Fore
SplineSet
214 1532 m 0
 308 1532 386 1455 386 1361 c 0
 386 1215 385 1056 382 892 c 0
 380 798 301 722 207 724 c 0
 113 726 37 804 39 898 c 0
 42 1060 42 1217 42 1361 c 0
 42 1455 120 1532 214 1532 c 0
232 668 m 0
 326 666 402 588 400 494 c 0
 396 313 390 138 382 -10 c 0
 377 -104 296 -176 202 -171 c 0
 108 -166 35 -84 40 10 c 0
 48 154 54 321 58 500 c 0
 60 594 138 670 232 668 c 0
EndSplineSet
EndChar

StartChar: dieresis
Encoding: 168 168 357
GlifName: dieresis
Width: 698
Flags: HMW
LayerCount: 2
Fore
SplineSet
656 1210 m 0
 656 1129 587 1075 518 1075 c 0
 438 1075 380 1142 380 1209 c 0
 380 1286 433 1352 508 1352 c 0
 589 1352 656 1288 656 1210 c 0
328 1226 m 0
 328 1142 261 1075 177 1075 c 0
 98 1075 52 1150 52 1214 c 0
 52 1290 113 1352 189 1352 c 0
 256 1352 328 1305 328 1226 c 0
EndSplineSet
EndChar

StartChar: ordfeminine
Encoding: 170 170 359
GlifName: ordfeminine
Width: 946
Flags: HMW
LayerCount: 2
Fore
SplineSet
404 976 m 0
 507 976 568 1101 568 1247 c 0
 568 1355 527 1379 447 1379 c 0
 353 1379 270 1292 270 1156 c 0
 270 1034 334 976 404 976 c 0
404 816 m 0
 222 816 110 978 110 1156 c 0
 110 1352 241 1539 447 1539 c 0
 599 1539 728 1439 728 1247 c 0
 728 1093 661 816 404 816 c 0
742 1530 m 0
 781 1511 797 1463 778 1424 c 0
 758 1382 722 1240 722 1134 c 0
 722 1010 761 976 766 976 c 0
 809 976 846 939 846 896 c 0
 846 853 809 816 766 816 c 0
 583 816 562 1038 562 1134 c 0
 562 1274 600 1420 636 1494 c 0
 655 1533 703 1549 742 1530 c 0
EndSplineSet
EndChar

StartChar: logicalnot
Encoding: 172 172 360
GlifName: logicalnot
Width: 985
Flags: HMW
LayerCount: 2
Fore
SplineSet
-12 661 m 0
 -12 755 66 832 160 832 c 2
 805 832 l 2
 908 832 976 735 976 661 c 2
 976 388 l 2
 976 294 899 216 805 216 c 0
 711 216 634 294 634 388 c 2
 634 490 l 1
 160 490 l 2
 66 490 -12 567 -12 661 c 0
EndSplineSet
EndChar

StartChar: degree
Encoding: 176 176 364
GlifName: degree
Width: 840
Flags: HMW
LayerCount: 2
Fore
SplineSet
523 1401 m 0
 523 1452 477 1502 424 1502 c 0
 378 1502 327 1451 327 1397 c 0
 327 1349 370 1306 416 1306 c 0
 475 1306 523 1353 523 1401 c 0
719 1398 m 0
 719 1238 574 1110 410 1110 c 0
 260 1110 131 1240 131 1391 c 0
 131 1552 270 1698 424 1698 c 0
 589 1698 719 1552 719 1398 c 0
EndSplineSet
EndChar

StartChar: acute
Encoding: 180 180 365
GlifName: acute
Width: 532
Flags: HMW
LayerCount: 2
Fore
SplineSet
427 1551 m 0
 465 1521 471 1463 441 1426 c 0
 366 1332 306 1250 252 1132 c 0
 233 1089 176 1068 133 1087 c 0
 91 1105 70 1162 89 1206 c 0
 151 1344 227 1442 302 1536 c 0
 332 1574 390 1580 427 1551 c 0
EndSplineSet
EndChar

StartChar: mu
Encoding: 181 181 366
GlifName: mu
Width: 1206
Flags: HMW
LayerCount: 2
Fore
SplineSet
393 321 m 0
 393 55 417 -239 441 -476 c 0
 451 -569 380 -654 287 -664 c 0
 194 -674 109 -603 99 -510 c 0
 75 -267 50 35 50 321 c 0
 50 415 127 492 221 492 c 0
 315 492 393 415 393 321 c 0
1147 978 m 0
 1120 693 1108 504 1108 355 c 0
 1108 230 1116 132 1133 27 c 0
 1150 -77 1085 -142 1008 -161 c 0
 919 -182 814 -141 795 -26 c 0
 775 97 766 214 766 355 c 0
 766 523 780 724 807 1010 c 0
 817 1119 911 1168 998 1159 c 0
 1081 1151 1157 1089 1147 978 c 0
1088 538 m 0
 1016 249 813 -169 483 -169 c 0
 216 -169 50 43 50 321 c 0
 50 538 50 778 62 1003 c 0
 67 1088 129 1171 238 1171 c 0
 330 1171 412 1092 407 1004 c 0
 400 867 396 747 396 644 c 0
 396 329 434 173 527 173 c 0
 657 173 726 389 776 637 c 0
 793 722 888 774 987 746 c 0
 1068 723 1111 630 1088 538 c 0
EndSplineSet
EndChar

StartChar: paragraph
Encoding: 182 182 367
GlifName: paragraph
Width: 1329
Flags: HMW
LayerCount: 2
Fore
SplineSet
630 1117 m 0
 684 1117 727 1074 727 1020 c 2
 727 -382 l 2
 727 -436 684 -479 630 -479 c 0
 576 -479 533 -436 533 -382 c 2
 533 1020 l 2
 533 1074 576 1117 630 1117 c 0
933 1057 m 0
 987 1057 1025 1014 1025 960 c 2
 1025 -442 l 2
 1025 -496 987 -539 933 -539 c 0
 879 -539 841 -496 841 -442 c 2
 841 960 l 2
 841 1014 879 1057 933 1057 c 0
1282 1017 m 0
 1211 956 1100 963 1039 1034 c 0
 964 1119 867 1174 725 1174 c 0
 515 1174 342 1007 342 811 c 0
 342 636 527 480 760 480 c 0
 817 480 875 490 929 510 c 0
 1016 543 1117 498 1150 411 c 0
 1183 324 1138 223 1051 190 c 0
 957 154 859 136 760 136 c 0
 403 136 -2 384 -2 811 c 0
 -2 1211 339 1518 725 1518 c 0
 969 1518 1168 1411 1299 1260 c 0
 1360 1189 1353 1078 1282 1017 c 0
EndSplineSet
EndChar

StartChar: uni00B9
Encoding: 185 185 369
GlifName: uni00B_9
Width: 536
Flags: HMW
LayerCount: 2
Fore
SplineSet
338 860 m 0
 295 862 262 903 264 946 c 2
 286 1292 l 1
 254 1278 228 1266 198 1254 c 0
 158 1238 113 1260 97 1300 c 0
 81 1340 102 1388 142 1404 c 0
 209 1431 268 1470 322 1518 c 0
 336 1530 355 1539 374 1539 c 0
 420 1539 459 1500 456 1454 c 2
 424 934 l 2
 422 891 381 858 338 860 c 0
EndSplineSet
EndChar

StartChar: onequarter
Encoding: 188 188 371
GlifName: onequarter
Width: 2016
Flags: HMW
LayerCount: 2
Fore
SplineSet
388 404 m 0
 324 408 276 465 280 528 c 1
 334 1347 l 1
 296 1327 261 1308 230 1290 c 0
 175 1258 99 1278 69 1330 c 0
 38 1384 58 1459 112 1490 c 0
 194 1538 279 1604 351 1672 c 0
 366 1686 404 1703 431 1703 c 2
 466 1703 l 2
 531 1703 586 1644 582 1579 c 2
 512 512 l 2
 508 448 451 400 388 404 c 0
1574 793 m 0
 1632 769 1663 702 1639 642 c 0
 1564 456 1414 201 1290 -3 c 1
 1486 2 1687 14 1829 50 c 0
 1890 64 1955 25 1969 -36 c 0
 1983 -97 1944 -162 1883 -176 c 0
 1649 -232 1313 -252 1065 -217 c 0
 1055 -216 1029 -208 1019 -202 c 0
 965 -168 946 -88 987 -33 c 0
 1099 118 1339 517 1423 728 c 0
 1447 786 1514 817 1574 793 c 0
1624 373 m 0
 1686 368 1734 308 1729 246 c 2
 1668 -379 l 2
 1663 -441 1603 -489 1541 -484 c 0
 1479 -479 1431 -419 1436 -357 c 2
 1497 268 l 2
 1502 330 1562 378 1624 373 c 0
415 -41 m 0
 369 2 366 79 409 125 c 0
 761 498 1206 1084 1420 1470 c 0
 1451 1525 1525 1546 1579 1516 c 0
 1634 1485 1654 1413 1624 1358 c 0
 1393 944 949 356 581 -35 c 0
 538 -82 461 -84 415 -41 c 0
EndSplineSet
EndChar

StartChar: onehalf
Encoding: 189 189 372
GlifName: onehalf
Width: 2070
Flags: HMW
LayerCount: 2
Fore
SplineSet
415 -41 m 0
 369 2 366 79 409 125 c 0
 761 498 1206 1084 1420 1470 c 0
 1451 1525 1525 1546 1579 1516 c 0
 1634 1485 1654 1413 1624 1358 c 0
 1393 944 949 356 581 -35 c 0
 538 -82 461 -84 415 -41 c 0
388 404 m 0
 324 408 276 465 280 528 c 2
 334 1347 l 1
 296 1327 261 1308 230 1290 c 0
 175 1258 99 1278 69 1330 c 0
 38 1384 58 1459 112 1490 c 0
 194 1538 279 1604 351 1672 c 0
 366 1686 404 1703 431 1703 c 2
 466 1703 l 2
 531 1703 586 1644 582 1579 c 2
 512 512 l 2
 508 448 451 400 388 404 c 0
1752 413 m 0
 1752 495 1690 550 1591 550 c 0
 1490 550 1429 481 1429 366 c 0
 1429 297 1384 272 1311 272 c 0
 1232 272 1193 330 1193 413 c 0
 1193 641 1354 786 1595 786 c 0
 1826 786 1987 613 1987 407 c 0
 1987 204 1831 36 1631 -139 c 2
 1573 -190 l 1
 1598 -189 1624 -189 1650 -189 c 0
 1732 -189 1817 -192 1904 -197 c 0
 1967 -201 2016 -253 2016 -315 c 0
 2016 -381 1961 -435 1898 -432 c 0
 1786 -426 1702 -424 1624 -424 c 0
 1502 -424 1390 -431 1277 -441 c 0
 1169 -451 1122 -309 1196 -237 c 2
 1479 32 l 2
 1703 245 1752 316 1752 413 c 0
EndSplineSet
EndChar

StartChar: threequarters
Encoding: 190 190 373
GlifName: threequarters
Width: 2166
Flags: HMW
LayerCount: 2
Fore
SplineSet
198 1237 m 0
 136 1251 96 1315 110 1377 c 0
 152 1567 326 1675 489 1675 c 0
 660 1675 821 1539 821 1307 c 0
 821 1006 495 934 343 900 c 0
 281 886 217 926 203 988 c 0
 189 1050 229 1114 291 1128 c 0
 482 1171 589 1230 589 1327 c 0
 589 1396 539 1443 481 1443 c 0
 403 1443 352 1386 338 1325 c 0
 324 1263 260 1223 198 1237 c 0
851 829 m 1
 850 570 631 421 412 421 c 0
 301 421 187 458 96 532 c 0
 47 571 39 648 79 696 c 0
 119 745 196 751 244 712 c 0
 288 675 351 655 412 655 c 0
 532 655 618 706 618 808 c 1
 618 874 565 923 474 923 c 0
 438 923 393 914 346 901 c 0
 285 885 220 924 204 985 c 0
 188 1046 227 1111 288 1127 c 0
 337 1140 398 1157 474 1157 c 0
 652 1157 843 1044 851 829 c 1
565 -41 m 0
 520 2 516 79 559 125 c 0
 911 498 1356 1084 1570 1470 c 0
 1601 1525 1675 1546 1729 1516 c 0
 1784 1485 1804 1413 1774 1358 c 0
 1543 944 1099 356 731 -35 c 0
 688 -82 611 -84 565 -41 c 0
1724 793 m 0
 1782 769 1813 702 1789 642 c 0
 1714 456 1564 201 1440 -3 c 1
 1636 2 1837 14 1979 50 c 0
 2040 64 2105 25 2119 -36 c 0
 2133 -97 2094 -162 2033 -176 c 0
 1799 -232 1463 -252 1215 -217 c 0
 1205 -216 1179 -208 1169 -202 c 0
 1115 -168 1096 -88 1137 -33 c 0
 1249 118 1489 517 1573 728 c 0
 1597 786 1664 817 1724 793 c 0
1774 373 m 0
 1836 368 1884 308 1879 246 c 2
 1818 -379 l 2
 1813 -441 1753 -489 1691 -484 c 0
 1629 -479 1581 -419 1586 -357 c 2
 1647 268 l 2
 1652 330 1712 378 1774 373 c 0
EndSplineSet
EndChar

StartChar: Eth
Encoding: 208 208 390
GlifName: E_th
Width: 1341
Flags: HMW
LayerCount: 2
Fore
SplineSet
-54 685 m 0
 -60 763 0 834 78 840 c 0
 305 858 515 854 677 840 c 0
 754 834 814 762 808 684 c 0
 802 606 730 546 653 552 c 0
 507 564 310 568 100 552 c 0
 22 546 -48 607 -54 685 c 0
EndSplineSet
Refer: 16 68 N 1 0 0 1 150 0 2
EndChar

StartChar: multiply
Encoding: 215 215 397
GlifName: multiply
Width: 882
Flags: HMW
LayerCount: 2
Fore
SplineSet
56 1006 m 0
 113 1086 222 1109 298 1059 c 0
 430 971 569 844 678 725 c 0
 760 635 799 573 848 493 c 0
 895 416 871 306 792 249 c 0
 713 192 605 208 558 286 c 0
 546 305 482 405 415 483 c 0
 325.979570824 586.635723519 191 701 89 769 c 0
 13 819 -1 926 56 1006 c 0
62 265 m 0
 -6 323 -9 434 55 507 c 0
 168 636 284 752 406 864 c 0
 473 926 543 986 613 1045 c 0
 689 1108 797 1103 854 1033 c 0
 911 963 897 854 821 791 c 0
 753 734 688 678 627 622 c 0
 514 518 410 412 306 293 c 0
 242 220 130 207 62 265 c 0
EndSplineSet
EndChar

StartChar: germandbls
Encoding: 223 223 404
GlifName: germandbls
Width: 1134
Flags: HMW
LayerCount: 2
Fore
SplineSet
571 1518 m 0
 865 1518 1014 1260 1014 1060 c 0
 1014 897 948 772 842 688 c 0
 808 661 793 644 793 636 c 1
 793 624 810 616 826 608 c 0
 931 555 1146 438 1146 182 c 0
 1146 -86 846 -158 682 -158 c 0
 598 -158 506 -145 419 -96 c 0
 337 -50 308 55 354 137 c 0
 400 219 474 237 562 207 c 0
 593 197 645 182 684 182 c 0
 722 182 800 184 800 214 c 1
 800 227 757 259 671 304 c 0
 584 350 450 442 450 619 c 0
 450 775 542 887 626 956 c 0
 655 980 670 1024 670 1060 c 0
 670 1122 627 1174 571 1174 c 0
 532 1174 487 1152 466 989 c 0
 429 702 406 364 381 -8 c 0
 375 -102 292 -173 198 -167 c 0
 104 -161 33 -78 39 16 c 0
 64 388 87 730 126 1033 c 0
 163 1324 328 1518 571 1518 c 0
EndSplineSet
EndChar

StartChar: ae
Encoding: 230 230 411
GlifName: ae
Width: 1926
Flags: HMW
LayerCount: 2
Fore
SplineSet
1453 830 m 0
 1300 830 1146 676 1146 460 c 0
 1146 290 1212 186 1370 186 c 0
 1476 186 1557 214 1606 258 c 0
 1676 321 1785 316 1848 246 c 0
 1911 176 1906 67 1836 4 c 0
 1693 -126 1522 -156 1370 -156 c 0
 1068 -156 804 36 804 440 c 0
 804 790 1054 1172 1463 1172 c 0
 1639 1172 1870 1055 1870 805 c 0
 1870 584 1689 433 1615 389 c 0
 1405 264 1186 189 942 172 c 0
 848 166 765 237 759 331 c 0
 753 425 824.028320312 507.5703125 918 514 c 0
 1108 527 1286.76757812 575.389648438 1426.37988281 658.361328125 c 0
 1520 714 1538 751 1538 776 c 0
 1538 810 1508 830 1453 830 c 0
546 186 m 0
 684 186 770 292 804 543 c 2
 868 1009 l 2
 881 1103 969 1169 1062 1156 c 0
 1155 1143 1221 1054 1208 963 c 2
 1144 495 l 1
 1087 89 848 -156 541 -156 c 0
 236 -156 13 87 13 434 c 0
 13 837 309 1172 647 1172 c 0
 849 1172 1028 1055 1155 837 c 0
 1203 756 1166 647 1083 604 c 0
 1000 561 890 591 851 676 c 0
 807 775 731 830 643 830 c 0
 490 830 357 655 357 429 c 0
 357 268 425 186 546 186 c 0
EndSplineSet
EndChar

StartChar: oslash
Encoding: 248 248 428
GlifName: oslash
Width: 1144
Flags: HMW
LayerCount: 2
Fore
SplineSet
58 -206 m 0
 17 -179 1 -121 31 -84 c 2
 1012 1148 l 2
 1041 1184 1105 1177 1137 1143 c 0
 1169 1109 1163 1054 1134 1018 c 2
 179 -180 l 2
 148 -218 97 -232 58 -206 c 0
EndSplineSet
Refer: 5 111 N 1 0 0 1 26 0 2
EndChar

StartChar: thorn
Encoding: 254 254 434
GlifName: thorn
Width: 1191
Flags: HMW
LayerCount: 2
Fore
SplineSet
237 1532 m 0
 331 1530 407 1452 405 1358 c 2
 371 -368 l 2
 369 -462 291 -538 197 -536 c 0
 103 -534 27 -456 29 -362 c 2
 63 1364 l 2
 65 1458 143 1534 237 1532 c 0
EndSplineSet
Refer: 5 111 N 1 0 0 1 32 0 2
EndChar

StartChar: OE
Encoding: 338 338 436
GlifName: O_E_
Width: 2337
Flags: HMW
LayerCount: 2
Fore
SplineSet
1148 717 m 0
 1161 810 1250 875 1343 862 c 0
 1442 847 1559 836 1711 836 c 0
 1811 836 1908 840 1990 851 c 0
 2083 863 2170 796 2182 703 c 0
 2194 610 2127 523 2034 511 c 0
 1931 498 1821 492 1711 492 c 0
 1541 492 1414 505 1293 522 c 0
 1200 535 1135 624 1148 717 c 0
1161 143 m 0
 1182 235 1274 295 1366 274 c 0
 1527 238 1696 220 1859 220 c 0
 1960 220 2060 227 2152 241 c 0
 2245 255 2333 189 2347 96 c 0
 2361 3 2295 -85 2202 -99 c 0
 2092 -115 1978 -124 1859 -124 c 0
 1672 -124 1479 -104 1292 -62 c 0
 1200 -41 1140 51 1161 143 c 0
706 186 m 0
 1016 186 1128 472 1128 1065 c 0
 1128 1148 1126 1235 1122 1321 c 0
 1117 1435 1227 1511 1316 1499 c 0
 1548 1468 1738 1444 1899 1444 c 0
 1981 1444 2053 1450 2120 1466 c 0
 2212 1487 2305 1428 2326 1336 c 0
 2347 1244 2288 1151 2196 1130 c 0
 2097 1108 1999 1100 1899 1100 c 0
 1762 1100 1623 1114 1472 1133 c 1
 1472 1112 1472 1088 1472 1065 c 0
 1472 512 1364 -156 706 -156 c 0
 291 -156 -2 215 -2 643 c 0
 -2 1039 248 1518 709 1518 c 0
 911 1518 1067 1410 1161 1282 c 0
 1217 1207 1199 1099 1124 1043 c 0
 1049 987 941 1005 885 1080 c 0
 841 1140 785 1174 709 1174 c 0
 534 1174 342 943 342 643 c 0
 342 357 521 186 706 186 c 0
EndSplineSet
EndChar

StartChar: dotlessi
Encoding: 305 305 438
GlifName: dotlessi
Width: 475
Flags: HMW
LayerCount: 2
Fore
SplineSet
253 1142 m 0
 347 1138 420 1057 416 963 c 0
 405 736 402 208 402 0 c 0
 402 -94 324 -171 230 -171 c 0
 136 -171 59 -94 59 0 c 0
 59 212 63 736 74 979 c 0
 78 1073 159 1146 253 1142 c 0
EndSplineSet
EndChar

StartChar: uniE00A
Encoding: 57354 57354 439
GlifName: uniE_00A_
Width: 250
Flags: HMW
LayerCount: 2
Fore
SplineSet
-172 45 m 0
 -172 139 -94 216 0 216 c 2
 250 216 l 2
 344 216 422 139 422 45 c 0
 422 -49 344 -126 250 -126 c 2
 0 -126 l 2
 -94 -126 -172 -49 -172 45 c 0
EndSplineSet
EndChar

StartChar: uniE012
Encoding: 57362 57362 443
GlifName: uniE_012
Width: 0
Flags: HMW
LayerCount: 2
Fore
SplineSet
443 1719 m 0
 438 1672 398 1637 352 1643 c 0
 338 1645 324 1646 311 1646 c 0
 223 1646 152 1610 152 1557 c 0
 152 1527 193 1516 246 1503 c 0
 337 1481 460 1448 460 1294 c 0
 460 1158 325 1065 130 1065 c 0
 86 1065 50 1067 22 1070 c 0
 -25 1075 -59 1117 -53 1165 c 0
 -46 1214 -5 1247 43 1241 c 0
 70 1238 102 1235 135 1235 c 0
 211 1235 287 1248 287 1289 c 0
 287 1310 252 1321 205 1334 c 0
 114 1359 -20 1397 -20 1555 c 0
 -20 1700 127 1816 311 1816 c 0
 324 1816 344 1815 367 1813 c 0
 414 1809 448 1768 443 1719 c 0
EndSplineSet
EndChar

StartChar: uni0237
Encoding: 567 567 444
GlifName: uni0237
Width: 464
Flags: HMW
LayerCount: 2
Fore
SplineSet
236 1142 m 0
 330 1142 407 1065 407 971 c 0
 407 664 406 416 399 218 c 0
 384 -177 358 -586 -15 -586 c 0
 -109 -586 -186 -508 -186 -414 c 0
 -186 -320 -109 -242 -15 -242 c 0
 38 -242 48 -82 57 232 c 0
 62.4473174432 422.050853017 65 664 65 971 c 0
 65 1065 142 1142 236 1142 c 0
EndSplineSet
EndChar

StartChar: uniE014
Encoding: 57364 57364 446
GlifName: uniE_014
Width: 1693
Flags: HMW
LayerCount: 2
Fore
SplineSet
332 616 m 0
 332 425 560 216 752 216 c 0
 1152 216 1362 416 1362 760 c 0
 1362 963 1172 1190 831 1190 c 0
 593 1190 332 984 332 616 c 0
-12 616 m 0
 -12 1160 395 1532 831 1532 c 0
 1328 1532 1704 1181 1704 760 c 0
 1704 214 1298 -126 752 -126 c 0
 376 -126 -12 205 -12 616 c 0
EndSplineSet
EndChar

StartChar: uniE015
Encoding: 57365 57365 447
GlifName: uniE_015
Width: 1693
Flags: HMW
LayerCount: 2
Fore
SplineSet
1059 861 m 0
 1024 821 962 816 922 851 c 0
 900 871 879 880 848 880 c 0
 756 880 673 785 673 677 c 0
 673 587 704 542 802 542 c 0
 860 542 901 558 945 584 c 0
 990 612 1050 595 1078 550 c 0
 1106 505 1091 445 1046 417 c 0
 982 377 900 349 802 349 c 0
 592 349 477 504 477 677 c 0
 477 871 625 1073 848 1073 c 0
 926 1073 996 1044 1049 998 c 0
 1089 963 1094 901 1059 861 c 0
EndSplineSet
EndChar

StartChar: uniE016
Encoding: 57366 57366 448
GlifName: uniE_016
Width: 1667
Flags: HMW
LayerCount: 2
Fore
SplineSet
565 795 m 0
 523 827 514 888 546 930 c 0
 606 1012 703 1059 801 1059 c 0
 940 1059 1107 961 1107 784 c 0
 1107 700 1066 622 1003 575 c 1
 1033 555 1062 537 1093 521 c 0
 1139 495 1157 435 1131 389 c 0
 1105 343 1045 325 999 351 c 0
 907 402 808 469 735 559 c 0
 724 572 715 594 713 613 c 0
 709 668 755 718 811 718 c 0
 895 718 912 753 912 784 c 0
 912 816 870 863 801 863 c 0
 763 863 723 844 701 814 c 0
 669 772 607 763 565 795 c 0
723 949 m 0
 776 947 817 902 815 849 c 0
 809 706 797 556 783 420 c 0
 778 367 729 329 676 334 c 0
 623 339 585 389 590 442 c 0
 604 574 616 720 622 857 c 0
 624 910 670 951 723 949 c 0
EndSplineSet
EndChar

StartChar: uniFB00
Encoding: 64256 64256 449
GlifName: uniF_B_00
Width: 1426
Flags: HMW
LayerCount: 2
Fore
SplineSet
544 1780 m 0
 645 1780 716.841796875 1722.73730469 764 1668 c 0
 820 1603 810.809570312 1496.04296875 766.036132812 1443.76171875 c 0
 714 1383 673.943359375 1380.71191406 625.12890625 1390.39550781 c 0
 612 1393 599 1395 590 1395 c 0
 574 1395 566 1377 559 1294 c 0
 530.818359375 959.841796875 520 345 520 -4 c 0
 520 -98 442 -175 348 -175 c 0
 254 -175 177 -98 177 -4 c 0
 177 351 185 964 217 1323 c 0
 230 1476 283 1780 544 1780 c 0
669 1020 m 0
 869 1020 1071 1009 1272 986 c 0
 1365 975 1434 889 1423 796 c 0
 1412 703 1325 635 1232 646 c 0
 1045 667 859 676 669 676 c 0
 513 676 357 671 199 659 c 0
 105 653 21 723 15 817 c 0
 9 911 79 995 173 1001 c 0
 339 1013 505 1020 669 1020 c 0
1155 1780 m 0
 1256 1780 1327.84179688 1722.73730469 1375 1668 c 0
 1431 1603 1421.80957031 1496.04296875 1377.03613281 1443.76171875 c 0
 1325 1383 1284.94335938 1380.71191406 1236.12890625 1390.39550781 c 0
 1223 1393 1210 1395 1201 1395 c 0
 1185 1395 1177 1377 1170 1294 c 0
 1141.81835938 959.841796875 1131 345 1131 -4 c 0
 1131 -98 1053 -175 959 -175 c 0
 865 -175 788 -98 788 -4 c 0
 788 351 796 964 828 1323 c 0
 841 1476 894 1780 1155 1780 c 0
EndSplineSet
Ligature2: "'rlig' Required Ligatures in Latin lookup 8 subtable" f f
LCarets2: 1 0
EndChar

StartChar: uniFB05
Encoding: 64261 64261 450
GlifName: uniF_B_05
Width: 1365
Flags: HMW
LayerCount: 2
Fore
SplineSet
544 1780 m 0
 645 1780 716.841796875 1722.73730469 764 1668 c 0
 820 1603 810.809570312 1496.04296875 766.036132812 1443.76171875 c 0
 714 1383 673.943359375 1380.71191406 625.12890625 1390.39550781 c 0
 612 1393 599 1395 590 1395 c 0
 574 1395 566 1377 559 1294 c 0
 530.818359375 959.841796875 520 345 520 -4 c 0
 520 -98 442 -175 348 -175 c 0
 254 -175 177 -98 177 -4 c 0
 177 351 185 964 217 1323 c 0
 230 1476 283 1780 544 1780 c 0
676 1020 m 0
 858 1020 1042 1011 1212 990 c 0
 1305 978 1372 891 1360 798 c 0
 1348 705 1261 638 1168 650 c 0
 1018 669 848 676 676 676 c 0
 512 676 349 670 197 659 c 0
 103 653 20 724 14 818 c 0
 8 912 79 995 173 1001 c 0
 331 1012 504 1020 676 1020 c 0
997 1386 m 0
 1090 1375 1158 1289 1147 1196 c 0
 1114 913 1089 637 1089 355 c 0
 1089 265 1095 186 1113 186 c 0
 1124 186 1141 188 1157 191 c 0
 1249 208 1339 145 1356 54 c 0
 1373 -38 1311 -130 1219 -147 c 0
 1181 -154 1146 -156 1113 -156 c 0
 794 -156 747 189 747 355 c 0
 747 657 774 949 807 1236 c 0
 818 1329 904 1397 997 1386 c 0
EndSplineSet
Ligature2: "'rlig' Required Ligatures in Latin lookup 8 subtable" f t
LCarets2: 1 0
EndChar

StartChar: uniE030
Encoding: 57392 57392 451
GlifName: uniE_030
Width: 0
Flags: HMW
LayerCount: 2
Fore
SplineSet
-48 1178 m 0
 -43 1220 -3 1250 38 1244 c 0
 106 1235 164 1231 221 1231 c 0
 311 1231 444 1235 444 1302 c 0
 444 1325 424 1353 389 1353 c 0
 332 1353 270 1296 221 1193 c 0
 204 1157 160 1141 124 1158 c 0
 88 1175 72 1220 89 1256 c 0
 164 1414 282 1508 408 1508 c 0
 520 1508 598 1434 598 1317 c 0
 598 1136 422 1077 209 1077 c 0
 150 1077 84 1082 18 1091 c 0
 -23 1097 -53 1136 -48 1178 c 0
106 1654 m 0
 100 1695 134 1733 171 1738 c 0
 218 1745 254 1710 260 1669 c 0
 268 1619 276 1541 276 1480 c 0
 276 1397 272 1329 268 1289 c 0
 264 1248 220 1221 183 1225 c 0
 136 1230 111 1274 116 1315 c 0
 120 1345 121 1379 121 1420 c 0
 121 1509 113 1604 106 1654 c 0
EndSplineSet
Colour: ff00ff
EndChar

StartChar: uniE031
Encoding: 57393 57393 452
GlifName: uniE_031
Width: 883
Flags: HMW
LayerCount: 2
Fore
SplineSet
56 -64 m 0
 21 -8 40 69 96 104 c 0
 291 223 492 301 700 341 c 0
 765 353 831 309 843 244 c 0
 855 179 811 113 746 101 c 0
 564 66 391 -2 224 -104 c 0
 168 -139 91 -120 56 -64 c 0
65 423 m 0
 65 655 245 823 463 823 c 0
 532 823 605 806 677 769 c 0
 740 737 770 669 746 611 c 0
 719 545 642 511 588 542 c 0
 540 570 495 582 455 582 c 0
 367 582 307 522 307 435 c 0
 307 347 367 316 481 316 c 0
 541 316 615 324 708 342 c 0
 771 354 835 304 844 236 c 0
 853 170 804 109 738 100 c 0
 641 89 523 80 464 80 c 0
 224 80 65 203 65 423 c 0
EndSplineSet
Colour: ff00ff
EndChar

StartChar: uniE032
Encoding: 57394 57394 453
GlifName: uniE_032
Width: 522
Flags: HMW
LayerCount: 2
Fore
SplineSet
110 1123 m 0
 98 1216 164 1304 257 1316 c 0
 350 1328 438 1262 450 1169 c 0
 481 941 496 706 496 475 c 0
 496 321 489 164 475 -13 c 0
 467 -106 384 -178 290 -170 c 0
 197 -162 125 -79 133 15 c 0
 146 163 152 315 152 468 c 0
 152 696 138 916 110 1123 c 0
-125 1361 m 0
 -173 1409 -189 1494 -144 1554 c 0
 -72 1649 28 1763 148 1763 c 0
 196 1763 252 1749 297 1725 c 0
 331 1707 363 1697 396 1697 c 0
 458 1697 497 1734 535 1772 c 0
 589 1826 680 1823 735 1774 c 0
 790 1724 800 1634 748 1573 c 0
 665 1475 546 1409 421 1409 c 0
 368 1409 320 1419 249 1444 c 0
 218 1455 200 1461 183 1461 c 0
 139 1461 109 1421 87 1390 c 0
 38 1322 -58 1296 -125 1361 c 0
EndSplineSet
Colour: ff00ff
EndChar

StartChar: uniE033
Encoding: 57395 57395 454
GlifName: uniE_033
Width: 497
Flags: HMW
LayerCount: 2
Fore
SplineSet
71 1143 m 0
 59 1236 125 1324 218 1336 c 0
 311 1348 399 1282 411 1189 c 0
 447 918 457 773 457 550 c 0
 457 353 449 151 436 -13 c 0
 428 -106 344 -178 250 -170 c 0
 156 -162 86 -78 94 15 c 0
 107 180 115 378 115 568 c 0
 115 764 106 877 71 1143 c 0
EndSplineSet
Colour: ff00ff
EndChar

StartChar: uniE034
Encoding: 57396 57396 455
GlifName: uniE_034
Width: 1310
Flags: HMW
LayerCount: 2
Fore
SplineSet
406.048828125 961 m 0
 607 961 840 764 1144 683 c 0
 1242.10257278 656.244752877 1297 593.094771242 1297 507 c 0
 1297 421.228647061 1219.82625299 350.647632209 1098 325 c 0
 627.108130722 225.864869626 354 45.6267526723 354 -166.00390625 c 0
 354 -312.594985475 485.949360382 -403 699.904296875 -403 c 0
 808.224067004 -403 925.413004059 -379.699762954 1057 -332 c 0
 1149.35577683 -299.293368832 1242.5605407 -335.727958347 1277 -418 c 0
 1312.80045351 -503.523305619 1272.47643312 -604.781401274 1187 -644 c 0
 1049.43803548 -708.00452516 890.56122449 -742 729 -742 c 0
 298.323181416 -742 19 -514.123627425 19 -162.770507812 c 0
 19 125.365497232 206.802536733 327.412551982 662 529 c 1
 566.467350306 579.096389474 492.966042891 607 456.5390625 607 c 0
 423.059768908 607 399.357708146 583.484356905 388 539 c 0
 362.803155881 448.291361173 267.310099171 391.178288978 179 414 c 0
 88.6554753687 437.088045184 31.0873762222 533.341906956 54 623 c 0
 104.919633624 829.796063087 241.577007103 961 406.048828125 961 c 0
EndSplineSet
Colour: ff00ff
EndChar

StartChar: uniE035
Encoding: 57397 57397 456
GlifName: uniE_035
Width: 955
Flags: HMW
LayerCount: 2
Fore
SplineSet
22 77 m 0
 42 167 137 227 227 207 c 0
 285 195 364 187 414 187 c 0
 526 187 594 228 594 297 c 0
 594 368 507 501 349 642 c 0
 279 704 273 815 335 885 c 0
 397 955 508 962 578 900 c 0
 835 671 938 486 938 303 c 0
 938 33 717 -155 390 -155 c 0
 318 -155 239 -145 153 -127 c 0
 63 -107 3 -13 22 77 c 0
EndSplineSet
Colour: ff00ff
EndChar

StartChar: uniE036
Encoding: 57398 57398 457
GlifName: uniE_036
Width: 795
Flags: HMW
LayerCount: 2
Fore
SplineSet
483 644 m 0
 593 684 687 611 708 527 c 0
 743 394 761 265 761 140 c 0
 761 -282 533 -545 215 -651 c 0
 113 -685 21 -622 -3 -540 c 0
 -34 -434 29 -351 105 -326 c 0
 302 -260 421 -120 421 140 c 0
 421 228 406 330 377 441 c 0
 350 542 415 619 483 644 c 0
EndSplineSet
Colour: ff00ff
EndChar

StartChar: uniE037
Encoding: 57399 57399 458
GlifName: uniE_037
Width: 2316
Flags: HMW
LayerCount: 2
Fore
SplineSet
17 -48 m 0
 17 75 48 212 117 392 c 0
 152 479 254 523 340 489 c 0
 427 454 471 353 437 267 c 0
 385 137 361 32 361 -48 c 0
 361 -219 465 -302 660 -302 c 0
 858 -302 976 -205 976 -28 c 0
 976 68 945 211 899 326 c 0
 865 413 910 516 996 550 c 0
 1082 584 1184 539 1218 452 c 0
 1285 279 1320 126 1320 -3 c 0
 1320 -373 1037 -644 664 -644 c 0
 268 -644 17 -418 17 -48 c 0
899 326 m 0
 865 413 909 516 996 550 c 0
 1083 584 1183 539 1218 452 c 0
 1298 248 1333 192 1391 192 c 0
 1452 192 1471 254 1493 420 c 0
 1503 503 1583 563 1668 553 c 0
 1751 543 1811 464 1800 379 c 0
 1759 69 1626 -152 1385 -152 c 0
 1177 -152 1030 -7 899 326 c 0
1485 293 m 0
 1485 345 1484 364 1493 421 c 0
 1504 504 1584 564 1669 553 c 0
 1753 542 1812 462 1800 378 c 0
 1792 326 1790 307 1790 268 c 0
 1790 227 1818 188 1874 188 c 0
 1926 188 1956 220 1956 275 c 0
 1956 339 1955 387 1945 444 c 0
 1929 536 1991 626 2083 642 c 0
 2175 658 2266 596 2282 504 c 0
 2299 402 2300 365 2300 253 c 0
 2300 24 2113 -156 1897 -156 c 0
 1653 -156 1485 84 1485 293 c 0
EndSplineSet
Colour: ff00ff
EndChar

StartChar: uniE038
Encoding: 57400 57400 459
GlifName: uniE_038
Width: 2360
Flags: HMW
LayerCount: 2
Fore
SplineSet
16 -49 m 0
 16 77 47 215 117 394 c 0
 152 481 254 525 340 491 c 0
 427 456 471 355 437 269 c 0
 386 137 360 31 360 -49 c 0
 360 -206 448 -302 660 -302 c 0
 845 -302 975 -216 975 -29 c 0
 975 61 945 203 898 326 c 0
 864 413 909 515 995 549 c 0
 1081 583 1183 538 1217 451 c 0
 1284 280 1319 127 1319 -4 c 0
 1319 -380 1028 -644 664 -644 c 0
 249 -644 16 -401 16 -49 c 0
899 325 m 0
 863 411 906 512 992 548 c 0
 1078 584 1180 542 1216 456 c 0
 1289 279 1452 186 1682 186 c 0
 1869 186 2002 261 2002 345 c 0
 2002 417 1948 459 1871 459 c 0
 1737 459 1607 314 1503 89 c 0
 1465 9 1367 -26 1286 12 c 0
 1205 50 1171 148 1209 228 c 0
 1371 575 1624 803 1913 803 c 0
 2162 803 2344 639 2344 380 c 0
 2344 80 2054 -156 1682 -156 c 0
 1313 -156 1026 18 899 325 c 0
EndSplineSet
Colour: ff00ff
EndChar

StartChar: uniE039
Encoding: 57401 57401 460
GlifName: uniE_039
Width: 1472
Flags: HMW
LayerCount: 2
Fore
SplineSet
20 68 m 0
 32 161 121 228 213 215 c 0
 363 195 492 186 618 186 c 0
 818 186 1114 196 1114 344 c 0
 1114 396 1070 458 992 458 c 0
 866 458 728 331 619 102 c 0
 581 22 484 -13 403 25 c 0
 322 63 288 161 326 241 c 0
 493 592 754 802 1034 802 c 0
 1284 802 1456 637 1456 378 c 0
 1456 -25 1066 -156 593 -156 c 0
 461 -156 313 -145 167 -125 c 0
 75 -112 8 -25 20 68 c 0
363 1194 m 0
 350 1286 426 1368 508 1380 c 0
 612 1395 691 1318 705 1227 c 0
 722 1115 740 898 740 740 c 0
 740 556 734 404 724 316 c 0
 714 224 617 163 535 173 c 0
 431 185 373 282 385 373 c 0
 393 439 396 514 396 606 c 0
 396 825 378 1082 363 1194 c 0
EndSplineSet
Colour: ff00ff
EndChar

StartChar: uniE03A
Encoding: 57402 57402 461
GlifName: uniE_03A_
Width: 1329
Flags: HMW
LayerCount: 2
Fore
SplineSet
39 -108 m 0
 39 304.022271715 441.026809651 638 937 638 c 0
 1031.2748538 638 1109 560.726744186 1109 467 c 0
 1109 373.273255814 1031.2748538 296 937 296 c 0
 643.971014493 296 383 100.97833935 383 -118 c 0
 383 -276.268292683 518.396 -368 752 -368 c 0
 875.661971831 -368 997.756052992 -342.123343993 1087 -297 c 0
 1170.57886266 -254.707081545 1276.28888889 -288.570899471 1318 -371 c 0
 1360.14086824 -454.278382483 1326.72347247 -558.143261252 1244 -601 c 0
 1106.30399742 -671.84359553 940.376146789 -710 770 -710 c 0
 338.464285714 -710 39 -463.382352941 39 -108 c 0
163 727 m 0
 163 1032.47169732 384.596868885 1268 672 1268 c 0
 775.948275862 1268 878.453134896 1238.27359088 972 1181 c 0
 1052.2589204 1133.43915828 1077.46598322 1025.73625349 1027 946 c 0
 980.50122081 872.53192888 883.002839255 849.90572219 790 891 c 0
 751.070422535 909.491549296 712.017857143 919 675 919 c 0
 573.61627907 919 505 849.576470588 505 747 c 0
 505 657.890710383 559.598425197 620 688 620 c 0
 721.1 620 760.138297872 622.957446809 820 630 c 0
 857.216216216 634.135135135 883.487341772 636.063291139 929 638 c 0
 1023.39855344 642.016959721 1104.01681711 568.604797824 1108 475 c 0
 1111.98437887 381.367096454 1038.36998626 301.01968012 944 296 c 0
 924 295 903 297 850 290 c 0
 804.444055944 284.702797203 761.875 282 724 282 c 0
 397.566315789 282 163 468.064189886 163 727 c 0
EndSplineSet
Colour: ff00ff
EndChar

StartChar: uniE03B
Encoding: 57403 57403 462
GlifName: uniE_03B_
Width: 668
Flags: HMW
LayerCount: 2
Back
SplineSet
-172 45 m 0
 -172 139 -94 216 0 216 c 2
 2716 216 l 2
 2810 216 2888 139 2888 45 c 0
 2888 -49 2810 -126 2716 -126 c 2
 0 -126 l 2
 -94 -126 -172 -49 -172 45 c 0
EndSplineSet
Fore
SplineSet
-172 45 m 0
 -172 139 -94 216 0 216 c 2
 668 216 l 2
 762 216 840 139 840 45 c 0
 840 -49 762 -126 668 -126 c 2
 0 -126 l 2
 -94 -126 -172 -49 -172 45 c 0
EndSplineSet
Colour: ffff
EndChar

StartChar: uniE03C
Encoding: 57404 57404 463
GlifName: uniE_03C_
Width: 1306
Flags: HMW
LayerCount: 2
Fore
SplineSet
19 -37 m 0
 19 129 71 259 132 380 c 0
 173 464 279 497 363 456 c 0
 447 415 480 310 439 226 c 0
 400 147 363 53 363 -37 c 0
 363 -179 457 -263 617 -263 c 0
 850 -263 922 -133 922 148 c 0
 922 486 902 809 874 1199 c 0
 868 1293 939 1376 1033 1382 c 0
 1127 1388 1210 1317 1216 1223 c 0
 1244 833 1266 502 1266 148 c 0
 1266 -201 1092 -607 617 -607 c 0
 307 -607 19 -379 19 -37 c 0
EndSplineSet
Colour: ff00ff
EndChar

StartChar: uniE03D
Encoding: 57405 57405 464
GlifName: uniE_03D_
Width: 1210
Flags: HMW
LayerCount: 2
Fore
SplineSet
751 792 m 0
 1039 792 1189 562 1189 291 c 0
 1189 3 1000 -104 729 -104 c 0
 610 -104 494 -84 398 -67 c 0
 370 -62 364 -70 365 -92 c 2
 399 -688 l 2
 404.825867352 -790.124027701 327 -874 229 -874 c 0
 138 -874 64.123193402 -804.273735082 59 -713 c 2
 21 -36 l 2
 7 220 208 334 453 279 c 0
 554 256 653 236 747 236 c 0
 806 236 850 246 850 310 c 0
 850 377 828 452 751 452 c 0
 657 452 622 360 592 226 c 0
 574 147 514 89 427 92 c 0
 332 95 252 178 274 285 c 0
 322 523 462 792 751 792 c 0
EndSplineSet
Colour: ff00ff
EndChar

StartChar: uniE03E
Encoding: 57406 57406 465
GlifName: uniE_03E_
Width: 920
Flags: HMW
LayerCount: 2
Fore
SplineSet
19 242 m 0
 19 458 155 695 349 861 c 0
 420 922 529 912 590 841 c 0
 651 770 642 660 571 599 c 0
 437 485 363 334 363 264 c 0
 363 217 388 186 460 186 c 0
 542 186 565 214 565 266 c 0
 565 355 462 524 254 703 c 0
 183 764 175 874 236 945 c 0
 297 1016 407 1024 478 963 c 0
 716 757 907 505 907 257 c 0
 907 -23 701 -156 460 -156 c 0
 222 -156 19 -26 19 242 c 0
EndSplineSet
Colour: ff00ff
EndChar

StartChar: uniE03F
Encoding: 57407 57407 466
GlifName: uniE_03F_
Width: 948
Flags: HMW
LayerCount: 2
Fore
SplineSet
460 787 m 0
 729 787 920 521 920 173 c 0
 920 -251 582 -584 213 -653 c 0
 122 -670 30 -607 13 -515 c 0
 -4 -423 61 -340 150 -315 c 0
 445 -232 590 -42 590 160 c 0
 590 294 539 455 452 455 c 0
 399 455 352 386 352 294 c 0
 352 221 391 198 471 198 c 0
 520 198 564 207 599 215 c 0
 680 235 763 187 788 112 c 0
 817 23 762 -69 681 -90 c 0
 605 -108 537 -116 474 -116 c 0
 189 -116 33 15 33 280 c 0
 33 568 228 787 460 787 c 0
EndSplineSet
Colour: ff00ff
EndChar

StartChar: uniE040
Encoding: 57408 57408 467
GlifName: uniE_040
Width: 0
Flags: HMW
LayerCount: 2
Fore
SplineSet
-106 1203 m 0
 -117 1239 -105 1290 -57 1304 c 0
 81 1339 226 1440 226 1537 c 0
 226 1585 206 1602 182 1602 c 0
 148 1602 118 1554 118 1524 c 0
 118 1478 217 1458 365 1430 c 0
 417.224324915 1420.11972231 434 1374 428 1338 c 0
 421 1297 386 1271 334 1279 c 0
 74 1327 -18 1395 -18 1520 c 0
 -18 1640 86 1758 192 1758 c 0
 284 1758 371 1655 371 1536 c 0
 371 1378 195 1212 -12 1156 c 0
 -68 1140 -95 1168 -106 1203 c 0
-236 1564 m 0
 -236 1766 -62 1954 126 1968 c 0
 169 1970 210 1937 212 1894 c 0
 214 1851 181 1810 138 1808 c 0
 36 1799 -75 1678 -75 1558 c 0
 -75 1534 -72 1510 -63 1490 c 0
 -47 1450 -68 1405 -108 1389 c 0
 -148 1373 -193 1394 -209 1434 c 0
 -226 1476 -236 1522 -236 1564 c 0
EndSplineSet
Colour: ff00ff
EndChar

StartChar: uniE041
Encoding: 57409 57409 468
GlifName: uniE_041
Width: 0
Flags: HMW
LayerCount: 2
Fore
SplineSet
-61 1316 m 0
 -76 1356 -50 1402 -10 1417 c 2
 394 1561 l 2
 434 1576 481 1550 496 1510 c 0
 511 1470 486 1424 446 1409 c 2
 40 1265 l 2
 0 1250 -46 1276 -61 1316 c 0
EndSplineSet
Colour: ff00ff
EndChar

StartChar: uniE042
Encoding: 57410 57410 469
GlifName: uniE_042
Width: 0
Flags: HMW
LayerCount: 2
Fore
SplineSet
-106 1203 m 0
 -117 1239 -105 1290 -57 1304 c 0
 81 1339 226 1440 226 1537 c 0
 226 1585 206 1602 182 1602 c 0
 148 1602 118 1554 118 1524 c 0
 118 1478 217 1458 365 1430 c 0
 417.224324915 1420.11972231 434 1374 428 1338 c 0
 421 1297 386 1271 334 1279 c 0
 74 1327 -18 1395 -18 1520 c 0
 -18 1640 86 1758 192 1758 c 0
 284 1758 371 1655 371 1536 c 0
 371 1378 195 1212 -12 1156 c 0
 -68 1140 -95 1168 -106 1203 c 0
EndSplineSet
Colour: ff00ff
EndChar

StartChar: uniE043
Encoding: 57411 57411 470
GlifName: uniE_043
Width: 0
Flags: HMW
LayerCount: 2
Fore
SplineSet
-64 1353 m 0
 -64 1394.08984375 -57.5169760205 1456.68638396 -19 1538 c 0
 -1 1576 47 1594 87 1574 c 0
 125 1556 140.425230125 1507.18690757 123 1466 c 0
 101 1414 94 1395.05566406 94 1373 c 0
 94 1355.37402344 104.157226562 1344 118 1344 c 0
 147.51953125 1344 164.219726562 1377.27832031 167 1444 c 0
 168.583984375 1482.01953125 199 1516 237 1522 c 0
 281 1528 324.622070312 1491.98242188 327 1446 c 0
 330.735351562 1373.78222656 335.389648438 1343 363 1343 c 0
 380.544921875 1343 391 1361.7734375 391 1394 c 0
 391 1420.40039062 388.746874737 1465.07890763 380 1511 c 0
 372 1553 398 1596 440 1604 c 0
 482 1612 526.351732222 1586.06547278 534 1544 c 0
 544 1489 551 1438 551 1388 c 0
 551 1258.14355469 477.36418184 1183 376.458984375 1183 c 0
 309.886114133 1183 261.168945312 1224.33300781 245 1288 c 1
 229.061523438 1226.24023438 168.124704023 1184 102.275390625 1184 c 0
 6.48640741044 1184 -64 1237.85742188 -64 1353 c 0
EndSplineSet
Colour: ff00ff
EndChar

StartChar: uniE044
Encoding: 57412 57412 471
GlifName: uniE_044
Width: 0
Flags: HMW
LayerCount: 2
Fore
SplineSet
-43 1434 m 0
 -43 1562 56 1669 176 1669 c 0
 306 1669 393 1560 393 1452 c 0
 393 1322 297 1217 175 1217 c 0
 47 1217 -43 1323 -43 1434 c 0
117 1434 m 0
 117 1407 143 1377 175 1377 c 0
 201 1377 233 1398 233 1452 c 0
 233 1482 212 1509 176 1509 c 0
 152 1509 117 1484 117 1434 c 0
EndSplineSet
Colour: ff00ff
EndChar

StartChar: uniE045
Encoding: 57413 57413 472
GlifName: uniE_045
Width: 0
Flags: HMW
LayerCount: 2
Fore
SplineSet
-40 1297 m 0
 6 1379 88 1449 194 1449 c 0
 255 1449 299 1417 337 1398 c 0
 363 1384 389 1368 419 1368 c 0
 440 1368 470 1387 500 1451 c 0
 519 1490 567 1507 606 1488 c 0
 645 1469 661 1420 642 1381 c 0
 606 1307 540 1208 419 1208 c 0
 362 1208 319 1238 286 1254 c 0
 255 1268 226 1289 194 1289 c 0
 164 1289 128 1269 98 1219 c 0
 76 1181 28 1167 -10 1189 c 0
 -48 1211 -62 1259 -40 1297 c 0
EndSplineSet
Colour: ff00ff
EndChar

StartChar: uniE046
Encoding: 57414 57414 473
GlifName: uniE_046
Width: 0
Flags: HMW
LayerCount: 2
Fore
SplineSet
-62 1194 m 0
 -77 1233 -53 1282 -12 1296 c 2
 64 1322 l 1
 25 1365 6 1421 6 1488 c 0
 6 1625 96 1726 260 1726 c 0
 282 1726 308 1724 326.030273438 1721.01171875 c 0
 369.616724885 1713.78783631 401.330078125 1675.27441406 396.760742188 1634.51757812 c 0
 392.19140625 1593.76074219 351.740630757 1556.86455269 310.266601562 1563.78710938 c 0
 303 1565 294 1566 283 1566 c 0
 197 1566 162 1529 162 1477 c 0
 162 1429 197 1403 256 1403 c 0
 288 1403 310 1408 394 1437 c 0
 438 1452 486 1424 496 1380 c 0
 505 1340 482 1298 446 1287 c 1
 40 1144 l 2
 0 1130 -47 1153 -62 1194 c 0
EndSplineSet
Colour: ff00ff
EndChar

StartChar: uniE047
Encoding: 57415 57415 474
GlifName: uniE_047
Width: 0
Flags: HMW
LayerCount: 2
Fore
SplineSet
466 1480 m 0
 506 1455 519 1399 494 1358 c 2
 328 1088 l 2
 302 1045 212 1044 183 1081 c 2
 -9 1322 l 2
 -38 1359 -33 1417 5 1447 c 0
 42 1476 100 1470 129 1432 c 2
 244 1290 l 1
 342 1452 l 2
 367 1492 425 1505 466 1480 c 0
EndSplineSet
Colour: ff00ff
EndChar

StartChar: uniE048
Encoding: 57416 57416 475
GlifName: uniE_048
Width: 1782
Flags: HMW
LayerCount: 2
Fore
SplineSet
19 373 m 0
 19 469 31 572 77 663 c 0
 118 747 224 782 308 740 c 0
 391 699 419.409038394 615.227115183 384 509 c 0
 372 473 363 417 363 373 c 0
 363 255 523 186 874 186 c 0
 1208 186 1425 271 1425 383 c 0
 1425 439 1398 521 1390 542 c 0
 1351 636 1373 729 1454 776 c 0
 1535 823 1641 794 1688 712 c 0
 1741 620 1769 503 1769 383 c 0
 1769 -137 1118 -156 874 -156 c 0
 603 -156 19 -133 19 373 c 0
EndSplineSet
Colour: ff00ff
EndChar

StartChar: uniE049
Encoding: 57417 57417 476
GlifName: uniE_049
Width: 1500
Flags: HMW
LayerCount: 2
Fore
SplineSet
16 16 m 0
 16 182 54 342 116 498 c 0
 151 585 254 629 340 595 c 0
 427 560 471 459 437 373 c 0
 395 266 360 145 360 29 c 0
 360 -166 494 -257 740 -257 c 0
 1046 -257 1159 -151 1159 82 c 0
 1159 389 1094 500 1010 500 c 0
 946 500 904 432 904 340 c 0
 904 271 944 244 1024 244 c 0
 1073 244 1117 253 1152 261 c 0
 1233 280 1316 233 1341 158 c 0
 1371 69 1316 -23 1234 -44 c 0
 1158 -62 1090 -70 1027 -70 c 0
 742 -70 596 41 596 291 c 0
 596 620 775 844 1007 844 c 0
 1297 844 1487 616 1487 90 c 0
 1487 -315 1215 -599 744 -599 c 0
 299 -599 16 -352 16 16 c 0
EndSplineSet
Colour: ff00ff
EndChar

StartChar: uniE04A
Encoding: 57418 57418 477
GlifName: uniE_04A_
Width: 0
Flags: HMW
LayerCount: 2
Fore
SplineSet
-80 1223 m 0
 -61 1283 -54 1323 -54 1389 c 0
 -54 1455 -58 1499 -66 1575 c 0
 -70 1619 -38 1659 6 1663 c 0
 50 1667 90 1635 94 1591 c 0
 102 1513 106 1459 106 1389 c 0
 106 1313 98 1253 72 1175 c 0
 58 1135 12 1111 -28 1125 c 0
 -68 1139 -94 1183 -80 1223 c 0
EndSplineSet
Colour: ff00ff
EndChar

StartChar: uniE04B
Encoding: 57419 57419 478
GlifName: uniE_04B_
Width: 1777
Flags: HMW
LayerCount: 2
Fore
SplineSet
16 375 m 0
 16 491 36 589 74 663 c 0
 115 747 221 782 305 739 c 0
 388 697 417 614 382 508 c 0
 375 487 360 429 360 367 c 0
 360 253 494 186 867 186 c 0
 1367 186 1429 246 1429 455 c 0
 1429 767 1364 867 1285 867 c 0
 1227 867 1173 808 1173 714 c 0
 1173 641 1212 611 1296 611 c 0
 1341 611 1384 621 1419 630 c 0
 1499.57721512 650.719855315 1584 602 1609 527 c 0
 1639 438 1583 345 1501 324 c 0
 1424 306 1358 298 1295 298 c 0
 1009 298 865 411 865 671 c 0
 865 991 1048 1212 1277 1212 c 0
 1563 1212 1755 928 1755 462 c 0
 1755 46 1503 -156 867 -156 c 0
 225 -156 16 38 16 375 c 0
EndSplineSet
Colour: ff00ff
EndChar

StartChar: uniE04C
Encoding: 57420 57420 479
GlifName: uniE_04C_
Width: 1904
Flags: HMW
LayerCount: 2
Fore
SplineSet
16 381 m 0
 16 492 37 591 75 663 c 0
 116 747 222 782 306 739 c 0
 389 697 415 615 382 508 c 0
 370 474 360 409 360 367 c 0
 360 232 477 186 804 186 c 0
 1128 186 1283 234 1283 314 c 0
 1283 393 1160 567 970 763 c 0
 901 835 866 872 866 954 c 0
 866 1029 913 1095 992 1120 c 2
 1671 1344 l 2
 1783 1380 1880 1341 1908 1241 c 0
 1936 1137 1890 1056 1800 1030 c 2
 1319 887 l 1
 1554 612 1627 475 1627 307 c 0
 1627 9 1349 -156 807 -156 c 0
 261 -156 16 9 16 381 c 0
EndSplineSet
Colour: ff00ff
EndChar

StartChar: uniE04D
Encoding: 57421 57421 480
GlifName: uniE_04D_
Width: 1440
Flags: HMW
LayerCount: 2
Fore
SplineSet
714 -596 m 0
 301 -596 19 -338 19 9 c 0
 19 153 53 317 105 454 c 0
 139 541 239 587 326 553 c 0
 413 519 459 419 425 332 c 0
 390 242 363 127 363 41 c 0
 363 -145 483 -254 716 -254 c 0
 949 -254 1083 -146 1083 47 c 0
 1083 145 1050 257 1001 370 c 0
 964 456 1005 558 1091 595 c 0
 1177 632 1280 590 1317 504 c 0
 1386 343 1427 175 1427 16 c 0
 1427 -337 1128 -596 714 -596 c 0
EndSplineSet
Colour: ff00ff
EndChar

StartChar: uniE04E
Encoding: 57422 57422 481
GlifName: uniE_04E_
Width: 1454
Flags: HMW
LayerCount: 2
Fore
SplineSet
18 2 m 0
 18 112 35 209 68 346 c 0
 90 436 184 495 274 473 c 0
 364 451 424 357 402 267 c 0
 377 161 362 77 362 -12 c 0
 362 -198 449 -255 723 -255 c 0
 1003 -255 1113 -183 1113 -128 c 0
 1113 -92 1059 -82 982 -78 c 0
 803.699186992 -68.2590673575 500 -41.9585492228 500 298 c 0
 500 585.090252708 750.28650647 862 1031 862 c 0
 1120 862 1176 852 1257 829 c 0
 1342 803 1397 704 1371 618 c 0
 1345 532 1253 476 1168 505 c 0
 1128 518 1072 523 1033 523 c 0
 927 523 837 447 837 334 c 0
 837 263 922 249 1032 240 c 0
 1204 225 1437 187 1437 -117 c 0
 1437 -377 1106 -596 714 -596 c 0
 251 -596 18 -362 18 2 c 0
EndSplineSet
Colour: ff00ff
EndChar

StartChar: uniE04F
Encoding: 57423 57423 482
GlifName: uniE_04F_
Width: 1937
Flags: HMW
LayerCount: 2
Back
SplineSet
19 414 m 0
 19 498 36 584 64 674 c 0
 92 763 189 814 278 786 c 0
 367 758 418 661 390 572 c 0
 370 508 363 454 363 414 c 0
 363 288 429 186 742 186 c 0
 1185 186 1376 319 1429 579 c 0
 1445 661 1521 726 1614 715 c 0
 1703 705 1774 624 1768 534 c 0
 1765 488 1763 447 1763 409 c 0
 1763 291 1804 216 1936 216 c 2
 3985 216 l 2
 4079 216 4155 139 4155 45 c 0
 4155 -49 4079 -126 3985 -126 c 2
 1936 -126 l 2
 1757 -126 1631 -31 1567 117 c 1
 1354 -88 1049 -156 742 -156 c 0
 347 -156 19 34 19 414 c 0
EndSplineSet
Fore
SplineSet
19 414 m 0
 19 498 36 584 64 674 c 0
 92 763 189 814 278 786 c 0
 367 758 418 661 390 572 c 0
 370 508 363 454 363 414 c 0
 363 288 429 186 742 186 c 0
 1185 186 1376 319 1429 579 c 0
 1445 661 1521 726 1614 715 c 0
 1703 705 1774 624 1768 534 c 0
 1765 488 1763 447 1763 409 c 0
 1763 291 1804 216 1936 216 c 2
 1937 216 l 2
 2031 216 2107 139 2107 45 c 0
 2107 -49 2031 -126 1937 -126 c 2
 1936 -126 l 2
 1757 -126 1631 -31 1567 117 c 1
 1354 -88 1049 -156 742 -156 c 0
 347 -156 19 34 19 414 c 0
EndSplineSet
Colour: ffff
EndChar

StartChar: uniE050
Encoding: 57424 57424 483
GlifName: uniE_050
Width: 924
Flags: HMW
LayerCount: 2
Fore
SplineSet
-171 45 m 0
 -171 139 -94 216 0 216 c 0
 291 216 440 226 514 276 c 0
 567 312 581 368 581 455 c 0
 581 767 516 867 437 867 c 0
 379 867 325 808 325 714 c 0
 325 641 364 611 448 611 c 0
 493 611 536 621 571 630 c 0
 652 651 736 602 761 527 c 0
 791 438 735 345 653 324 c 0
 576 306 510 298 447 298 c 0
 161 298 17 411 17 671 c 0
 17 991 200 1212 429 1212 c 0
 715 1212 907 928 907 462 c 0
 907 282 864 139 755 45 c 0
 612 -79 361 -126 0 -126 c 0
 -94 -126 -171 -49 -171 45 c 0
EndSplineSet
Colour: ff00ff
EndChar

StartChar: uniE051
Encoding: 57425 57425 484
GlifName: uniE_051
Width: 944
Flags: HMW
LayerCount: 2
Back
SplineSet
-171 45 m 0
 -171 139 -94 216 0 216 c 0
 391 216 579 295 579 480 c 0
 579 558 540 614 471 614 c 0
 402 614 365 559 365 480 c 0
 365 295 554 216 943 216 c 2
 2992 216 l 2
 3086 216 3162 139 3162 45 c 0
 3162 -49 3086 -126 2992 -126 c 2
 943 -126 l 2
 462 -126 23 163 23 480 c 0
 23 746 215 958 471 958 c 0
 727 958 921 746 921 480 c 0
 921 162 484 -126 0 -126 c 0
 -94 -126 -171 -49 -171 45 c 0
EndSplineSet
Fore
SplineSet
-171 45 m 0
 -171 139 -94 216 0 216 c 0
 391 216 579 295 579 480 c 0
 579 558 540 614 471 614 c 0
 402 614 365 559 365 480 c 0
 365 295 554 216 943 216 c 2
 944 216 l 2
 1038 216 1114 139 1114 45 c 0
 1114 -49 1038 -126 944 -126 c 2
 943 -126 l 2
 462 -126 23 163 23 480 c 0
 23 746 215 958 471 958 c 0
 727 958 921 746 921 480 c 0
 921 162 484 -126 0 -126 c 0
 -94 -126 -171 -49 -171 45 c 0
EndSplineSet
Colour: ffff
EndChar

StartChar: uniE052
Encoding: 57426 57426 485
GlifName: uniE_052
Width: 645
Flags: HMW
LayerCount: 2
Fore
SplineSet
-30 1536 m 0
 26 1731 161 1849 327 1849 c 0
 409 1849 492 1809 561 1774 c 0
 612 1748 656 1726 688 1726 c 0
 716 1726 724 1733 735 1765 c 0
 770 1855 857 1905 941 1882 c 0
 1021 1859 1062 1781 1047 1683 c 0
 1022 1499 890 1382 713 1382 c 0
 615 1382 531 1430 468 1467 c 0
 431 1489 402 1507 380 1507 c 0
 336 1507 322 1490 290 1411 c 0
 257 1324 155 1280 68 1314 c 0
 -16 1347 -57 1441 -30 1536 c 0
230 1143 m 0
 218 1236 284 1324 377 1336 c 0
 470 1348 558 1282 570 1189 c 0
 606 916 616 771 616 531 c 0
 616 349 608 148 595 -13 c 0
 587 -106 504 -178 410 -170 c 0
 317 -162 245 -79 253 15 c 0
 266 173 274 370 274 531 c 0
 274 761 266 872 230 1143 c 0
EndSplineSet
Colour: ff00ff
EndChar

StartChar: uniE054
Encoding: 57428 57428 486
GlifName: uniE_054
Width: 2019
Flags: HMW
LayerCount: 2
Back
SplineSet
16 381 m 0
 16 492 37 591 75 663 c 0
 116 747 222 782 306 739 c 0
 389 697 415 615 382 508 c 0
 370 474 360 409 360 367 c 0
 360 232 477 186 804 186 c 0
 1128 186 1283 234 1283 314 c 0
 1283 393 1160 567 970 763 c 0
 901 835 866 872 866 954 c 0
 866 1029 913 1095 992 1120 c 2
 1671 1344 l 2
 1783 1380 1880 1341 1908 1241 c 0
 1936 1137 1890 1056 1800 1030 c 2
 1319 887 l 1
 1554 612 1627 475 1627 307 c 0
 1627 9 1349 -156 807 -156 c 0
 261 -156 16 9 16 381 c 0
1274 374 m 0
 1222 456 1238 559 1315 613 c 0
 1392 667 1508 653 1554 570 c 0
 1696 320 1769 216 2018 216 c 2
 4067 216 l 2
 4161 216 4237 139 4237 45 c 0
 4237 -49 4161 -126 4067 -126 c 2
 2018 -126 l 2
 1674 -126 1483 55 1274 374 c 0
EndSplineSet
Fore
SplineSet
16 381 m 0
 16 492 37 591 75 663 c 0
 116 747 222 782 306 739 c 0
 389 697 415 615 382 508 c 0
 370 474 360 409 360 367 c 0
 360 232 477 186 804 186 c 0
 1128 186 1283 234 1283 314 c 0
 1283 393 1160 567 970 763 c 0
 901 835 866 872 866 954 c 0
 866 1029 913 1095 992 1120 c 2
 1671 1344 l 2
 1783 1380 1880 1341 1908 1241 c 0
 1936 1137 1890 1056 1800 1030 c 2
 1319 887 l 1
 1554 612 1627 475 1627 307 c 0
 1627 9 1349 -156 807 -156 c 0
 261 -156 16 9 16 381 c 0
1274 374 m 0
 1222 456 1238 559 1315 613 c 0
 1392 667 1508 653 1554 570 c 0
 1696 320 1769 216 2018 216 c 2
 2019 216 l 2
 2113 216 2189 139 2189 45 c 0
 2189 -49 2113 -126 2019 -126 c 2
 2018 -126 l 2
 1674 -126 1483 55 1274 374 c 0
EndSplineSet
Colour: ffff
EndChar

StartChar: uniE055
Encoding: 57429 57429 487
GlifName: uniE_055
Width: 560
Flags: HMW
LayerCount: 2
Fore
SplineSet
-171 45 m 0
 -171 139 -94 216 0 216 c 0
 150 216 199 247 199 363 c 0
 199 408 194 466 185 540 c 0
 174 633 240 720 333 732 c 0
 426 744 510 678 525 585 c 0
 540 489 546 427 546 361 c 0
 546 60 353 -126 0 -126 c 0
 -94 -126 -171 -49 -171 45 c 0
EndSplineSet
Colour: ff00ff
EndChar

StartChar: uniE056
Encoding: 57430 57430 488
GlifName: uniE_056
Width: 811
Flags: HMW
LayerCount: 2
Back
SplineSet
-172 45 m 0
 -172 139 -94 216 0 216 c 0
 240.985307994 216 257.224609375 285.926757812 269 492 c 0
 275 597 357 660 453 654 c 0
 548 648 619 564 612 472 c 0
 594 288 649 216 810 216 c 2
 2859 216 l 2
 2953 216 3029 139 3029 45 c 0
 3029 -49 2953 -126 2859 -126 c 2
 810 -126 l 2
 654 -126 523 -75 436 54 c 1
 322 -88 180 -126 0 -126 c 0
 -94 -126 -172 -49 -172 45 c 0
EndSplineSet
Fore
SplineSet
-172 45 m 0
 -172 139 -94 216 0 216 c 0
 240.985307994 216 257.224609375 285.926757812 269 492 c 0
 275 597 357 660 453 654 c 0
 548 648 619 564 612 472 c 0
 594 288 649 216 810 216 c 2
 811 216 l 2
 905 216 981 139 981 45 c 0
 981 -49 905 -126 811 -126 c 2
 810 -126 l 2
 654 -126 523 -75 436 54 c 1
 322 -88 180 -126 0 -126 c 0
 -94 -126 -172 -49 -172 45 c 0
EndSplineSet
Colour: ffff
EndChar

StartChar: uniE057
Encoding: 57431 57431 489
GlifName: uniE_057
Width: 1390
Flags: HMW
LayerCount: 2
Back
SplineSet
17 -84 m 0
 17 116 54 268 131 478 c 0
 163 566 263 612 351 580 c 0
 439 548 485 448 453 360 c 0
 392 191 361 43 361 -75 c 0
 361 -274 478 -338 715 -338 c 0
 912 -338 1039 -295 1039 -232 c 0
 1039 -182 940 -147 763 -125 c 0
 683 -115 619 -49 613 32 c 0
 605 130 685 216 784 216 c 2
 3438 216 l 2
 3532 216 3608 139 3608 45 c 0
 3608 -49 3532 -126 3438 -126 c 2
 1328 -126 l 1
 1352 -186 1363 -239 1363 -288 c 0
 1363 -507 1087 -682 702 -682 c 0
 291 -682 17 -446 17 -84 c 0
EndSplineSet
Fore
SplineSet
17 -84 m 0
 17 116 54 268 131 478 c 0
 163 566 263 612 351 580 c 0
 439 548 485 448 453 360 c 0
 392 191 361 43 361 -75 c 0
 361 -274 478 -338 715 -338 c 0
 912 -338 1039 -295 1039 -232 c 0
 1039 -182 940 -147 763 -125 c 0
 683 -115 619 -49 613 32 c 0
 605 130 685 216 784 216 c 2
 1390 216 l 2
 1484 216 1560 139 1560 45 c 0
 1560 -49 1484 -126 1390 -126 c 2
 1328 -126 l 1
 1352 -186 1363 -239 1363 -288 c 0
 1363 -507 1087 -682 702 -682 c 0
 291 -682 17 -446 17 -84 c 0
EndSplineSet
Colour: ffff
EndChar

StartChar: uniE05F
Encoding: 57439 57439 490
GlifName: uniE_05F_
Width: 574
Flags: HMW
LayerCount: 2
Back
SplineSet
75 374 m 0
 75 643 86 842 72 1155 c 0
 69 1249 143 1330 236 1334 c 0
 329 1338 411 1263 415 1169 c 0
 429 862 417 655 417 379 c 0
 417 259 459 216 573 216 c 2
 2622 216 l 2
 2716 216 2792 139 2792 45 c 0
 2792 -49 2716 -126 2622 -126 c 2
 573 -126 l 2
 272 -126 75 13 75 374 c 0
EndSplineSet
Fore
SplineSet
75 374 m 0
 75 643 86 842 72 1155 c 0
 69 1249 143 1330 236 1334 c 0
 329 1338 411 1263 415 1169 c 0
 429 862 417 655 417 379 c 0
 417 259 459 216 573 216 c 2
 574 216 l 2
 668 216 744 139 744 45 c 0
 744 -49 668 -126 574 -126 c 2
 573 -126 l 2
 272 -126 75 13 75 374 c 0
EndSplineSet
Colour: ffff
EndChar

StartChar: uniE060
Encoding: 57440 57440 491
GlifName: uniE_060
Width: 1392
Flags: HMW
LayerCount: 2
Back
SplineSet
406.048828125 961 m 0
 607 961 840 764 1144 683 c 0
 1242.10257278 656.244752877 1297 593.094771242 1297 507 c 0
 1297 421.228647061 1219.82625299 350.647632209 1098 325 c 0
 627.108130722 225.864869626 354 45.6267526723 354 -166.00390625 c 0
 354 -312.594985475 485.949360382 -403 699.904296875 -403 c 0
 808.224067004 -403 925.413004059 -379.699762954 1057 -332 c 0
 1149.35577683 -299.293368832 1242.5605407 -335.727958347 1277 -418 c 0
 1312.80045351 -503.523305619 1272.47643312 -604.781401274 1187 -644 c 0
 1049.43803548 -708.00452516 890.56122449 -742 729 -742 c 0
 298.323181416 -742 19 -514.123627425 19 -162.770507812 c 0
 19 125.365497232 206.802536733 327.412551982 662 529 c 1
 566.467350306 579.096389474 492.966042891 607 456.5390625 607 c 0
 423.059768908 607 399.357708146 583.484356905 388 539 c 0
 362.803155881 448.291361173 267.310099171 391.178288978 179 414 c 0
 88.6554753687 437.088045184 31.0873762222 533.341906956 54 623 c 0
 104.919633624 829.796063087 241.577007103 961 406.048828125 961 c 0
799 375 m 0
 784 482 852 556 933 572 c 0
 1050 595 1110 527 1128 442 c 0
 1177 240 1198 216 1391 216 c 2
 3440 216 l 2
 3534 216 3610 139 3610 45 c 0
 3610 -49 3534 -126 3440 -126 c 2
 1391 -126 l 2
 1041 -126 849 42 799 375 c 0
EndSplineSet
Fore
SplineSet
406.048828125 961 m 0
 607 961 840 764 1144 683 c 0
 1242.10257278 656.244752877 1297 593.094771242 1297 507 c 0
 1297 421.228647061 1219.82625299 350.647632209 1098 325 c 0
 627.108130722 225.864869626 354 45.6267526723 354 -166.00390625 c 0
 354 -312.594985475 485.949360382 -403 699.904296875 -403 c 0
 808.224067004 -403 925.413004059 -379.699762954 1057 -332 c 0
 1149.35577683 -299.293368832 1242.5605407 -335.727958347 1277 -418 c 0
 1312.80045351 -503.523305619 1272.47643312 -604.781401274 1187 -644 c 0
 1049.43803548 -708.00452516 890.56122449 -742 729 -742 c 0
 298.323181416 -742 19 -514.123627425 19 -162.770507812 c 0
 19 125.365497232 206.802536733 327.412551982 662 529 c 1
 566.467350306 579.096389474 492.966042891 607 456.5390625 607 c 0
 423.059768908 607 399.357708146 583.484356905 388 539 c 0
 362.803155881 448.291361173 267.310099171 391.178288978 179 414 c 0
 88.6554753687 437.088045184 31.0873762222 533.341906956 54 623 c 0
 104.919633624 829.796063087 241.577007103 961 406.048828125 961 c 0
799 375 m 0
 784 482 852 556 933 572 c 0
 1050 595 1110 527 1128 442 c 0
 1177 240 1198 216 1391 216 c 2
 1392 216 l 2
 1486 216 1562 139 1562 45 c 0
 1562 -49 1486 -126 1392 -126 c 2
 1391 -126 l 2
 1041 -126 849 42 799 375 c 0
EndSplineSet
Colour: ffff
EndChar

StartChar: uniE061
Encoding: 57441 57441 492
GlifName: uniE_061
Width: 1299
Flags: HMW
LayerCount: 2
Fore
SplineSet
388 894 m 0
 525 894 677 817 814 746 c 0
 906 698 1023 645 1170 583 c 0
 1230 558 1274 491 1274 426 c 0
 1274 366 1244 313 1194 281 c 0
 814 41 429 -126 0 -126 c 0
 -95 -126 -172 -46 -172 45 c 0
 -172 136 -95 216 0 216 c 0
 242 216 485 283 726 406 c 1
 680 429 634 452 588 478 c 0
 518 517 463 546 422 546 c 0
 370 546 357 520 325 440 c 0
 296 367 175 307 77 371 c 0
 14 412 -22 503 17 587 c 0
 99 763 196 894 388 894 c 0
EndSplineSet
Colour: ff00ff
EndChar

StartChar: uniE062
Encoding: 57442 57442 493
GlifName: uniE_062
Width: 1321
Flags: HMW
LayerCount: 2
Back
SplineSet
388 894 m 0
 525 894 677 817 814 746 c 0
 906 698 1023 645 1170 583 c 0
 1230 558 1274 491 1274 426 c 0
 1274 366 1244 313 1194 281 c 0
 814 41 429 -126 0 -126 c 0
 -95 -126 -172 -46 -172 45 c 0
 -172 136 -95 216 0 216 c 0
 242 216 485 283 726 406 c 1
 680 429 634 452 588 478 c 0
 518 517 463 546 422 546 c 0
 370 546 357 520 325 440 c 0
 296 367 175 307 77 371 c 0
 14 412 -22 503 17 587 c 0
 99 763 196 894 388 894 c 0
760 356 m 0
 760 450 837 526 931 526 c 0
 1025 526 1102 450 1102 356 c 0
 1102 266 1149 216 1320 216 c 2
 3369 216 l 2
 3463 216 3539 139 3539 45 c 0
 3539 -49 3463 -126 3369 -126 c 2
 1320 -126 l 2
 1031 -126 760 31 760 356 c 0
EndSplineSet
Fore
SplineSet
388 894 m 0
 525 894 677 817 814 746 c 0
 906 698 1023 645 1170 583 c 0
 1230 558 1274 491 1274 426 c 0
 1274 366 1244 313 1194 281 c 0
 814 41 429 -126 0 -126 c 0
 -95 -126 -172 -46 -172 45 c 0
 -172 136 -95 216 0 216 c 0
 242 216 485 283 726 406 c 1
 680 429 634 452 588 478 c 0
 518 517 463 546 422 546 c 0
 370 546 357 520 325 440 c 0
 296 367 175 307 77 371 c 0
 14 412 -22 503 17 587 c 0
 99 763 196 894 388 894 c 0
760 356 m 0
 760 450 837 526 931 526 c 0
 1025 526 1102 450 1102 356 c 0
 1102 266 1149 216 1320 216 c 2
 1321 216 l 2
 1415 216 1491 139 1491 45 c 0
 1491 -49 1415 -126 1321 -126 c 2
 1320 -126 l 2
 1031 -126 760 31 760 356 c 0
EndSplineSet
Colour: ffff
EndChar

StartChar: uniE063
Encoding: 57443 57443 494
GlifName: uniE_063
Width: 1121
Flags: HMW
LayerCount: 2
Back
SplineSet
26 85 m 0
 51 175 141 222 237 202 c 0
 292 192 334 186 390 186 c 0
 569 186 586 235 586 297 c 0
 586 313 583 327 577 341 c 0
 545 429 591 529 679 561 c 0
 767 593 864 547 896 459 c 0
 914 407 930 353 930 297 c 0
 930 -49 621 -156 390 -156 c 0
 295 -156 244 -150 144 -126 c 0
 54 -103 1 -5 26 85 c 0
401 692 m 0
 352 772 378 879 458 928 c 0
 538 977 645 951 694 871 c 0
 775 742 841 629 893 476 c 0
 962 280 1007 216 1120 216 c 2
 3169 216 l 2
 3263 216 3339 139 3339 45 c 0
 3339 -49 3263 -126 3169 -126 c 2
 1120 -126 l 2
 754 -126 627 190 569 364 c 0
 539 455 482 562 401 692 c 0
EndSplineSet
Fore
SplineSet
26 85 m 0
 51 175 141 222 237 202 c 0
 292 192 334 186 390 186 c 0
 569 186 586 235 586 297 c 0
 586 313 583 327 577 341 c 0
 545 429 591 529 679 561 c 0
 767 593 864 547 896 459 c 0
 914 407 930 353 930 297 c 0
 930 -49 621 -156 390 -156 c 0
 295 -156 244 -150 144 -126 c 0
 54 -103 1 -5 26 85 c 0
401 692 m 0
 352 772 378 879 458 928 c 0
 538 977 645 951 694 871 c 0
 775 742 841 629 893 476 c 0
 962 280 1007 216 1120 216 c 2
 1121 216 l 2
 1215 216 1291 139 1291 45 c 0
 1291 -49 1215 -126 1121 -126 c 2
 1120 -126 l 2
 754 -125 627 190 569 364 c 0
 539 455 482 562 401 692 c 0
EndSplineSet
Colour: ffff
EndChar

StartChar: uniE064
Encoding: 57444 57444 495
GlifName: uniE_064
Width: 947
Flags: HMW
LayerCount: 2
Back
SplineSet
483 644 m 0
 593 684 687 611 708 527 c 0
 743 394 761 265 761 140 c 0
 761 -282 533 -545 215 -651 c 0
 113 -685 21 -622 -3 -540 c 0
 -34 -434 29 -351 105 -326 c 0
 302 -260 421 -120 421 140 c 0
 421 228 406 330 377 441 c 0
 350 542 415 619 483 644 c 0
375 445 m 0
 343 532 411 629 503 651 c 0
 594 673 684 612 709 523 c 0
 773 292 851 216 946 216 c 2
 2995 216 l 2
 3089 216 3165 139 3165 45 c 0
 3165 -49 3089 -126 2995 -126 c 2
 946 -126 l 2
 690 -126 481 161 375 445 c 0
EndSplineSet
Fore
SplineSet
483 644 m 0
 593 684 687 611 708 527 c 0
 743 394 761 265 761 140 c 0
 761 -282 533 -545 215 -651 c 0
 113 -685 21 -622 -3 -540 c 0
 -34 -434 29 -351 105 -326 c 0
 302 -260 421 -120 421 140 c 0
 421 228 406 330 377 441 c 0
 350 542 415 619 483 644 c 0
375 445 m 0
 343 532 411 629 503 651 c 0
 594 673 684 612 709 523 c 0
 773 292 851 216 946 216 c 2
 947 216 l 2
 1041 216 1117 139 1117 45 c 0
 1117 -49 1041 -126 947 -126 c 2
 946 -126 l 2
 690 -126 481 161 375 445 c 0
EndSplineSet
Colour: ffff
EndChar

StartChar: uniE065
Encoding: 57445 57445 496
GlifName: uniE_065
Width: 2430
Flags: HMW
LayerCount: 2
Back
SplineSet
17 -48 m 0
 17 75 48 212 117 392 c 0
 152 479 254 523 340 489 c 0
 427 454 471 353 437 267 c 0
 385 137 361 32 361 -48 c 0
 361 -219 465 -302 660 -302 c 0
 858 -302 976 -205 976 -28 c 0
 976 68 945 211 899 326 c 0
 865 413 910 516 996 550 c 0
 1082 584 1184 539 1218 452 c 0
 1285 279 1320 126 1320 -3 c 0
 1320 -373 1037 -644 664 -644 c 0
 268 -644 17 -418 17 -48 c 0
899 326 m 0
 865 413 909 516 996 550 c 0
 1083 584 1183 539 1218 452 c 0
 1298 248 1333 192 1391 192 c 0
 1452 192 1471 254 1493 420 c 0
 1503 503 1583 563 1668 553 c 0
 1751 543 1811 464 1800 379 c 0
 1759 69 1626 -152 1385 -152 c 0
 1177 -152 1030 -7 899 326 c 0
1485 293 m 0
 1485 345 1484 364 1493 421 c 0
 1504 504 1584 564 1669 553 c 0
 1753 542 1812 462 1800 378 c 0
 1792 326 1790 307 1790 268 c 0
 1790 227 1818 188 1874 188 c 0
 1926 188 1956 220 1956 275 c 0
 1956 339 1955 387 1945 444 c 0
 1929 536 1991 626 2083 642 c 0
 2175 658 2266 596 2282 504 c 0
 2299 402 2300 365 2300 253 c 0
 2300 24 2113 -156 1897 -156 c 0
 1653 -156 1485 84 1485 293 c 0
1944 445 m 0
 1929 538 1991 627 2084 642 c 0
 2177 657 2268 597 2282 504 c 0
 2321 241 2340 216 2429 216 c 2
 4478 216 l 2
 4572 216 4648 139 4648 45 c 0
 4648 -49 4572 -126 4478 -126 c 2
 2429 -126 l 2
 2168 -126 2010 48 1944 445 c 0
EndSplineSet
Fore
SplineSet
17 -48 m 0
 17 75 48 212 117 392 c 0
 152 479 254 523 340 489 c 0
 427 454 471 353 437 267 c 0
 385 137 361 32 361 -48 c 0
 361 -219 465 -302 660 -302 c 0
 858 -302 976 -205 976 -28 c 0
 976 68 945 211 899 326 c 0
 865 413 910 516 996 550 c 0
 1082 584 1184 539 1218 452 c 0
 1285 279 1320 126 1320 -3 c 0
 1320 -373 1037 -644 664 -644 c 0
 268 -644 17 -418 17 -48 c 0
899 326 m 0
 865 413 909 516 996 550 c 0
 1083 584 1183 539 1218 452 c 0
 1298 248 1333 192 1391 192 c 0
 1452 192 1471 254 1493 420 c 0
 1503 503 1583 563 1668 553 c 0
 1751 543 1811 464 1800 379 c 0
 1759 69 1626 -152 1385 -152 c 0
 1177 -152 1030 -7 899 326 c 0
1485 293 m 0
 1485 345 1484 364 1493 421 c 0
 1504 504 1584 564 1669 553 c 0
 1753 542 1812 462 1800 378 c 0
 1792 326 1790 307 1790 268 c 0
 1790 227 1818 188 1874 188 c 0
 1926 188 1956 220 1956 275 c 0
 1956 339 1955 387 1945 444 c 0
 1929 536 1991 626 2083 642 c 0
 2175 658 2266 596 2282 504 c 0
 2299 402 2300 365 2300 253 c 0
 2300 24 2113 -156 1897 -156 c 0
 1653 -156 1485 84 1485 293 c 0
1944 445 m 0
 1929 538 1991 627 2084 642 c 0
 2177 657 2268 597 2282 504 c 0
 2321 241 2340 216 2429 216 c 2
 2430 216 l 2
 2524 216 2600 139 2600 45 c 0
 2600 -49 2524 -126 2430 -126 c 2
 2429 -126 l 2
 2168 -125 2010 48 1944 445 c 0
EndSplineSet
Colour: ffff
EndChar

StartChar: uniE066
Encoding: 57446 57446 497
GlifName: uniE_066
Width: 1652
Flags: HMW
LayerCount: 2
Fore
SplineSet
-171 45 m 0
 -171 139 -94 216 0 216 c 0
 135 216 202 300 217 477 c 0
 225 570 310 641 403 633 c 0
 496 625 566 539 558 446 c 0
 534 160 294 -126 0 -126 c 0
 -94 -126 -171 -49 -171 45 c 0
202 329 m 0
 202 357 205 392 218 487 c 0
 232 580 320 646 413 632 c 0
 506 618 572 529 558 437 c 0
 546 358 544 332 544 316 c 0
 544 237 575 196 631 196 c 0
 704 196 745 254 765 464 c 0
 774 553 854 620 942 611 c 0
 1030 602 1098 523 1089 434 c 0
 1057 101 835 -146 603 -146 c 0
 369 -146 202 72 202 329 c 0
757 370 m 0
 757 405 760 435 766 473 c 0
 779 561 863 623 951 610 c 0
 1039 597 1102 513 1088 425 c 0
 1083 395 1080 366 1080 338 c 0
 1080 256 1101 198 1181 198 c 0
 1239 198 1279 239 1279 318 c 0
 1279 378 1270 436 1255 501 c 0
 1234 592 1293 685 1384 706 c 0
 1475 727 1568 668 1589 577 c 0
 1617 456 1621 420 1621 340 c 0
 1621 49 1448 -144 1204 -144 c 0
 941 -144 757 66 757 370 c 0
EndSplineSet
Colour: ff00ff
EndChar

StartChar: uniE067
Encoding: 57447 57447 498
GlifName: uniE_067
Width: 1817
Flags: HMW
LayerCount: 2
Back
SplineSet
-171 45 m 0
 -171 139 -94 216 0 216 c 0
 135 216 202 300 217 477 c 0
 225 570 310 641 403 633 c 0
 496 625 566 539 558 446 c 0
 534 160 294 -126 0 -126 c 0
 -94 -126 -171 -49 -171 45 c 0
202 329 m 0
 202 357 205 392 218 487 c 0
 232 580 320 646 413 632 c 0
 506 618 572 529 558 437 c 0
 546 358 544 332 544 316 c 0
 544 237 575 196 631 196 c 0
 704 196 745 254 765 464 c 0
 774 553 854 620 942 611 c 0
 1030 602 1098 523 1089 434 c 0
 1057 101 835 -146 603 -146 c 0
 369 -146 202 72 202 329 c 0
757 370 m 0
 757 405 760 435 766 473 c 0
 779 561 863 623 951 610 c 0
 1039 597 1102 513 1088 425 c 0
 1083 395 1080 366 1080 338 c 0
 1080 256 1101 198 1181 198 c 0
 1239 198 1279 239 1279 318 c 0
 1279 378 1270 436 1255 501 c 0
 1234 592 1293 685 1384 706 c 0
 1475 727 1568 668 1589 577 c 0
 1617 456 1621 420 1621 340 c 0
 1621 49 1448 -144 1204 -144 c 0
 941 -144 757 66 757 370 c 0
1255 501 m 0
 1231 591 1294 682 1384 706 c 0
 1474 730 1571 669 1589 578 c 0
 1651 269 1711 216 1816 216 c 2
 3865 216 l 2
 3959 216 4035 139 4035 45 c 0
 4035 -49 3959 -126 3865 -126 c 2
 1816 -126 l 2
 1538 -126 1359 119 1255 501 c 0
EndSplineSet
Fore
SplineSet
-171 45 m 0
 -171 139 -94 216 0 216 c 0
 135 216 202 300 217 477 c 0
 225 570 310 641 403 633 c 0
 496 625 566 539 558 446 c 0
 534 160 294 -126 0 -126 c 0
 -94 -126 -171 -49 -171 45 c 0
202 329 m 0
 202 357 205 392 218 487 c 0
 232 580 320 646 413 632 c 0
 506 618 572 529 558 437 c 0
 546 358 544 332 544 316 c 0
 544 237 575 196 631 196 c 0
 704 196 745 254 765 464 c 0
 774 553 854 620 942 611 c 0
 1030 602 1098 523 1089 434 c 0
 1057 101 835 -146 603 -146 c 0
 369 -146 202 72 202 329 c 0
757 370 m 0
 757 405 760 435 766 473 c 0
 779 561 863 623 951 610 c 0
 1039 597 1102 513 1088 425 c 0
 1083 395 1080 366 1080 338 c 0
 1080 256 1101 198 1181 198 c 0
 1239 198 1279 239 1279 318 c 0
 1279 378 1270 436 1255 501 c 0
 1234 592 1293 685 1384 706 c 0
 1475 727 1568 668 1589 577 c 0
 1617 456 1621 420 1621 340 c 0
 1621 49 1448 -144 1204 -144 c 0
 941 -144 757 66 757 370 c 0
1255 501 m 0
 1231 591 1294 682 1384 706 c 0
 1474 730 1571 669 1589 578 c 0
 1651 269 1711 216 1816 216 c 2
 1817 216 l 2
 1911 216 1987 139 1987 45 c 0
 1987 -49 1911 -126 1817 -126 c 2
 1816 -126 l 2
 1538 -126 1359 119 1255 501 c 0
EndSplineSet
Colour: ffff
EndChar

StartChar: uniE068
Encoding: 57448 57448 499
GlifName: uniE_068
Width: 2452
Flags: HMW
LayerCount: 2
Back
SplineSet
16 -49 m 0
 16 77 47 215 117 394 c 0
 152 481 254 525 340 491 c 0
 427 456 471 355 437 269 c 0
 386 137 360 31 360 -49 c 0
 360 -206 448 -302 660 -302 c 0
 845 -302 975 -216 975 -29 c 0
 975 61 945 203 898 326 c 0
 864 413 909 515 995 549 c 0
 1081 583 1183 538 1217 451 c 0
 1284 280 1319 127 1319 -4 c 0
 1319 -380 1028 -644 664 -644 c 0
 249 -644 16 -401 16 -49 c 0
899 325 m 0
 863 411 906 512 992 548 c 0
 1078 584 1180 542 1216 456 c 0
 1289 279 1452 186 1682 186 c 0
 1869 186 2002 261 2002 345 c 0
 2002 417 1948 459 1871 459 c 0
 1737 459 1607 314 1503 89 c 0
 1465 9 1367 -26 1286 12 c 0
 1205 50 1171 148 1209 228 c 0
 1371 575 1624 803 1913 803 c 0
 2162 803 2344 639 2344 380 c 0
 2344 80 2054 -156 1682 -156 c 0
 1313 -156 1026 18 899 325 c 0
1984 111 m 0
 1939 194 1971 298 2054 343 c 0
 2137 388 2241 356 2286 274 c 0
 2304 241 2340 216 2451 216 c 2
 4500 216 l 2
 4594 216 4670 139 4670 45 c 0
 4670 -49 4594 -126 4500 -126 c 2
 2451 -126 l 2
 2240 -126 2058 -26 1984 111 c 0
EndSplineSet
Fore
SplineSet
16 -49 m 0
 16 77 47 215 117 394 c 0
 152 481 254 525 340 491 c 0
 427 456 471 355 437 269 c 0
 386 137 360 31 360 -49 c 0
 360 -206 448 -302 660 -302 c 0
 845 -302 975 -216 975 -29 c 0
 975 61 945 203 898 326 c 0
 864 413 909 515 995 549 c 0
 1081 583 1183 538 1217 451 c 0
 1284 280 1319 127 1319 -4 c 0
 1319 -380 1028 -644 664 -644 c 0
 249 -644 16 -401 16 -49 c 0
899 325 m 0
 863 411 906 512 992 548 c 0
 1078 584 1180 542 1216 456 c 0
 1289 279 1452 186 1682 186 c 0
 1869 186 2002 261 2002 345 c 0
 2002 417 1948 459 1871 459 c 0
 1737 459 1607 314 1503 89 c 0
 1465 9 1367 -26 1286 12 c 0
 1205 50 1171 148 1209 228 c 0
 1371 575 1624 803 1913 803 c 0
 2162 803 2344 639 2344 380 c 0
 2344 80 2054 -156 1682 -156 c 0
 1313 -156 1026 18 899 325 c 0
1984 111 m 0
 1939 194 1971 298 2054 343 c 0
 2137 388 2241 356 2286 274 c 0
 2304 241 2340 216 2451 216 c 2
 2452 216 l 2
 2546 216 2622 139 2622 45 c 0
 2622 -49 2546 -126 2452 -126 c 2
 2451 -126 l 2
 2240 -126 2058 -26 1984 111 c 0
EndSplineSet
Colour: ffff
EndChar

StartChar: uniE069
Encoding: 57449 57449 500
GlifName: uniE_069
Width: 1694
Flags: HMW
LayerCount: 2
Fore
SplineSet
-171 45 m 0
 -171 139 -94 216 0 216 c 0
 129 216 225 249 247 492 c 0
 255 585 341 655 434 647 c 0
 528 639 595 556 587 463 c 0
 553 88 322 -126 0 -126 c 0
 -94 -126 -171 -49 -171 45 c 0
247 471 m 0
 243 565 317 644 411 648 c 0
 505 652 587 578 590 485 c 0
 595 281 686 206 972 206 c 0
 1192 206 1306 259 1306 353 c 0
 1306 427 1248 463 1176 463 c 0
 1013 463 857 284 683 -105 c 0
 644 -194 550 -216 484 -177 c 0
 426 -143 405 -67 435 11 c 0
 645 551 900 807 1218 807 c 0
 1474 807 1648 632 1648 378 c 0
 1648 91 1362 -136 972 -136 c 0
 555 -136 257 126 247 471 c 0
EndSplineSet
Colour: ff00ff
EndChar

StartChar: uniE06A
Encoding: 57450 57450 501
GlifName: uniE_06A_
Width: 1791
Flags: HMW
LayerCount: 2
Back
SplineSet
-171 45 m 0
 -171 139 -94 216 0 216 c 0
 129 216 225 249 247 492 c 0
 255 585 341 655 434 647 c 0
 528 639 595 556 587 463 c 0
 553 88 322 -126 0 -126 c 0
 -94 -126 -171 -49 -171 45 c 0
247 471 m 0
 243 565 317 644 411 648 c 0
 505 652 587 578 590 485 c 0
 595 281 686 206 972 206 c 0
 1192 206 1306 259 1306 353 c 0
 1306 427 1248 463 1176 463 c 0
 1013 463 857 284 683 -105 c 0
 644 -194 550 -216 484 -177 c 0
 426 -143 405 -67 435 11 c 0
 645 551 900 807 1218 807 c 0
 1474 807 1648 632 1648 378 c 0
 1648 91 1362 -136 972 -136 c 0
 555 -136 257 126 247 471 c 0
1294 170 m 0
 1261 257 1307 358 1395 391 c 0
 1482 424 1582 376 1616 289 c 0
 1638 231 1676 216 1790 216 c 2
 3839 216 l 2
 3933 216 4009 138 4009 45 c 0
 4009 -48 3933 -126 3839 -126 c 2
 1790 -126 l 2
 1571 -126 1361 -4 1294 170 c 0
EndSplineSet
Fore
SplineSet
-171 45 m 0
 -171 139 -94 216 0 216 c 0
 129 216 225 249 247 492 c 0
 255 585 341 655 434 647 c 0
 528 639 595 556 587 463 c 0
 553 88 322 -126 0 -126 c 0
 -94 -126 -171 -49 -171 45 c 0
247 471 m 0
 243 565 317 644 411 648 c 0
 505 652 587 578 590 485 c 0
 595 281 686 206 972 206 c 0
 1192 206 1306 259 1306 353 c 0
 1306 427 1248 463 1176 463 c 0
 1013 463 857 284 683 -105 c 0
 644 -194 550 -216 484 -177 c 0
 426 -143 405 -67 435 11 c 0
 645 551 900 807 1218 807 c 0
 1474 807 1648 632 1648 378 c 0
 1648 91 1362 -136 972 -136 c 0
 555 -136 257 126 247 471 c 0
1294 170 m 0
 1261 257 1307 358 1395 391 c 0
 1482 424 1582 376 1616 289 c 0
 1638 231 1676 216 1790 216 c 2
 1791 216 l 2
 1885 216 1961 138 1961 45 c 0
 1961 -48 1885 -126 1791 -126 c 2
 1790 -126 l 2
 1571 -126 1361 -4 1294 170 c 0
EndSplineSet
Colour: ffff
EndChar

StartChar: uniE06B
Encoding: 57451 57451 502
GlifName: uniE_06B_
Width: 1619
Flags: HMW
LayerCount: 2
Back
SplineSet
20 68 m 0
 32 161 121 228 213 215 c 0
 363 195 492 186 618 186 c 0
 818 186 1114 196 1114 344 c 0
 1114 396 1070 458 992 458 c 0
 866 458 728 331 619 102 c 0
 581 22 484 -13 403 25 c 0
 322 63 288 161 326 241 c 0
 493 592 754 802 1034 802 c 0
 1284 802 1456 637 1456 378 c 0
 1456 -25 1066 -156 593 -156 c 0
 461 -156 313 -145 167 -125 c 0
 75 -112 8 -25 20 68 c 0
363 1194 m 0
 350 1286 426 1368 508 1380 c 0
 612 1395 691 1318 705 1227 c 0
 722 1115 740 898 740 740 c 0
 740 556 734 404 724 316 c 0
 714 224 617 163 535 173 c 0
 431 185 373 282 385 373 c 0
 393 439 396 514 396 606 c 0
 396 825 378 1082 363 1194 c 0
1107 173 m 0
 1071 259 1111 362 1197 399 c 0
 1283 436 1387 395 1422 308 c 0
 1440 262 1503 216 1618 216 c 2
 3667 216 l 2
 3761 216 3837 139 3837 45 c 0
 3837 -49 3761 -126 3667 -126 c 2
 1618 -126 l 2
 1406 -126 1188 -21 1107 173 c 0
EndSplineSet
Fore
SplineSet
20 68 m 0
 32 161 121 228 213 215 c 0
 363 195 492 186 618 186 c 0
 818 186 1114 196 1114 344 c 0
 1114 396 1070 458 992 458 c 0
 866 458 728 331 619 102 c 0
 581 22 484 -13 403 25 c 0
 322 63 288 161 326 241 c 0
 493 592 754 802 1034 802 c 0
 1284 802 1456 637 1456 378 c 0
 1456 -25 1066 -156 593 -156 c 0
 461 -156 313 -145 167 -125 c 0
 75 -112 8 -25 20 68 c 0
363 1194 m 0
 350 1286 426 1368 508 1380 c 0
 612 1395 691 1318 705 1227 c 0
 722 1115 740 898 740 740 c 0
 740 556 734 404 724 316 c 0
 714 224 617 163 535 173 c 0
 431 185 373 282 385 373 c 0
 393 439 396 514 396 606 c 0
 396 825 378 1082 363 1194 c 0
1107 173 m 0
 1071 259 1111 362 1197 399 c 0
 1283 436 1387 395 1422 308 c 0
 1440 262 1503 216 1618 216 c 2
 1619 216 l 2
 1713 216 1789 139 1789 45 c 0
 1789 -49 1713 -126 1619 -126 c 2
 1618 -126 l 2
 1406 -126 1188 -21 1107 173 c 0
EndSplineSet
Colour: ffff
EndChar

StartChar: uniE06C
Encoding: 57452 57452 503
GlifName: uniE_06C_
Width: 1178
Flags: HMW
LayerCount: 2
Fore
SplineSet
-170 46 m 0
 -170 140 -94 216 0 216 c 1
 325 216 l 2
 709 216 820 238 820 348 c 0
 820 416 777 458 699 458 c 0
 574 458 435 330 325 100 c 0
 287 20 190 -16 109 22 c 0
 28 60 -7 159 31 239 c 0
 199 591 462 802 741 802 c 0
 991 802 1162 637 1162 378 c 0
 1162 -22 778 -122 300 -122 c 2
 0 -122 l 1
 -94 -122 -170 -45 -170 46 c 0
70 1194 m 0
 57 1286 133 1368 215 1380 c 0
 319 1395 398 1318 412 1227 c 0
 429 1115 447 898 447 740 c 0
 447 556 440 404 430 316 c 0
 420 224 324 163 242 173 c 0
 138 185 80 281 92 372 c 0
 100 438 102 514 102 606 c 0
 102 825 85 1082 70 1194 c 0
EndSplineSet
Colour: ff00ff
EndChar

StartChar: uniE06D
Encoding: 57453 57453 504
GlifName: uniE_06D_
Width: 1269
Flags: HMW
LayerCount: 2
Back
SplineSet
-170 46 m 0
 -170 140 -94 216 0 216 c 1
 325 216 l 2
 709 216 820 238 820 348 c 0
 820 416 777 458 699 458 c 0
 574 458 435 330 325 100 c 0
 287 20 190 -16 109 22 c 0
 28 60 -7 159 31 239 c 0
 199 591 462 802 741 802 c 0
 991 802 1162 637 1162 378 c 0
 1162 -22 778 -122 300 -122 c 2
 0 -122 l 1
 -94 -122 -170 -45 -170 46 c 0
70 1194 m 0
 57 1286 133 1368 215 1380 c 0
 319 1395 398 1318 412 1227 c 0
 429 1115 447 898 447 740 c 0
 447 556 440 404 430 316 c 0
 420 224 324 163 242 173 c 0
 138 185 80 281 92 372 c 0
 100 438 102 514 102 606 c 0
 102 825 85 1082 70 1194 c 0
815 179 m 0
 779 265 819 367 905 404 c 0
 991 441 1096 401 1131 314 c 0
 1150 265 1177 216 1268 216 c 2
 3317 216 l 2
 3411 216 3487 139 3487 45 c 0
 3487 -49 3411 -126 3317 -126 c 2
 1268 -126 l 2
 1055 -126 897 -18 815 179 c 0
EndSplineSet
Fore
SplineSet
-170 46 m 0
 -170 140 -94 216 0 216 c 1
 325 216 l 2
 709 216 820 238 820 348 c 0
 820 416 777 458 699 458 c 0
 574 458 435 330 325 100 c 0
 287 20 190 -16 109 22 c 0
 28 60 -7 159 31 239 c 0
 199 591 462 802 741 802 c 0
 991 802 1162 637 1162 378 c 0
 1162 -22 778 -122 300 -122 c 2
 0 -122 l 1
 -94 -122 -170 -45 -170 46 c 0
70 1194 m 0
 57 1286 133 1368 215 1380 c 0
 319 1395 398 1318 412 1227 c 0
 429 1115 447 898 447 740 c 0
 447 556 440 404 430 316 c 0
 420 224 324 163 242 173 c 0
 138 185 80 281 92 372 c 0
 100 438 102 514 102 606 c 0
 102 825 85 1082 70 1194 c 0
815 179 m 0
 779 265 819 367 905 404 c 0
 991 441 1096 401 1131 314 c 0
 1150 265 1177 216 1268 216 c 2
 1269 216 l 2
 1363 216 1439 139 1439 45 c 0
 1439 -49 1363 -126 1269 -126 c 2
 1268 -126 l 2
 1055 -126 897 -18 815 179 c 0
EndSplineSet
Colour: ffff
EndChar

StartChar: uniE06E
Encoding: 57454 57454 505
GlifName: uniE_06E_
Width: 1132
Flags: HMW
LayerCount: 2
Back
SplineSet
15 -285 m 0
 15 66 332 265 541 396 c 0
 644 460 721 509 721 550 c 0
 721 597 644 605 586 605 c 0
 479 605 374 567 300 504 c 0
 219 434 101 464 51 534 c 0
 0 606 19 713 79 764 c 0
 218 883 400 947 586 947 c 0
 838 947 1061 824 1061 570 c 0
 1061 313 856 186 667 69 c 0
 505 -31 355 -124 355 -285 c 0
 355 -433 547 -475 703 -475 c 0
 765 -475 834 -468 904 -455 c 0
 1011 -436 1095 -511 1105 -603 c 0
 1113 -684 1051 -774 966 -791 c 0
 876 -808 787 -815 703 -815 c 0
 343 -815 15 -649 15 -285 c 0
70 512 m 0
 11 580 -8 689 78 762 c 0
 152 825 272.181839618 809.140734689 324 742 c 0
 510 501 732 215 1131 215 c 2
 3180 215 l 2
 3271 215 3350 139 3350 45 c 0
 3350 -49 3271 -125 3180 -125 c 2
 1131 -125 l 2
 619 -125 336 200 70 512 c 0
EndSplineSet
Fore
SplineSet
15 -285 m 0
 15 66 332 265 541 396 c 0
 644 460 721 509 721 550 c 0
 721 597 644 605 586 605 c 0
 479 605 374 567 300 504 c 0
 219 434 101 464 51 534 c 0
 0 606 19 713 79 764 c 0
 218 883 400 947 586 947 c 0
 838 947 1061 824 1061 570 c 0
 1061 313 856 186 667 69 c 0
 505 -31 355 -124 355 -285 c 0
 355 -433 547 -475 703 -475 c 0
 765 -475 834 -468 904 -455 c 0
 1011 -436 1095 -511 1105 -603 c 0
 1113 -684 1051 -774 966 -791 c 0
 876 -808 787 -815 703 -815 c 0
 343 -815 15 -649 15 -285 c 0
70 512 m 0
 11 580 -8 689 78 762 c 0
 152 825 272.181839618 809.140734689 324 742 c 0
 510 501 732 215 1131 215 c 2
 1132 215 l 2
 1223 215 1302 139 1302 45 c 0
 1302 -49 1223 -125 1132 -125 c 2
 1131 -125 l 2
 619 -125 336 200 70 512 c 0
EndSplineSet
Colour: ffff
EndChar

StartChar: uniE06F
Encoding: 57455 57455 506
GlifName: uniE_06F_
Width: 1023
Flags: HMW
LayerCount: 2
Fore
SplineSet
-171 45 m 0
 -171 139 -94 216 0 216 c 0
 191 216 318 233 478 278 c 0
 580 307 679 326 807 344 c 0
 893 356 990 299 1005 206 c 0
 1020 113 958 22 866 7 c 0
 762 -12 679 -30 595 -52 c 0
 384 -107 228 -126 0 -126 c 0
 -94 -126 -171 -49 -171 45 c 0
35 446 m 0
 35 725 251 973 530 973 c 0
 628 973 726 945 815 892 c 0
 895 843 924 739 876 658 c 0
 828 577 724 550 642 597 c 0
 611 614 556 629 521 629 c 0
 432 629 345 539 345 447 c 0
 345 358 422 319 586 319 c 0
 643 319 694 325 800 343 c 0
 892 358 984 303 1003 211 c 0
 1022 119 964 28 873 9 c 0
 796 -10 672 -24 591 -24 c 0
 261 -24 35 159 35 446 c 0
EndSplineSet
Colour: ff00ff
EndChar

StartChar: uniE070
Encoding: 57456 57456 507
GlifName: uniE_070
Width: 1094
Flags: HMW
LayerCount: 2
Back
SplineSet
-171 45 m 0
 -171 139 -94 216 0 216 c 0
 318 216 724 423 725 493 c 0
 725 526 664 543 590 543 c 0
 496 543 413 513 311 451 c 0
 233 401 141 372 70 434 c 0
 -1 496 -11 607 53 675 c 0
 167 797 348 887 604 887 c 0
 810 887 1068 769 1068 495 c 0
 1068 103 350 -126 0 -126 c 0
 -94 -126 -171 -49 -171 45 c 0
48 456 m 0
 -14 526 2 640 76 698 c 0
 150 756 256 740 318 670 c 0
 640 301 791 216 1093 216 c 2
 3142 216 l 2
 3236 216 3312 139 3312 45 c 0
 3312 -49 3236 -126 3142 -126 c 2
 1093 -126 l 2
 668 -126 344 116 48 456 c 0
EndSplineSet
Fore
SplineSet
-171 45 m 0
 -171 139 -94 216 0 216 c 0
 318 216 724 423 725 493 c 0
 725 526 664 543 590 543 c 0
 496 543 413 513 311 451 c 0
 233 401 141 372 70 434 c 0
 -1 496 -11 607 53 675 c 0
 167 797 348 887 604 887 c 0
 810 887 1068 769 1068 495 c 0
 1068 103 350 -126 0 -126 c 0
 -94 -126 -171 -49 -171 45 c 0
48 456 m 0
 -14 526 2 640 76 698 c 0
 150 756 256 740 318 670 c 0
 640 301 791 216 1093 216 c 2
 1094 216 l 2
 1188 216 1264 139 1264 45 c 0
 1264 -49 1188 -126 1094 -126 c 2
 1093 -126 l 2
 668 -126 344 116 48 456 c 0
EndSplineSet
Colour: ffff
EndChar

StartChar: uniE071
Encoding: 57457 57457 508
GlifName: uniE_071
Width: 1857
Flags: HMW
LayerCount: 2
Back
SplineSet
19 377 m 0
 19 473 31 578 76 664 c 0
 118 748 223 783 307 740 c 0
 390 698 416 616 383 509 c 0
 383 509 363 421 363 377 c 0
 363 256 419 186 764 186 c 0
 1264 186 1492 283 1492 482 c 0
 1492 560 1453 617 1384 617 c 0
 1313 617 1275 560 1275 483 c 0
 1275 298 1467 216 1856 216 c 2
 3905 216 l 2
 3999 216 4075 139 4075 45 c 0
 4075 -49 3999 -126 3905 -126 c 2
 1856 -126 l 2
 1374 -126 933 166 933 483 c 0
 933 748 1127 961 1384 961 c 0
 1639 961 1834 747 1834 482 c 0
 1834 147 1370 -156 764 -156 c 0
 499 -156 19 -131 19 377 c 0
EndSplineSet
Fore
SplineSet
19 377 m 0
 19 473 31 578 76 664 c 0
 118 748 223 783 307 740 c 0
 390 698 416 616 383 509 c 0
 383 509 363 421 363 377 c 0
 363 256 419 186 764 186 c 0
 1264 186 1492 283 1492 482 c 0
 1492 560 1453 617 1384 617 c 0
 1313 617 1275 560 1275 483 c 0
 1275 298 1467 216 1856 216 c 2
 1857 216 l 2
 1951 216 2027 139 2027 45 c 0
 2027 -49 1951 -126 1857 -126 c 2
 1856 -126 l 2
 1374 -126 933 166 933 483 c 0
 933 748 1127 961 1384 961 c 0
 1639 961 1834 747 1834 482 c 0
 1834 147 1370 -156 764 -156 c 0
 499 -156 19 -131 19 377 c 0
EndSplineSet
Colour: ffff
EndChar

StartChar: uniE072
Encoding: 57458 57458 509
GlifName: uniE_072
Width: 1521
Flags: HMW
LayerCount: 2
Back
SplineSet
1033 787 m 0
 1364 787 1489 448 1489 41 c 0
 1489 -360 1221 -645 748 -645 c 0
 308 -645 20 -402 20 -31 c 0
 20 137 58 300 119 455 c 0
 154 542 257 586 343 552 c 0
 430 517 474 416 440 330 c 0
 399 224 364 100 364 -18 c 0
 364 -216 503 -303 744 -303 c 0
 1053 -303 1163 -197 1163 33 c 0
 1163 200 1153 455 1025 455 c 0
 972 455 925 404 925 312 c 0
 925 239 964 216 1044 216 c 2
 3569 216 l 2
 3663 216 3739 139 3739 45 c 0
 3739 -49 3663 -126 3569 -126 c 2
 1047 -126 l 2
 762 -126 606 15 606 280 c 0
 606 568 801 787 1033 787 c 0
EndSplineSet
Fore
SplineSet
1033 787 m 0
 1364 787 1489 448 1489 41 c 0
 1489 -360 1221 -645 748 -645 c 0
 308 -645 20 -402 20 -31 c 0
 20 137 58 300 119 455 c 0
 154 542 257 586 343 552 c 0
 430 517 474 416 440 330 c 0
 399 224 364 100 364 -18 c 0
 364 -216 503 -303 744 -303 c 0
 1053 -303 1163 -197 1163 33 c 0
 1163 200 1153 455 1025 455 c 0
 972 455 925 404 925 312 c 0
 925 239 964 216 1044 216 c 2
 1521 216 l 2
 1615 216 1691 139 1691 45 c 0
 1691 -49 1615 -126 1521 -126 c 2
 1047 -126 l 2
 762 -126 606 15 606 280 c 0
 606 568 801 787 1033 787 c 0
EndSplineSet
Colour: ffff
EndChar

StartChar: uniE073
Encoding: 57459 57459 510
GlifName: uniE_073
Width: 1800
Flags: HMW
LayerCount: 2
Back
SplineSet
19 381 m 0
 19 493 38 592 76 665 c 0
 117 749 223 783 307 741 c 0
 390 700 416 617 383 510 c 0
 372 474 363 410 363 367 c 0
 363 235 452 186 782 186 c 0
 1142 186 1249 256 1249 431 c 0
 1249 660 1233 987 1207 1189 c 0
 1195 1282 1262 1369 1355 1381 c 0
 1448 1393 1535 1326 1547 1233 c 0
 1577 1005 1593 676 1593 431 c 0
 1593 57 1360 -156 785 -156 c 0
 235 -156 19 13 19 381 c 0
1250 431 m 0
 1250 525 1327 602 1421 602 c 0
 1515 602 1593 525 1593 431 c 0
 1593 260 1659 216 1799 216 c 2
 3848 216 l 2
 3942 216 4018 139 4018 45 c 0
 4018 -49 3942 -126 3848 -126 c 2
 1799 -126 l 2
 1510 -126 1250 67 1250 431 c 0
EndSplineSet
Fore
SplineSet
19 381 m 0
 19 493 38 592 76 665 c 0
 117 749 223 783 307 741 c 0
 390 700 416 617 383 510 c 0
 372 474 363 410 363 367 c 0
 363 235 452 186 782 186 c 0
 1142 186 1249 256 1249 431 c 0
 1249 660 1233 987 1207 1189 c 0
 1195 1282 1262 1369 1355 1381 c 0
 1448 1393 1535 1326 1547 1233 c 0
 1577 1005 1593 676 1593 431 c 0
 1593 57 1360 -156 785 -156 c 0
 235 -156 19 13 19 381 c 0
1250 431 m 0
 1250 525 1327 602 1421 602 c 0
 1515 602 1593 525 1593 431 c 0
 1593 260 1659 216 1799 216 c 2
 1800 216 l 2
 1894 216 1970 139 1970 45 c 0
 1970 -49 1894 -126 1800 -126 c 2
 1799 -126 l 2
 1510 -126 1250 67 1250 431 c 0
EndSplineSet
Colour: ffff
EndChar

StartChar: uniE074
Encoding: 57460 57460 511
GlifName: uniE_074
Width: 1022
Flags: HMW
LayerCount: 2
Fore
SplineSet
-172 45 m 0
 -172 139 -94 216 0 216 c 0
 292 216 399 265 399 331 c 0
 399 427 276 567 86 763 c 0
 16 834 -18 870 -18 953 c 0
 -18 1028 29 1095 109 1120 c 2
 788 1344 l 2
 900 1380 997 1341 1025 1241 c 0
 1053 1137 1007 1056 917 1030 c 2
 436 887 l 1
 671 612 743 508 743 340 c 0
 743 40 510 -126 0 -126 c 0
 -94 -126 -172 -49 -172 45 c 0
EndSplineSet
Colour: ff00ff
EndChar

StartChar: uniE075
Encoding: 57461 57461 512
GlifName: uniE_075
Width: 1143
Flags: HMW
LayerCount: 2
Back
SplineSet
-172 45 m 0
 -172 139 -94 216 0 216 c 0
 292 216 399 265 399 331 c 0
 399 427 276 567 86 763 c 0
 16 834 -18 870 -18 953 c 0
 -18 1028 29 1095 109 1120 c 2
 788 1344 l 2
 900 1380 997 1341 1025 1241 c 0
 1053 1137 1007 1056 917 1030 c 2
 436 887 l 1
 671 612 743 508 743 340 c 0
 743 40 510 -126 0 -126 c 0
 -94 -126 -172 -49 -172 45 c 0
400 374 m 0
 348 456 364 559 441 613 c 0
 518 667 634 653 680 570 c 0
 822 320 893 216 1142 216 c 2
 3191 216 l 2
 3285 216 3361 139 3361 45 c 0
 3361 -49 3285 -126 3191 -126 c 2
 1142 -126 l 2
 799 -126 609 55 400 374 c 0
EndSplineSet
Fore
SplineSet
-172 45 m 0
 -172 139 -94 216 0 216 c 0
 292 216 399 265 399 331 c 0
 399 427 276 567 86 763 c 0
 16 834 -18 870 -18 953 c 0
 -18 1028 29 1095 109 1120 c 2
 788 1344 l 2
 900 1380 997 1341 1025 1241 c 0
 1053 1137 1007 1056 917 1030 c 2
 436 887 l 1
 671 612 743 508 743 340 c 0
 743 40 510 -126 0 -126 c 0
 -94 -126 -172 -49 -172 45 c 0
400 374 m 0
 348 456 364 559 441 613 c 0
 518 667 634 653 680 570 c 0
 822 320 893 216 1142 216 c 2
 1143 216 l 2
 1237 216 1313 139 1313 45 c 0
 1313 -49 1237 -126 1143 -126 c 2
 1142 -126 l 2
 799 -126 609 55 400 374 c 0
EndSplineSet
Colour: ffff
EndChar

StartChar: uniE076
Encoding: 57462 57462 513
GlifName: uniE_076
Width: 1448
Flags: HMW
LayerCount: 2
Back
SplineSet
19 -37 m 0
 19 129 71 259 132 380 c 0
 173 464 279 497 363 456 c 0
 447 415 480 310 439 226 c 0
 400 147 363 53 363 -37 c 0
 363 -179 458 -263 618 -263 c 0
 851 -263 922 -133 922 148 c 0
 922 486 902 809 874 1199 c 0
 868 1293 939 1376 1033 1382 c 0
 1127 1388 1210 1317 1216 1223 c 0
 1244 833 1266 502 1266 148 c 0
 1266 -201 1093 -607 618 -607 c 0
 308 -607 19 -379 19 -37 c 0
919 416 m 0
 913 510 985 593 1079 598 c 0
 1173 603 1255 532 1261 438 c 0
 1270 286 1267 216 1447 216 c 2
 3496 216 l 2
 3590 216 3666 139 3666 45 c 0
 3666 -49 3590 -126 3496 -126 c 2
 1447 -126 l 2
 1171 -126 938 107 919 416 c 0
EndSplineSet
Fore
SplineSet
19 -37 m 0
 19 129 71 259 132 380 c 0
 173 464 279 497 363 456 c 0
 447 415 480 310 439 226 c 0
 400 147 363 53 363 -37 c 0
 363 -179 458 -263 618 -263 c 0
 851 -263 922 -133 922 148 c 0
 922 486 902 809 874 1199 c 0
 868 1293 939 1376 1033 1382 c 0
 1127 1388 1210 1317 1216 1223 c 0
 1244 833 1266 502 1266 148 c 0
 1266 -201 1093 -607 618 -607 c 0
 308 -607 19 -379 19 -37 c 0
919 416 m 0
 913 510 985 593 1079 598 c 0
 1173 603 1255 532 1261 438 c 0
 1270 286 1267 216 1447 216 c 2
 1448 216 l 2
 1542 216 1618 139 1618 45 c 0
 1618 -49 1542 -126 1448 -126 c 2
 1447 -126 l 2
 1171 -126 938 107 919 416 c 0
EndSplineSet
Colour: ffff
EndChar

StartChar: uniE077
Encoding: 57463 57463 514
GlifName: uniE_077
Width: 506
Flags: HMW
LayerCount: 2
Fore
SplineSet
-171 45 m 0
 -171 139 -94 216 0 216 c 0
 87 216 131 317 131 550 c 0
 131 661 116 825 75 1188 c 0
 64 1281 129 1369 222 1381 c 0
 315 1393 403 1327 415 1234 c 0
 451 955 466 771 466 613 c 0
 466 77 333 -126 0 -126 c 0
 -94 -126 -171 -49 -171 45 c 0
EndSplineSet
Colour: ff00ff
EndChar

StartChar: uniE078
Encoding: 57464 57464 515
GlifName: uniE_078
Width: 674
Flags: HMW
LayerCount: 2
Back
SplineSet
-171 45 m 0
 -171 139 -94 216 0 216 c 0
 149 216 166 232 166 369 c 0
 166 673 149 909 122 1195 c 0
 113 1289 184 1373 277 1382 c 0
 370 1391 455 1321 464 1227 c 0
 491 937 508 685 508 369 c 0
 508 52 289 -126 0 -126 c 0
 -94 -126 -171 -49 -171 45 c 0
166 369 m 0
 166 463 243 540 337 540 c 0
 431 540 509 463 509 369 c 0
 509 243 542 216 673 216 c 2
 2722 216 l 2
 2816 216 2892 139 2892 45 c 0
 2892 -49 2816 -126 2722 -126 c 2
 673 -126 l 2
 409 -126 166 42 166 369 c 0
EndSplineSet
Fore
SplineSet
-171 45 m 0
 -171 139 -94 216 0 216 c 0
 149 216 166 232 166 369 c 0
 166 673 149 909 122 1195 c 0
 113 1289 184 1373 277 1382 c 0
 370 1391 455 1321 464 1227 c 0
 491 937 508 685 508 369 c 0
 508 52 289 -126 0 -126 c 0
 -94 -126 -171 -49 -171 45 c 0
166 369 m 0
 166 463 243 540 337 540 c 0
 431 540 509 463 509 369 c 0
 509 243 542 216 673 216 c 2
 674 216 l 2
 768 216 844 139 844 45 c 0
 844 -49 768 -126 674 -126 c 2
 673 -126 l 2
 409 -126 166 42 166 369 c 0
EndSplineSet
Colour: ffff
EndChar

StartChar: uniE079
Encoding: 57465 57465 516
GlifName: uniE_079
Width: 1352
Flags: HMW
LayerCount: 2
Back
SplineSet
751 737 m 0
 1039 737 1189 507 1189 236 c 0
 1189 -52 1000 -159 729 -159 c 0
 610 -159 494 -139 398 -122 c 0
 370 -117 364 -125 365 -147 c 2
 399 -743 l 2
 404 -844 327 -929 229 -929 c 0
 138 -929 64 -859 59 -768 c 2
 21 -91 l 2
 7 165 208 279 453 224 c 0
 554 201 653 181 747 181 c 0
 806 181 850 191 850 255 c 0
 850 322 828 397 751 397 c 0
 657 397 622 305 592 171 c 0
 574 92 514 34 427 37 c 0
 332 40 252 123 274 230 c 0
 322 468 462 737 751 737 c 0
913 333 m 0
 991 395 1104 377 1160 299 c 0
 1210 229 1220 216 1351 216 c 2
 3400 216 l 2
 3498 216 3570 137 3570 45 c 0
 3570 -47 3498 -126 3400 -126 c 2
 1351 -126 l 2
 1119 -126 982 -38 884 98 c 0
 828 173 847 280 913 333 c 0
EndSplineSet
Fore
SplineSet
751 737 m 0
 1039 737 1189 507 1189 236 c 0
 1189 -52 1000 -159 729 -159 c 0
 610 -159 494 -139 398 -122 c 0
 370 -117 364 -125 365 -147 c 2
 399 -743 l 2
 404 -844 327 -929 229 -929 c 0
 138 -929 64 -859 59 -768 c 2
 21 -91 l 2
 7 165 208 279 453 224 c 0
 554 201 653 181 747 181 c 0
 806 181 850 191 850 255 c 0
 850 322 828 397 751 397 c 0
 657 397 622 305 592 171 c 0
 574 92 514 34 427 37 c 0
 332 40 252 123 274 230 c 0
 322 468 462 737 751 737 c 0
913 333 m 0
 991 395 1104 377 1160 299 c 0
 1210 229 1220 216 1351 216 c 2
 1352 216 l 2
 1450 216 1522 137 1522 45 c 0
 1522 -47 1450 -126 1352 -126 c 2
 1351 -126 l 2
 1119 -126 982 -38 884 98 c 0
 828 173 847 280 913 333 c 0
EndSplineSet
Colour: ffff
EndChar

StartChar: uniE07A
Encoding: 57466 57466 517
GlifName: uniE_07A_
Width: 1114
Flags: HMW
LayerCount: 2
Back
SplineSet
-171 45 m 0
 -171 139 -94 216 0 216 c 0
 73 216 113 307 160 417 c 0
 231 583 321 790 573 790 c 0
 850 790 997 537 997 297 c 0
 997 73 870 -156 576 -156 c 0
 447 -156 319 -114 216 -35 c 0
 142 22 128 132 185 206 c 0
 242 280 352 294 426 237 c 0
 463 208 525 186 576 186 c 0
 642 186 663 239 663 289 c 0
 663 384 618 446 569 446 c 0
 504 446 469 362 427 258 c 0
 359 91 270 -126 0 -126 c 0
 -94 -126 -171 -49 -171 45 c 0
EndSplineSet
Fore
SplineSet
-171 45 m 0
 -171 139 -94 216 0 216 c 0
 95 216 140 301 224 470 c 0
 270 563 314 647 364 709 c 0
 424 781 534 791 606 731 c 0
 678 671 689 560 628 489 c 0
 588 443 540 374 517 322 c 0
 454 181 316 -126 0 -126 c 0
 -94 -126 -171 -49 -171 45 c 0
197 216 m 0
 197 384 237 538 366 711 c 0
 423 785 537 790 608 729 c 0
 679 668 685 560 626 487 c 0
 543 384 507 319 507 271 c 0
 507 218 547 186 622 186 c 0
 691 186 731 213 731 268 c 0
 731 326 692 388 601 474 c 0
 533 538 531 648 595 716 c 0
 659 784 769 786 837 722 c 0
 994 571 1074 402 1074 220 c 0
 1074 -12 900 -156 631 -156 c 0
 348 -156 197 -11 197 216 c 0
EndSplineSet
Colour: ff00ff
EndChar

StartChar: uniE07B
Encoding: 57467 57467 518
GlifName: uniE_07B_
Width: 1239
Flags: HMW
LayerCount: 2
Back
SplineSet
-171 45 m 0
 -171 139 -94 216 0 216 c 0
 95 216 140 301 224 470 c 0
 270 563 314 647 364 709 c 0
 424 781 534 791 606 731 c 0
 678 671 689 560 628 489 c 0
 588 443 540 374 517 322 c 0
 454 181 316 -126 0 -126 c 0
 -94 -126 -171 -49 -171 45 c 0
197 216 m 0
 197 384 237 538 366 711 c 0
 423 785 537 790 608 729 c 0
 679 668 685 560 626 487 c 0
 543 384 507 319 507 271 c 0
 507 218 547 186 622 186 c 0
 691 186 731 213 731 268 c 0
 731 326 692 388 601 474 c 0
 533 538 531 648 595 716 c 0
 659 784 769 786 837 722 c 0
 994 571 1074 402 1074 220 c 0
 1074 -12 900 -156 631 -156 c 0
 348 -156 197 -11 197 216 c 0
596 478 m 0
 523.863517881 537.298633606 531 656 599 721 c 0
 667 786 777.78459966 784.763630512 842 718 c 0
 968 587 1002.4267282 527.784080212 1049 405 c 0
 1104 260 1141 216 1238 216 c 2
 3287 216 l 2
 3381 216 3457 139 3457 45 c 0
 3457 -49 3381 -126 3287 -126 c 2
 1238 -126 l 2
 976 -126 852.628617208 19.6758939286 792 179 c 0
 770.200373586 236.286577709 714 381 596 478 c 0
EndSplineSet
Fore
SplineSet
-171 45 m 0
 -171 139 -94 216 0 216 c 0
 95 216 140 301 224 470 c 0
 270 563 314 647 364 709 c 0
 424 781 534 791 606 731 c 0
 678 671 689 560 628 489 c 0
 588 443 540 374 517 322 c 0
 454 181 316 -126 0 -126 c 0
 -94 -126 -171 -49 -171 45 c 0
197 216 m 0
 197 384 237 538 366 711 c 0
 423 785 537 790 608 729 c 0
 679 668 685 560 626 487 c 0
 543 384 507 319 507 271 c 0
 507 218 547 186 622 186 c 0
 691 186 731 213 731 268 c 0
 731 326 692 388 601 474 c 0
 533 538 531 648 595 716 c 0
 659 784 769 786 837 722 c 0
 994 571 1074 402 1074 220 c 0
 1074 -12 900 -156 631 -156 c 0
 348 -156 197 -11 197 216 c 0
596 478 m 0
 523.863517881 537.298633606 531 656 599 721 c 0
 667 786 777.78459966 784.763630512 842 718 c 0
 968 587 1002.4267282 527.784080212 1049 405 c 0
 1104 260 1141 216 1238 216 c 2
 1239 216 l 2
 1333 216 1409 139 1409 45 c 0
 1409 -49 1333 -126 1239 -126 c 2
 1238 -126 l 2
 976 -126 852.628617208 19.6758939286 792 179 c 0
 770.200373586 236.286577709 714 381 596 478 c 0
EndSplineSet
Colour: ffff
EndChar

StartChar: uniE07C
Encoding: 57468 57468 519
GlifName: uniE_07C_
Width: 1526
Flags: HMW
LayerCount: 2
Back
SplineSet
714 -596 m 0
 301 -596 19 -338 19 9 c 0
 19 153 53 317 105 454 c 0
 139 541 239 587 326 553 c 0
 413 519 459 419 425 332 c 0
 390 242 363 127 363 41 c 0
 363 -145 483 -254 716 -254 c 0
 949 -254 1083 -146 1083 47 c 0
 1083 145 1050 257 1001 370 c 0
 964 456 1005 558 1091 595 c 0
 1177 632 1280 590 1317 504 c 0
 1386 343 1427 175 1427 16 c 0
 1427 -337 1128 -596 714 -596 c 0
1029 300 m 0
 1002 390 1055 486 1144 513 c 0
 1233 540 1331 487 1358 398 c 0
 1391 291 1431 216 1525 216 c 2
 3574 216 l 1
 3668 216 3744 139 3744 45 c 0
 3744 -49 3668 -126 3574 -126 c 1
 1525 -126 l 2
 1317 -126 1095 82 1029 300 c 0
EndSplineSet
Fore
SplineSet
714 -596 m 0
 301 -596 19 -338 19 9 c 0
 19 153 53 317 105 454 c 0
 139 541 239 587 326 553 c 0
 413 519 459 419 425 332 c 0
 390 242 363 127 363 41 c 0
 363 -145 483 -254 716 -254 c 0
 949 -254 1083 -146 1083 47 c 0
 1083 145 1050 257 1001 370 c 0
 964 456 1005 558 1091 595 c 0
 1177 632 1280 590 1317 504 c 0
 1386 343 1427 175 1427 16 c 0
 1427 -337 1128 -596 714 -596 c 0
1029 300 m 0
 1002 390 1055 486 1144 513 c 0
 1233 540 1331 487 1358 398 c 0
 1391 291 1431 216 1525 216 c 2
 1526 216 l 1
 1620 216 1696 139 1696 45 c 0
 1696 -49 1620 -126 1526 -126 c 1
 1525 -126 l 2
 1317 -126 1095 82 1029 300 c 0
EndSplineSet
Colour: ffff
EndChar

StartChar: uniE07D
Encoding: 57469 57469 520
GlifName: uniE_07D_
Width: 1100
Flags: HMW
LayerCount: 2
Back
SplineSet
59 373 m 0
 59 566 178 734 410 841 c 0
 487 876 576 928 584 956 c 0
 610 1046 707 1099 796 1073 c 0
 886 1047 940 951 914 862 c 0
 875 727 746 619 556 529 c 0
 457 482 403 432 403 395 c 0
 403 361 441 338 569 338 c 0
 585 338 622 340 652 344 c 0
 745 357 833 291 846 198 c 0
 859 105 793 17 700 4 c 0
 656 -2 600 -4 569 -4 c 0
 209 -4 59 159 59 373 c 0
576 919 m 2
 567 1012 638 1096 732 1105 c 0
 825 1114 909 1043 918 949 c 2
 968 391 l 2
 981 242 1009 216 1099 216 c 2
 3148 216 l 2
 3242 216 3318 139 3318 45 c 0
 3318 -49 3242 -126 3148 -126 c 2
 1099 -126 l 2
 755 -126 651 88 626 361 c 2
 576 919 l 2
EndSplineSet
Fore
SplineSet
59 373 m 0
 59 566 178 734 410 841 c 0
 487 876 576 928 584 956 c 0
 610 1046 707 1099 796 1073 c 0
 886 1047 940 951 914 862 c 0
 875 727 746 619 556 529 c 0
 457 482 403 432 403 395 c 0
 403 361 441 338 569 338 c 0
 585 338 622 340 652 344 c 0
 745 357 833 291 846 198 c 0
 859 105 793 17 700 4 c 0
 656 -2 600 -4 569 -4 c 0
 209 -4 59 159 59 373 c 0
576 919 m 2
 567 1012 638 1096 732 1105 c 0
 825 1114 909 1043 918 949 c 2
 968 391 l 2
 981 242 1009 216 1099 216 c 2
 1100 216 l 2
 1194 216 1270 139 1270 45 c 0
 1270 -49 1194 -126 1100 -126 c 2
 1099 -126 l 2
 755 -126 651 88 626 361 c 2
 576 919 l 2
EndSplineSet
Colour: ffff
EndChar

StartChar: uniE07E
Encoding: 57470 57470 521
GlifName: uniE_07E_
Width: 1359
Flags: HMW
LayerCount: 2
Back
SplineSet
-171 45 m 0
 -171 139 -94 216 0 216 c 0
 372 216 586 300 586 456 c 0
 586 527 533 587 473 587 c 0
 409 587 364 524 364 454 c 0
 364 303 582 216 871 216 c 0
 964 216 1013 246 1013 306 c 0
 1013 420 812.118164062 552.694335938 139.389648438 646.41796875 c 0
 41.7509765625 660.963867188 -23.57421875 753.623046875 -3.611328125 846.716796875 c 0
 16.4375 938.815429688 101.650390625 997.46484375 194.134765625 984.4765625 c 0
 1069.58789062 868.334960938 1323 638 1323 287 c 0
 1323 40 1144 -126 877 -126 c 0
 459 -126 30 110 30 422 c 0
 30 693 236 928 474 928 c 0
 679 928 851 721 851 464 c 0
 851 97 514 -126 0 -126 c 0
 -94 -126 -171 -49 -171 45 c 0
EndSplineSet
Fore
SplineSet
-171 45 m 0
 -171 139 -94 216 0 216 c 0
 372 216 586 300 586 456 c 0
 586 527 533 587 473 587 c 0
 409 587 364 524 364 454 c 0
 364 303 582 216 871 216 c 0
 964 216 1013 246 1013 306 c 0
 1013 420 871.530273438 465.359375 678 495 c 0
 580.421875 509.9453125 515.036132812 602.205078125 534.999023438 695.298828125 c 0
 555.047851562 787.397460938 640.1484375 845.223632812 732.745117188 833.05859375 c 0
 1129 781 1323 638 1323 287 c 0
 1323 40 1144 -126 877 -126 c 0
 459 -126 30 110 30 422 c 0
 30 693 236 928 474 928 c 0
 679 928 851 721 851 464 c 0
 851 97 514 -126 0 -126 c 0
 -94 -126 -171 -49 -171 45 c 0
EndSplineSet
Colour: ff00ff
EndChar

StartChar: uniE07F
Encoding: 57471 57471 522
GlifName: uniE_07F_
Width: 990
Flags: HMW
LayerCount: 2
Back
SplineSet
-171 45 m 0
 -171 139 -94 216 0 216 c 0
 404 216 590 380 590 505 c 0
 590 547 578 573 532 573 c 0
 449 573 385 437 385 136 c 0
 385 -177 488 -300 570 -300 c 0
 601 -300 612 -287 612 -263 c 0
 612 -227 591 -172 570 -115 c 0
 547 -54 525 6 525 45 c 0
 525 138 602 216 696 216 c 2
 3038 216 l 2
 3132 216 3208 139 3208 45 c 0
 3208 -49 3132 -126 3038 -126 c 2
 922 -126 l 1
 926 -163 927 -196 927 -232 c 0
 927 -400 835 -644 587 -644 c 0
 205 -644 42 -163 42 136 c 0
 42 437 151 930 567 930 c 0
 782 930 909 723 909 546 c 0
 909 200 532 -126 0 -126 c 0
 -94 -126 -171 -49 -171 45 c 0
EndSplineSet
Fore
SplineSet
-171 45 m 0
 -171 139 -94 216 0 216 c 0
 404 216 590 380 590 505 c 0
 590 547 578 573 532 573 c 0
 449 573 385 437 385 136 c 0
 385 -177 488 -300 570 -300 c 0
 601 -300 612 -287 612 -263 c 0
 612 -227 591 -172 570 -115 c 0
 547 -54 525 6 525 45 c 0
 525 138 602 216 696 216 c 2
 990 216 l 2
 1084 216 1160 139 1160 45 c 0
 1160 -49 1084 -126 990 -126 c 2
 922 -126 l 1
 926 -163 927 -196 927 -232 c 0
 927 -400 835 -644 587 -644 c 0
 205 -644 42 -163 42 136 c 0
 42 437 151 930 567 930 c 0
 782 930 909 723 909 546 c 0
 909 200 532 -126 0 -126 c 0
 -94 -126 -171 -49 -171 45 c 0
EndSplineSet
Colour: ffff
EndChar

StartChar: uniE080
Encoding: 57472 57472 523
GlifName: uniE_080
Width: 951
Flags: HMW
LayerCount: 2
Back
SplineSet
474 -126 m 0
 189 -126 33 15 33 280 c 0
 33 568 228 787 460 787 c 0
 729 787 920 521 920 173 c 0
 920 -251 582 -584 213 -653 c 0
 122 -670 30 -607 13 -515 c 0
 -4 -423 61 -340 150 -315 c 0
 445 -232 590 -42 590 160 c 0
 590 294 539 455 452 455 c 0
 399 455 352 404 352 312 c 0
 352 239 391 216 471 216 c 0
 2999 216 l 2
 3093 216 3169 139 3169 45 c 0
 3169 -49 3093 -126 2999 -126 c 2
 474 -126 l 0
EndSplineSet
Fore
SplineSet
474 -126 m 0
 189 -126 33 15 33 280 c 0
 33 568 228 787 460 787 c 0
 729 787 920 521 920 173 c 0
 920 -251 582 -584 213 -653 c 0
 122 -670 30 -607 13 -515 c 0
 -4 -423 61 -340 150 -315 c 0
 445 -232 590 -42 590 160 c 0
 590 294 539 455 452 455 c 0
 399 455 352 404 352 312 c 0
 352 239 391 216 471 216 c 0
 951 216 l 2
 1045 216 1121 139 1121 45 c 0
 1121 -49 1045 -126 951 -126 c 2
 474 -126 l 0
EndSplineSet
Colour: ffff
EndChar

StartChar: uniE081
Encoding: 57473 57473 524
GlifName: uniE_081
Width: 1272
Flags: HMW
LayerCount: 2
Fore
SplineSet
36 77 m 0
 44 171 130 243 222 233 c 0
 318 222 384 217 457 217 c 0
 782 217 888 314 888 445 c 0
 888 674 872 989 846 1187 c 0
 834 1279 901 1367 994 1379 c 0
 1087 1391 1174 1323 1186 1231 c 0
 1216 1006 1232 689 1232 445 c 0
 1232 125 978 -120 408 -120 c 0
 335 -120 276 -117 192 -108 c 0
 98 -98 28 -17 36 77 c 0
162 1128 m 0
 131 1216 178 1315 266 1347 c 0
 354 1379 452 1331 484 1243 c 0
 584 959 605 835 633 548 c 0
 641 454 570 370 476 362 c 0
 382 354 299 424 291 518 c 0
 267 773 250 879 162 1128 c 0
EndSplineSet
Colour: ff00ff
EndChar

StartChar: uniE082
Encoding: 57474 57474 525
GlifName: uniE_082
Width: 1441
Flags: HMW
LayerCount: 2
Back
SplineSet
846 1187 m 0
 834 1279 901 1367 994 1379 c 0
 1087 1391 1174 1323 1186 1231 c 0
 1216 1006 1232 689 1232 445 c 0
 1232 125 978 -120 408 -120 c 0
 335 -120 276 -117 192 -108 c 0
 98 -98 28 -17 36 77 c 0
 44 171 130 243 222 233 c 0
 318 222 384 217 457 217 c 0
 782 217 888 314 888 445 c 0
 888 674 872 989 846 1187 c 0
162 1128 m 0
 131 1216 178 1315 266 1347 c 0
 354 1379 452 1331 484 1243 c 0
 584 959 605 835 633 548 c 0
 641 454 570 370 476 362 c 0
 382 354 299 424 291 518 c 0
 267 773 250 879 162 1128 c 0
889 445 m 0
 889 539 966 616 1060 616 c 0
 1154 616 1232 539 1232 445 c 0
 1232 275 1304 216 1440 216 c 2
 3489 216 l 2
 3583 216 3659 139 3659 45 c 0
 3659 -49 3583 -126 3489 -126 c 2
 1440 -126 l 2
 1156 -126 889 81 889 445 c 0
EndSplineSet
Fore
SplineSet
846 1187 m 0
 834 1279 901 1367 994 1379 c 0
 1087 1391 1174 1323 1186 1231 c 0
 1216 1006 1232 689 1232 445 c 0
 1232 125 978 -120 408 -120 c 0
 335 -120 276 -117 192 -108 c 0
 98 -98 28 -17 36 77 c 0
 44 171 130 243 222 233 c 0
 318 222 384 217 457 217 c 0
 782 217 888 314 888 445 c 0
 888 674 872 989 846 1187 c 0
162 1128 m 0
 131 1216 178 1315 266 1347 c 0
 354 1379 452 1331 484 1243 c 0
 584 959 605 835 633 548 c 0
 641 454 570 370 476 362 c 0
 382 354 299 424 291 518 c 0
 267 773 250 879 162 1128 c 0
889 445 m 0
 889 539 966 616 1060 616 c 0
 1154 616 1232 539 1232 445 c 0
 1232 275 1304 216 1440 216 c 2
 1441 216 l 2
 1535 216 1611 139 1611 45 c 0
 1611 -49 1535 -126 1441 -126 c 2
 1440 -126 l 2
 1156 -126 889 81 889 445 c 0
EndSplineSet
Colour: ffff
EndChar

StartChar: uniE083
Encoding: 57475 57475 526
GlifName: uniE_083
Width: 1630
Flags: HMW
LayerCount: 2
Fore
SplineSet
16 379 m 0
 16 491 36 590 75 662 c 0
 117 746 222 781 306 738 c 0
 389 696 415 614 382 507 c 0
 370 472 360 408 360 365 c 0
 360 234 461 186 786 186 c 0
 1128 186 1246 260 1246 421 c 0
 1246 653 1229 996 1204 1187 c 0
 1192 1279 1259 1367 1352 1379 c 0
 1445 1391 1532 1323 1544 1231 c 0
 1573 1013 1590 668 1590 421 c 0
 1590 60 1346 -156 789 -156 c 0
 245 -156 16 11 16 379 c 0
EndSplineSet
Colour: ff00ff
EndChar

StartChar: uniE00F
Encoding: 57359 57359 527
GlifName: uniE_00F_
Width: 1067
Flags: HMW
LayerCount: 2
Fore
SplineSet
102 1051 m 0
 54 1109 57 1199 118 1243 c 0
 316 1382 415 1468 595 1654 c 0
 648 1708 738 1696 786 1638 c 0
 834 1580 817 1504 770 1446 c 0
 612 1249 512 1164 293 1035 c 0
 228 997 150 993 102 1051 c 0
EndSplineSet
EndChar

StartChar: uniE058
Encoding: 57432 57432 532
GlifName: uniE_058
Width: 1240
Flags: HMW
LayerCount: 2
Back
SplineSet
17 -84 m 0
 17 116 54 268 131 478 c 0
 163 566 263 612 351 580 c 0
 439 548 485 448 453 360 c 0
 392 191 361 43 361 -75 c 0
 361 -274 478 -338 715 -338 c 0
 912 -338 1039 -295 1039 -232 c 0
 1039 -182 940 -147 763 -125 c 0
 683 -115 619 -49 613 32 c 0
 605 130 685 216 784 216 c 2
 3288 216 l 2
 3382 216 3458 139 3458 45 c 0
 3458 -49 3382 -126 3288 -126 c 2
 1328 -126 l 1
 1352 -186 1363 -239 1363 -288 c 0
 1363 -507 1087 -682 702 -682 c 0
 291 -682 17 -446 17 -84 c 0
EndSplineSet
Fore
SplineSet
17 -84 m 0
 17 116 54 268 131 478 c 0
 163 566 263 612 351 580 c 0
 439 548 485 448 453 360 c 0
 392 191 361 43 361 -75 c 0
 361 -274 478 -338 715 -338 c 0
 912 -338 1039 -295 1039 -232 c 0
 1039 -182 940 -147 763 -125 c 0
 683 -115 619 -49 613 32 c 0
 605 130 685 216 784 216 c 2
 1240 216 l 2
 1334 216 1410 139 1410 45 c 0
 1410 -49 1334 -126 1240 -126 c 2
 1328 -126 l 1
 1352 -186 1363 -239 1363 -288 c 0
 1363 -507 1087 -682 702 -682 c 0
 291 -682 17 -446 17 -84 c 0
EndSplineSet
Colour: ffff
EndChar

StartChar: uniE024
Encoding: 57380 57380 559
GlifName: uniE_024
Width: 522
Flags: HMW
LayerCount: 2
Fore
SplineSet
515 1853 m 0
 616 1853 696 1781 696 1680 c 0
 696 1559 595 1495 485 1495 c 0
 407 1495 350.48684817 1519.89759435 298 1545 c 0
 252 1567 208 1586 156 1586 c 0
 98 1586 55 1518 23 1466 c 0
 7 1440 -31 1429 -60 1448 c 0
 -85 1465 -93 1499 -77 1528 c 0
 -32 1602 34 1704 156 1704 c 0
 215 1704 265 1683 316 1660 c 0
 369.504784654 1635.87039123 426 1613 494 1613 c 0
 532 1613 578 1629 578 1678 c 0
 578 1714 550 1735 511 1735 c 0
 430 1735 361 1614 288 1476 c 0
 275 1451 247 1431 214 1442 c 0
 186 1451 161 1487 178 1520 c 0
 262 1685 358 1853 515 1853 c 0
110 1123 m 0
 98 1216 164 1304 257 1316 c 0
 350 1328 438 1262 450 1169 c 0
 481 941 496 706 496 475 c 0
 496 321 489 164 475 -13 c 0
 467 -106 384 -178 290 -170 c 0
 197 -162 125 -79 133 15 c 0
 146 163 152 315 152 468 c 0
 152 696 138 916 110 1123 c 0
EndSplineSet
Colour: ff00ff
EndChar

StartChar: uniE025
Encoding: 57381 57381 560
GlifName: uniE_025
Width: 522
Flags: HMW
LayerCount: 2
Fore
SplineSet
515 1874 m 0
 631 1874 717 1792 717 1678 c 0
 717 1546 606 1474 490 1474 c 0
 410 1474 357 1498 306 1523 c 0
 260 1545 216 1565 156 1565 c 0
 108 1565 67 1497 41 1455 c 0
 19 1419 -33 1405 -72 1431 c 0
 -106 1455 -116 1500 -94 1539 c 0
 -48 1615 22 1725 156 1725 c 0
 222 1725 273 1704 326 1680 c 0
 378 1656 435 1634 504 1634 c 0
 521 1634 557 1640 557 1674 c 0
 557 1701 539 1714 509 1714 c 0
 447 1714 392 1612 308 1468 c 0
 290 1434 253 1407 208 1422 c 0
 170 1434 134 1484 158 1528 c 0
 255 1704 349 1874 515 1874 c 0
EndSplineSet
Colour: ff00ff
EndChar

StartChar: endash
Encoding: 8211 8211 562
GlifName: endash
Width: 1206
Flags: HMW
LayerCount: 2
Fore
SplineSet
19 451 m 128
 16 545 90 626 184 629 c 0
 342 634 493 636 645 636 c 0
 769 636 893 635 1023 632 c 0
 1117 630 1190 547 1186 453 c 128
 1182 359 1101 288 1007 290 c 0
 890 293 775 294 661 294 c 0
 506 294 352 291 196 286 c 0
 102 283 22 357 19 451 c 128
EndSplineSet
EndChar

StartChar: emdash
Encoding: 8212 8212 563
GlifName: emdash
Width: 1761
Flags: HMW
LayerCount: 2
Fore
SplineSet
19 451 m 128
 16 545 90 626 184 629 c 0
 382 635 627 638 877 638 c 0
 1120 638 1368 635 1578 632 c 0
 1672 630 1745 547 1741 453 c 128
 1737 359 1656 288 1562 290 c 0
 1376 293 1155 295 933 295 c 0
 666 295 400 293 196 286 c 0
 102 283 22 357 19 451 c 128
EndSplineSet
EndChar

StartChar: uniE059
Encoding: 57433 57433 581
GlifName: uniE_059
Width: 441
Flags: HMW
LayerCount: 2
Fore
SplineSet
66 223 m 6
 66 320 140 393 236 393 c 4
 333 393 406 319 406 223 c 6
 406 140 l 6
 406 -283 181 -545 -141 -650 c 4
 -240 -682 -326 -619 -353 -548 c 4
 -392 -444 -328 -352 -247 -326 c 4
 -47 -260 66 -122 66 140 c 6
 66 223 l 6
EndSplineSet
Colour: ff00ff
EndChar

StartChar: uniE05A
Encoding: 57434 57434 582
GlifName: uniE_05A_
Width: 546
Flags: HMW
LayerCount: 2
Back
SplineSet
66 223 m 2
 66 320 140 393 236 393 c 0
 333 393 406 319 406 223 c 2
 406 140 l 2
 406 -283 181 -545 -141 -650 c 0
 -240 -682 -326 -619 -353 -548 c 0
 -392 -444 -328 -352 -247 -326 c 0
 -47 -260 66 -122 66 140 c 2
 66 223 l 2
2764 45 m 0
 2764 -52 2690 -125 2594 -125 c 2
 545 -125 l 2
 323 -125 182.592773438 -10.3671875 93 129 c 0
 75 157 66 196 66 223 c 0
 66 320 140 393 236 393 c 0
 304 393 355 355 382 311 c 0
 414 257 453 215 545 215 c 2
 2594 215 l 2
 2691 215 2764 141 2764 45 c 0
EndSplineSet
Fore
SplineSet
66 223 m 2
 66 320 140 393 236 393 c 0
 333 393 406 319 406 223 c 2
 406 140 l 2
 406 -283 181 -545 -141 -650 c 0
 -240 -682 -326 -619 -353 -548 c 0
 -392 -444 -328 -352 -247 -326 c 0
 -47 -260 66 -122 66 140 c 2
 66 223 l 2
716 45 m 0
 716 -52 642 -125 546 -125 c 2
 545 -125 l 2
 323 -125 182.592773438 -10.3671875 93 129 c 0
 75 157 66 196 66 223 c 0
 66 320 140 393 236 393 c 0
 304 393 355 355 382 311 c 0
 414 257 453 215 545 215 c 2
 546 215 l 2
 643 215 716 141 716 45 c 0
EndSplineSet
Colour: ffff
EndChar

StartChar: uniE084
Encoding: 57476 57476 589
GlifName: uniE_084
Width: 2125
Flags: HMW
LayerCount: 2
Fore
SplineSet
981 1180 m 0
 1102 1180 1161 1077 1161 953 c 0
 1161 702 850 541 656 446 c 0
 485 363 377 306 377 271 c 0
 377 225 660 215 935 215 c 0
 1294 215 1632 236 1866 313 c 0
 1884 319 1905 323 1925 323 c 0
 2019 323 2095 247 2095 153 c 0
 2095 77 2046 15 1984 -7 c 0
 1705 -109 1340 -125 935 -125 c 0
 446 -125 30 -88 30 262 c 0
 30 524 312 663 502 751 c 0
 733 857 821 898 821 943 c 0
 821 947 821 951 820 955 c 0
 815 972 811 991 811 1010 c 0
 811 1104 887 1180 981 1180 c 0
EndSplineSet
EndChar

StartChar: uniE085
Encoding: 57477 57477 590
GlifName: uniE_085
Width: 987
Flags: HMW
LayerCount: 2
Fore
SplineSet
987 216 m 2
 1083 216 1157 141 1157 45 c 0
 1157 -51 1083 -126 987 -126 c 2
 986 -126 l 2
 807 -126 667 -26 548 189 c 0
 514 251 500 269 485 269 c 0
 445 269 398 89 374 -156 c 0
 366 -238 293 -299 205 -299 c 0
 98 -299 20 -206 37 -101 c 0
 120 409 273 688 470 688 c 0
 592 688 671 619 770 426 c 0
 851 269 905 216 986 216 c 2
 987 216 l 2
EndSplineSet
EndChar

StartChar: uniE086
Encoding: 57478 57478 591
GlifName: uniE_086
Width: 1001
Flags: HMW
LayerCount: 2
Fore
SplineSet
639 152 m 1
 739 197 864.426117983 215.469900268 1001 215.469900268 c 0
 1097.51165091 215.469900268 1171.46990027 141.457499346 1171.46990027 45 c 0
 1171.46990027 -51.5116509111 1097.45749935 -125.469900268 1001 -125.469900268 c 0
 826.304752627 -125.469900268 718.469900268 -130.597094734 718.469900268 -295 c 0
 718.469900268 -350.67285346 728.692913952 -426.336040535 753.279957347 -522.276322878 c 0
 756.714803821 -534.522548896 759.469900268 -547.431047898 759.469900268 -566 c 0
 759.469900268 -662.511650911 685.457499346 -736.469900268 589 -736.469900268 c 0
 503.597317145 -736.469900268 441.926599483 -676.533791032 424.389841051 -608.438931163 c 0
 366.006560384 -381.73789453 336.625976562 -210.998046875 314 -34 c 1
 228 -90 113.13030409 -125.469900268 -7.1054273576e-15 -125.469900268 c 0
 -96.5116509111 -125.469900268 -170.469900268 -51.4574993462 -170.469900268 45 c 0
 -170.469900268 141.511650911 -96.4574993462 215.469900268 7.1054273576e-15 215.469900268 c 0
 159.657496229 215.469900268 252 366 300.864257812 478.494140625 c 0
 330.346031801 546.365145359 386.508789062 581.859375 456.53125 581.859375 c 0
 549.333984375 581.859375 626.524382629 505.876370516 627 412 c 0
 627.291992188 354.3671875 632 216 639 152 c 1
EndSplineSet
EndChar

StartChar: uniE087
Encoding: 57479 57479 592
GlifName: uniE_087
Width: 1579
Flags: HMW
LayerCount: 2
Fore
SplineSet
1357 -519 m 0
 1357 -613 1280.84690544 -683.637319689 1187 -689 c 0
 312 -739 30 -619 30 -339 c 0
 30 -1 550 215 1578 215 c 2
 1579 215 l 2
 1673 215 1749 139 1749 45 c 0
 1749 -49 1673 -125 1579 -125 c 2
 1578 -125 l 2
 998 -125 420 -220 420 -315 c 0
 420 -361 526 -399 1187 -349 c 0
 1280.73222126 -341.909816848 1357 -425 1357 -519 c 0
EndSplineSet
EndChar

StartChar: uni06D4
Encoding: 1748 1748 597
GlifName: uni06D_4
Width: 994
VWidth: 1608
Flags: HMW
LayerCount: 2
Fore
SplineSet
20 -20 m 0
 9 73 76 160 169 171 c 0
 421.9453125 201.66015625 551.532226562 203.793945312 811 192 c 0
 905 188 978 107 974 13 c 0
 970 -81 889 -154 795 -150 c 0
 555.814453125 -138.610351562 440.1875 -141.3125 211 -169 c 0
 118 -180 31 -113 20 -20 c 0
EndSplineSet
Colour: ffff00
EndChar

StartChar: minute
Encoding: 8242 8242 599
GlifName: minute
Width: 514
Flags: HMW
LayerCount: 2
Fore
SplineSet
94 870 m 0
 50 896 34 954 60 998 c 2
 290 1394 l 2
 316 1438 376 1454 420 1428 c 0
 464 1402 480 1344 454 1300 c 2
 224 904 l 2
 198 860 138 844 94 870 c 0
EndSplineSet
EndChar

StartChar: uniE088
Encoding: 57480 57480 604
GlifName: uniE_088
Width: 1741
Flags: MW
LayerCount: 2
Fore
SplineSet
1131 740 m 1
 1363 675 1711 577 1711 278 c 0
 1711 -123 1163 -158 757 -158 c 0
 539 -158 320 -142 155 -102 c 0
 51 -77 8 9 30 105 c 0
 50 193 136 253 247 227 c 0
 371 198 579 184 767 184 c 0
 1046 184 1360 218 1360 276 c 0
 1360 336 993 435 703 490 c 0
 565 517 514 703 645 802 c 2
 1245 1253 l 2
 1323 1311 1428 1290 1481 1223 c 0
 1543 1143 1516 1031 1449 980 c 2
 1131 740 l 1
EndSplineSet
EndChar

StartChar: uniE089
Encoding: 57481 57481 605
GlifName: uniE_089
Width: 1059
Flags: MW
LayerCount: 2
Fore
SplineSet
0 216 m 1
 279 216 693 218 693 276 c 0
 693 336 326 435 36 490 c 0
 -102 517 -153 703 -22 802 c 2
 578 1253 l 2
 656 1311 761 1290 814 1223 c 0
 876 1143 849 1031 782 980 c 2
 464 740 l 1
 696 675 1044 577 1044 278 c 0
 1044 -123 406 -126 0 -126 c 1
 -94 -126 -170 -49 -170 45 c 0
 -170 139 -94 216 0 216 c 1
EndSplineSet
EndChar

StartChar: uniE08A
Encoding: 57482 57482 606
GlifName: uniE_08A_
Width: 1266
Flags: MW
LayerCount: 2
Fore
SplineSet
1436 45 m 0
 1436 -52 1362 -125 1266 -125 c 2
 1265 -125 l 2
 1030 -125 846 34 705 273 c 0
 650 366 686 476 768 518 c 0
 855 563 958 521 994 455 c 0
 1077 301 1160 215 1265 215 c 2
 1266 215 l 2
 1363 215 1436 141 1436 45 c 0
0 216 m 1
 279 216 693 218 693 276 c 0
 693 336 326 435 36 490 c 0
 -102 517 -153 703 -22 802 c 2
 578 1253 l 2
 656 1311 761 1290 814 1223 c 0
 876 1143 849 1031 782 980 c 2
 464 740 l 1
 696 675 1044 577 1044 278 c 0
 1044 -123 406 -126 0 -126 c 1
 -94 -126 -170 -49 -170 45 c 0
 -170 139 -94 216 0 216 c 1
EndSplineSet
EndChar

StartChar: uniE08B
Encoding: 57483 57483 607
GlifName: uniE_08B_
Width: 1941
Flags: MW
LayerCount: 2
Fore
SplineSet
2111 45 m 0
 2111 -52 2037 -125 1941 -125 c 2
 1940 -125 l 2
 1705 -125 1513 34 1372 273 c 0
 1317 366 1353 476 1435 518 c 0
 1522 563 1625 521 1661 455 c 0
 1744 301 1835 215 1940 215 c 2
 1941 215 l 2
 2038 215 2111 141 2111 45 c 0
1131 740 m 1
 1363 675 1711 577 1711 278 c 0
 1711 -123 1163 -158 757 -158 c 0
 539 -158 320 -142 155 -102 c 0
 51 -77 8 9 30 105 c 0
 50 193 136 253 247 227 c 0
 371 198 579 184 767 184 c 0
 1046 184 1360 218 1360 276 c 0
 1360 336 993 435 703 490 c 0
 565 517 514 703 645 802 c 2
 1245 1253 l 2
 1323 1311 1428 1290 1481 1223 c 0
 1543 1143 1516 1031 1449 980 c 2
 1131 740 l 1
EndSplineSet
EndChar

StartChar: uni06DD
Encoding: 1757 1757 611
GlifName: uni06D_D_
Width: 2300
Flags: HW
LayerCount: 2
Back
SplineSet
280 1790 m 1
 607 1859 873 2005 1142 2203 c 1
 1411 2005 1693 1859 2020 1790 c 1025
2020 1790 m 0
 886.24137931 1737.13107511 95 1368.75405007 95 632 c 0
 95 -104.754050074 886.24137931 -473.13107511 2020 -526 c 1024
280 1790 m 0
 1413.75862069 1737.13107511 2205 1368.75405007 2205 632 c 0
 2205 -104.754050074 1413.75862069 -473.13107511 280 -526 c 1024
2020 -526 m 1
 1693 -595 1427 -741 1158 -939 c 1
 889 -741 607 -595 280 -526 c 1025
EndSplineSet
Fore
SplineSet
1142 2345 m 0
 1173 2345 1202 2336 1226 2318 c 0
 1499 2116 1762 1992 2049 1929 c 0
 2115 1915 2162 1856 2162 1790 c 0
 2162 1699 2079 1632 1990 1651 c 0
 1699 1712 1422 1835 1142 2029 c 1
 865 1836 600 1716 310 1652 c 0
 221 1632 138 1699 138 1790 c 0
 138 1857 186 1915 251 1929 c 0
 530 1988 777 2107 1058 2318 c 0
 1082 2336 1110 2345 1142 2345 c 0
237 632 m 0
 237 23.7368421053 850.338235294 -323.842105263 2027 -384 c 0
 2103 -388 2162 -451 2162 -526 c 0
 2162 -607 2095 -671 2013 -668 c 0
 697.632034632 -620.333333333 -47 -149.733333333 -47 632 c 0
 -47 1413.73333333 697.632034632 1884.33333333 2013 1932 c 0
 2095 1935 2162 1871 2162 1790 c 0
 2162 1714 2102 1652 2027 1648 c 0
 859.990196078 1594.52631579 237 1241.09868421 237 632 c 0
2347 632 m 0
 2347 -149.733333333 1602.36796537 -620.333333333 287 -668 c 0
 205 -671 138 -607 138 -526 c 0
 138 -450 198 -388 273 -384 c 0
 1440.00980392 -330.526315789 2063 22.9013157895 2063 632 c 0
 2063 1240.26315789 1449.66176471 1587.84210526 273 1648 c 0
 197 1652 138 1715 138 1790 c 0
 138 1871 205 1935 287 1932 c 0
 1602.36796537 1884.33333333 2347 1413.73333333 2347 632 c 0
1158 -1081 m 0
 1127 -1081 1097 -1071 1074 -1054 c 0
 802 -853 538 -728 251 -665 c 0
 185 -651 138 -592 138 -526 c 0
 138 -435 221 -368 310 -387 c 0
 601 -448 878 -571 1158 -765 c 1
 1435 -572 1700 -452 1990 -388 c 0
 2079 -368 2162 -435 2162 -526 c 0
 2162 -593 2114 -651 2049 -665 c 0
 1737 -731 1482 -854 1242 -1054 c 0
 1224 -1069 1187 -1081 1158 -1081 c 0
EndSplineSet
EndChar

StartChar: uniE08C
Encoding: 57484 57484 612
GlifName: uniE_08C_
Width: 2125
Flags: HW
LayerCount: 2
Fore
SplineSet
1161 943 m 0
 1161 701 850 541 656 446 c 0
 485.290107163 362.404949384 377 306 377 271 c 0
 377 225 660 215 935 215 c 0
 1294 215 1632 236 1866 313 c 0
 1884 319 1905 323 1925 323 c 0
 2019 323 2095 247 2095 153 c 0
 2095 77 2046 15 1984 -7 c 0
 1705 -109 1340 -125 935 -125 c 0
 446 -125 30 -88 30 262 c 0
 30 524 311.686519089 663.680019563 502 751 c 0
 732.624101194 856.815373185 821 898 821 943 c 0
 821 1037 897 1114 991 1114 c 0
 1085 1114 1161 1037 1161 943 c 0
EndSplineSet
EndChar

StartChar: uni25CC
Encoding: 9676 9676 631
Width: 1802
Flags: HW
AnchorPoint: "Anchor-1" 851 13 basechar 0
AnchorPoint: "Anchor-3" 851 1525 basechar 0
LayerCount: 2
Fore
SplineSet
773 91 m 256
 773 149 793 169 851 169 c 256
 909 169 929 149 929 91 c 256
 929 33 909 13 851 13 c 256
 793 13 773 33 773 91 c 256
773 1447 m 256
 773 1505 793 1525 851 1525 c 256
 909 1525 929 1505 929 1447 c 256
 929 1389 909 1369 851 1369 c 256
 793 1369 773 1389 773 1447 c 256
1529 691 m 256
 1471 691 1451 711 1451 769 c 256
 1451 827 1471 847 1529 847 c 256
 1587 847 1607 827 1607 769 c 256
 1607 711 1587 691 1529 691 c 256
173 691 m 256
 115 691 95 711 95 769 c 256
 95 827 115 847 173 847 c 256
 231 847 251 827 251 769 c 256
 251 711 231 691 173 691 c 256
1252 290 m 256
 1252 348 1272 368 1330 368 c 256
 1388 368 1408 348 1408 290 c 256
 1408 232 1388 212 1330 212 c 256
 1272 212 1252 232 1252 290 c 256
294 1248 m 256
 294 1306 314 1326 372 1326 c 256
 430 1326 450 1306 450 1248 c 256
 450 1190 430 1170 372 1170 c 256
 314 1170 294 1190 294 1248 c 256
1330 1170 m 256
 1272 1170 1252 1190 1252 1248 c 256
 1252 1306 1272 1326 1330 1326 c 256
 1388 1326 1408 1306 1408 1248 c 256
 1408 1190 1388 1170 1330 1170 c 256
372 212 m 256
 314 212 294 232 294 290 c 256
 294 348 314 368 372 368 c 256
 430 368 450 348 450 290 c 256
 450 232 430 212 372 212 c 256
514 143 m 256
 514 201 534 220 592 220 c 256
 650 220 670 201 670 143 c 256
 670 85 650 64 592 64 c 256
 534 64 514 85 514 143 c 256
1110 1474 m 256
 1168 1474 1188 1453 1188 1395 c 256
 1188 1337 1168 1318 1110 1318 c 256
 1052 1318 1032 1337 1032 1395 c 256
 1032 1453 1052 1474 1110 1474 c 256
1477 432 m 256
 1419 432 1400 452 1400 510 c 256
 1400 568 1419 588 1477 588 c 256
 1535 588 1556 568 1556 510 c 256
 1556 452 1535 432 1477 432 c 256
146 1028 m 256
 146 1086 167 1106 225 1106 c 256
 283 1106 302 1086 302 1028 c 256
 302 970 283 950 225 950 c 256
 167 950 146 970 146 1028 c 256
1032 143 m 256
 1032 201 1052 220 1110 220 c 256
 1168 220 1188 201 1188 143 c 256
 1188 85 1168 64 1110 64 c 256
 1052 64 1032 85 1032 143 c 256
514 1395 m 256
 514 1453 534 1474 592 1474 c 256
 650 1474 670 1453 670 1395 c 256
 670 1337 650 1318 592 1318 c 256
 534 1318 514 1337 514 1395 c 256
1477 950 m 256
 1419 950 1400 970 1400 1028 c 256
 1400 1086 1419 1106 1477 1106 c 256
 1535 1106 1556 1086 1556 1028 c 256
 1556 970 1535 950 1477 950 c 256
225 432 m 256
 167 432 146 452 146 510 c 256
 146 568 167 588 225 588 c 256
 283 588 302 568 302 510 c 256
 302 452 283 432 225 432 c 256
EndSplineSet
EndChar

StartChar: fraction
Encoding: 8260 8260 637
Width: 2016
Flags: HW
LayerCount: 2
Fore
SplineSet
415 -41 m 4
 369 2 366 79 409 125 c 4
 761 498 1206 1084 1420 1470 c 4
 1451 1525 1525 1546 1579 1516 c 4
 1634 1485 1654 1413 1624 1358 c 4
 1393 944 949 356 581 -35 c 4
 538 -82 461 -84 415 -41 c 4
EndSplineSet
EndChar

StartChar: uni2074
Encoding: 8308 8308 638
Width: 778
Flags: HW
LayerCount: 2
Fore
SplineSet
100 1042 m 0
 100 1058 104 1071 110 1082 c 2
 358 1515 l 2
 372 1539 397 1555 427 1555 c 0
 471 1555 507 1519 507 1475 c 0
 507 1461 504 1447 497 1435 c 2
 322 1130 l 1
 594 1144 l 2
 641 1146 678 1109 678 1064 c 0
 678 1021 644 986 602 984 c 2
 184 962 l 2
 133 959 100 1001 100 1042 c 0
486 1276 m 0
 532 1276 571 1237 566 1187 c 2
 533 887 l 2
 529 847 494 816 453 816 c 0
 407 816 368 856 373 905 c 2
 406 1205 l 2
 410 1245 445 1276 486 1276 c 0
EndSplineSet
EndChar

StartChar: uni06F4.urdu
Encoding: 1114155 -1 639
Width: 1153
Flags: HW
LayerCount: 2
Fore
SplineSet
756 470 m 0
 654 435 585.205088145 473.564484641 538 571 c 0
 466 740.255319149 435 786 394 786 c 0
 366 786 347 757 347 715 c 0
 347 572 432.518072289 406 659 107 c 0
 711 42 706 -62 647 -121 c 0
 574 -194 456 -187 392 -106 c 0
 147.163265306 219 20 496 20 705 c 0
 20 935 180 1117 381 1117 c 0
 436.716763006 1117 487.12716763 1102 534 1072 c 1
 620.946547884 1252 784.329621381 1363 963 1363 c 0
 1059 1363 1133 1289 1133 1192 c 0
 1133 1096 1059 1021 963 1021 c 0
 886.89017341 1021 830 929.547008547 830 807 c 0
 830 771 837 733 852 688 c 0
 885.700148368 586.899554897 849 502 756 470 c 0
EndSplineSet
EndChar

StartChar: uni06F7.urdu
Encoding: 1114156 -1 640
Width: 1218
Flags: HW
LayerCount: 2
Fore
SplineSet
20 49 m 24
 33 144 108 215 213 200 c 0
 347.9 181 478.05 170 593 170 c 0
 697.567164179 170 782.701492537 178 841 190 c 1
 781.197969543 595 677.730964467 792 467 1136 c 0
 410 1221 447 1330 519 1375 c 0
 601 1428 708 1393 753 1322 c 0
 1000.86021505 921 1139.62365591 631 1198 104 c 0
 1215 -16 1123 -76 1051 -102 c 0
 931.230125523 -148 776.966527197 -172 593 -172 c 0
 459.278026906 -172 315.049327354 -162 167 -140 c 0
 85 -130 7 -44 20 49 c 24
EndSplineSet
EndChar
